{
.appVersion = "3260";
.formatVersion = 3;
date = "2024-08-05 16:00:15 +0000";
familyName = "MFB Oldstyle";
featurePrefixes = (
{
automatic = 1;
code = "languagesystem DFLT dflt;

languagesystem latn dflt;
languagesystem latn AZE;
languagesystem latn CRT;
languagesystem latn KAZ;
languagesystem latn TAT;
languagesystem latn TRK;
languagesystem latn ROM;
languagesystem latn MOL;
languagesystem latn MAH;
languagesystem latn CAT;
languagesystem latn NLD;
";
name = Languagesystems;
}
);
features = (
{
automatic = 1;
code = "feature locl;
feature subs;
feature sinf;
feature sups;
feature numr;
feature dnom;
feature frac;
feature ordn;
feature lnum;
feature pnum;
feature tnum;
feature onum;
feature c2sc;
feature smcp;
feature case;
";
tag = aalt;
},
{
automatic = 1;
code = "lookup ccmp_DFLT_1 {
	lookupflag 0;
	sub brevecomb acutecomb by brevecomb_acutecomb;
	sub brevecomb gravecomb by brevecomb_gravecomb;
	sub brevecomb hookabovecomb by brevecomb_hookabovecomb;
	sub brevecomb tildecomb by brevecomb_tildecomb;
	sub circumflexcomb acutecomb by circumflexcomb_acutecomb;
	sub circumflexcomb caroncomb by circumflexcomb_caroncomb;
	sub circumflexcomb gravecomb by circumflexcomb_gravecomb;
	sub circumflexcomb hookabovecomb by circumflexcomb_hookabovecomb;
	sub circumflexcomb tildecomb by circumflexcomb_tildecomb;
} ccmp_DFLT_1;

lookup ccmp_Other_1 {
	@CombiningTopAccents = [acutecomb brevecomb breveinvertedcomb candraBinducomb caroncomb circumflexcomb commaturnedabovecomb dblgravecomb dieresiscomb dotaccentcomb gravecomb hookabovecomb hungarumlautcomb macroncomb ringcomb tildecomb];
	lookupflag UseMarkFilteringSet @CombiningTopAccents;
	sub i' @CombiningTopAccents by idotless;
	sub j' @CombiningTopAccents by jdotless;
} ccmp_Other_1;

lookup ccmp_latn_1 {
	lookupflag 0;
	sub fi by f i;
	sub fl by f l;
} ccmp_latn_1;

script latn;
lookup ccmp_latn_1;
";
tag = ccmp;
},
{
automatic = 1;
code = "script latn;
language AZE;
lookup locl_latn_0 {
	sub i by idotaccent;
} locl_latn_0;

glyphs = (
{
glyphname = A;
kernLeft = A;
kernRight = A;
lastChange = "2024-08-06 02:25:19 +0000";
layers = (
{
anchors = (
{
name = dotbelow;
pos = (301,0);
},
{
name = ogonek;
pos = (519,0);
},
{
name = top;
pos = (322,813);
}
);
layerId = m01;
shapes = (
{
closed = 1;
nodes = (
(213,0,l),
(213,42,l),
(148,42,o),
(130,63,o),
(130,96,cs),
(130,109,o),
(133,122,o),
(137,135,cs),
(172,249,l),
(415,249,l),
(457,105,ls),
(460,95,o),
(463,81,o),
(463,73,cs),
(463,51,o),
(437,42,o),
(410,42,cs),
(379,42,l),
(379,0,l),
(650,0,l),
(650,42,l),
(584,48,o),
(580,56,o),
(558,124,cs),
(361,743,l),
(274,716,l),
(72,103,ls),
(59,64,o),
(34,42,o),
(-8,42,c),
(-8,0,l)
);
},
{
closed = 1;
nodes = (
(298,639,l),
(398,297,l),
(188,297,l)
);
}
);
width = 643;
}
);
unicode = 65;
},
{
glyphname = AE;
kernLeft = AE;
kernRight = E;
lastChange = "2024-08-06 02:25:19 +0000";
layers = (
{
anchors = (
{
name = top;
pos = (659,813);
}
);
layerId = m01;
shapes = (
{
closed = 1;
nodes = (
(223,0,l),
(223,42,l),
(159,42,o),
(137,44,o),
(137,64,cs),
(137,77,o),
(146,95,o),
(158,114,cs),
(248,256,l),
(522,256,l),
(522,131,ls),
(522,53,o),
(505,42,o),
(451,42,cs),
(428,42,l),
(428,0,l),
(951,0,l),
(1022,190,l),
(988,204,l),
(938,133,o),
(867,41,o),
(701,41,cs),
(635,41,o),
(623,55,o),
(623,116,cs),
(623,349,l),
(653,349,ls),
(781,349,o),
(791,310,o),
(808,225,c),
(848,225,l),
(848,511,l),
(806,511,l),
(789,426,o),
(775,391,o),
(653,391,cs),
(623,391,l),
(623,615,ls),
(623,670,o),
(648,679,o),
(711,679,cs),
(819,679,o),
(880,651,o),
(962,533,c),
(1000,548,l),
(936,721,l),
(399,721,l),
(399,680,l),
(455,680,ls),
(472,680,o),
(475,674,o),
(475,670,cs),
(475,663,o),
(462,647,o),
(446,624,cs),
(94,114,ls),
(68,76,o),
(35,42,o),
(-8,42,c),
(-8,0,l)
);
},
{
closed = 1;
nodes = (
(522,655,l),
(522,298,l),
(276,298,l)
);
}
);
width = 1065;
}
);
unicode = 198;
},
{
glyphname = B;
kernLeft = B;
kernRight = B;
lastChange = "2024-08-06 02:25:19 +0000";
layers = (
{
anchors = (
{
name = dotbelow;
pos = (334,0);
},
{
name = top;
pos = (315,813);
}
);
layerId = m01;
shapes = (
{
closed = 1;
nodes = (
(334,0,ls),
(425,0,o),
(516,15,o),
(572,76,cs),
(600,107,o),
(619,148,o),
(619,195,cs),
(619,282,o),
(552,372,o),
(408,386,c),
(490,400,o),
(581,454,o),
(581,553,cs),
(581,629,o),
(528,673,o),
(483,692,cs),
(443,709,o),
(374,721,o),
(294,721,cs),
(32,721,l),
(32,679,l),
(56,679,ls),
(111,679,o),
(126,662,o),
(126,599,cs),
(126,131,ls),
(126,53,o),
(109,42,o),
(55,42,cs),
(32,42,l),
(32,0,l)
);
},
{
closed = 1;
nodes = (
(269,42,o),
(250,45,o),
(239,54,cs),
(230,62,o),
(227,73,o),
(227,128,cs),
(227,361,l),
(252,363,o),
(271,363,o),
(294,363,cs),
(374,363,o),
(508,363,o),
(508,196,cs),
(508,89,o),
(453,42,o),
(306,42,cs)
);
},
{
closed = 1;
nodes = (
(227,611,ls),
(227,637,o),
(233,651,o),
(236,656,cs),
(248,676,o),
(288,681,o),
(322,681,cs),
(431,681,o),
(471,629,o),
(471,547,cs),
(471,404,o),
(352,402,o),
(261,402,cs),
(227,402,l)
);
}
);
width = 663;
}
);
unicode = 66;
},
{
glyphname = Bstroke;
kernLeft = B;
kernRight = B;
lastChange = "2024-08-06 02:25:19 +0000";
layers = (
{
layerId = m01;
shapes = (
{
closed = 1;
nodes = (
(413,200,l),
(413,242,l),
(31,242,l),
(31,200,l)
);
},
{
ref = B;
}
);
width = 663;
}
);
unicode = 579;
},
{
glyphname = C;
kernLeft = C;
kernRight = C;
lastChange = "2024-08-06 02:25:19 +0000";
layers = (
{
anchors = (
{
name = attachcedilla;
pos = (325,-17);
},
{
name = top;
pos = (349,813);
}
);
layerId = m01;
shapes = (
{
closed = 1;
nodes = (
(458,-14,o),
(563,58,o),
(615,192,c),
(576,209,l),
(543,128,o),
(470,63,o),
(375,63,cs),
(264,63,o),
(151,152,o),
(151,377,cs),
(151,574,o),
(238,692,o),
(351,692,cs),
(451,692,o),
(542,600,o),
(575,524,c),
(615,541,l),
(554,729,l),
(537,723,o),
(502,709,o),
(481,709,cs),
(453,709,o),
(423,735,o),
(355,735,cs),
(157,735,o),
(43,513,o),
(43,324,cs),
(43,128,o),
(166,-14,o),
(337,-14,cs)
);
}
);
width = 654;
}
);
unicode = 67;
},
{
glyphname = Ccedilla;
kernLeft = C;
kernRight = C;
lastChange = "2024-08-06 02:25:19 +0000";
layers = (
{
anchors = (
{
name = attachcedilla;
pos = (325,-17);
},
{
name = top;
pos = (349,813);
}
);
layerId = m01;
shapes = (
{
closed = 1;
nodes = (
(387,-217,o),
(440,-186,o),
(440,-132,cs),
(440,-92,o),
(410,-63,o),
(370,-63,cs),
(354,-63,o),
(337,-68,o),
(337,-68,c),
(356,-13,l),
(469,-6,o),
(565,65,o),
(615,192,c),
(576,209,l),
(543,128,o),
(470,63,o),
(375,63,cs),
(264,63,o),
(151,152,o),
(151,377,cs),
(151,574,o),
(238,692,o),
(351,692,cs),
(451,692,o),
(542,600,o),
(575,524,c),
(615,541,l),
(554,729,l),
(537,723,o),
(502,709,o),
(481,709,cs),
(453,709,o),
(423,735,o),
(355,735,cs),
(157,735,o),
(43,514,o),
(43,324,cs),
(43,134,o),
(157,-5,o),
(324,-14,c),
(292,-93,l),
(303,-99,l),
(309,-98,o),
(321,-96,o),
(331,-96,cs),
(363,-96,o),
(372,-115,o),
(372,-134,cs),
(372,-166,o),
(343,-183,o),
(312,-183,cs),
(284,-183,o),
(257,-171,o),
(242,-164,c),
(225,-197,l),
(249,-208,o),
(279,-217,o),
(317,-217,cs)
);
}
);
width = 654;
}
);
unicode = 199;
},
{
glyphname = D;
kernLeft = D;
kernRight = D;
lastChange = "2024-08-06 02:25:19 +0000";
layers = (
{
anchors = (
{
name = commaaccentbelow;
pos = (362,0);
},
{
name = dotbelow;
pos = (335,0);
},
{
name = top;
pos = (307,813);
}
);
layerId = m01;
shapes = (
{
closed = 1;
nodes = (
(291,0,ls),
(403,0,o),
(488,21,o),
(555,76,cs),
(596,110,o),
(678,198,o),
(678,365,cs),
(678,577,o),
(546,663,o),
(492,689,cs),
(445,711,o),
(391,721,o),
(294,721,cs),
(32,721,l),
(32,679,l),
(56,679,ls),
(111,679,o),
(126,662,o),
(126,599,cs),
(126,131,ls),
(126,53,o),
(109,42,o),
(55,42,cs),
(32,42,l),
(32,0,l)
);
},
{
closed = 1;
nodes = (
(243,40,o),
(227,53,o),
(227,136,cs),
(227,597,ls),
(227,664,o),
(247,681,o),
(320,681,cs),
(495,681,o),
(566,583,o),
(566,369,cs),
(566,72,o),
(430,40,o),
(316,40,cs)
);
}
);
width = 721;
}
);
unicode = 68;
},
{
glyphname = Eth;
kernLeft = D;
kernRight = D;
lastChange = "2024-08-06 02:25:19 +0000";
layers = (
{
layerId = m01;
shapes = (
{
closed = 1;
nodes = (
(413,346,l),
(413,388,l),
(31,388,l),
(31,346,l)
);
},
{
ref = D;
}
);
width = 721;
}
);
unicode = 208;
},
{
glyphname = E;
kernLeft = E;
kernRight = E;
lastChange = "2024-08-06 02:25:19 +0000";
layers = (
{
anchors = (
{
name = attachcedilla;
pos = (305,-17);
},
{
name = dotbelow;
pos = (308,0);
},
{
name = ogonek;
pos = (387,0);
},
{
name = top;
pos = (308,813);
}
);
layerId = m01;
shapes = (
{
closed = 1;
nodes = (
(557,0,l),
(627,188,l),
(594,203,l),
(533,129,o),
(471,41,o),
(305,41,cs),
(239,41,o),
(227,55,o),
(227,116,cs),
(227,349,l),
(257,349,ls),
(385,349,o),
(397,310,o),
(413,225,c),
(453,225,l),
(453,511,l),
(412,511,l),
(395,426,o),
(379,391,o),
(257,391,cs),
(227,391,l),
(227,615,ls),
(227,669,o),
(250,679,o),
(315,679,cs),
(424,679,o),
(485,651,o),
(568,533,c),
(605,546,l),
(542,721,l),
(32,721,l),
(32,679,l),
(56,679,ls),
(111,679,o),
(126,662,o),
(126,599,cs),
(126,131,ls),
(126,53,o),
(109,42,o),
(55,42,cs),
(32,42,l),
(32,0,l)
);
}
);
width = 670;
}
);
unicode = 69;
},
{
glyphname = Ecedilla;
kernLeft = E;
kernRight = E;
lastChange = "2024-08-06 02:25:19 +0000";
layers = (
{
layerId = m01;
shapes = (
{
closed = 1;
nodes = (
(366,-217,o),
(419,-186,o),
(419,-132,cs),
(419,-92,o),
(389,-63,o),
(349,-63,cs),
(333,-63,o),
(317,-68,o),
(317,-68,c),
(341,3,l),
(311,3,l),
(271,-93,l),
(282,-99,l),
(289,-98,o),
(301,-96,o),
(311,-96,cs),
(343,-96,o),
(351,-115,o),
(351,-133,cs),
(351,-166,o),
(323,-183,o),
(291,-183,cs),
(264,-183,o),
(237,-171,o),
(222,-164,c),
(204,-197,l),
(228,-208,o),
(258,-217,o),
(296,-217,cs)
);
},
{
ref = E;
}
);
width = 670;
}
);
unicode = 552;
},
{
glyphname = F;
kernLeft = E;
kernRight = F;
lastChange = "2024-08-06 02:25:19 +0000";
layers = (
{
anchors = (
{
name = top;
pos = (308,813);
}
);
layerId = m01;
shapes = (
{
closed = 1;
nodes = (
(328,0,l),
(328,42,l),
(298,42,ls),
(244,42,o),
(227,53,o),
(227,131,cs),
(227,349,l),
(257,349,ls),
(385,349,o),
(404,308,o),
(413,225,c),
(451,225,l),
(451,511,l),
(413,511,l),
(406,429,o),
(369,390,o),
(257,390,cs),
(227,390,l),
(227,615,ls),
(227,670,o),
(261,679,o),
(320,679,cs),
(429,679,o),
(491,648,o),
(573,529,c),
(608,542,l),
(541,721,l),
(32,721,l),
(32,679,l),
(56,679,ls),
(111,679,o),
(126,662,o),
(126,599,cs),
(126,131,ls),
(126,53,o),
(109,42,o),
(55,42,cs),
(32,42,l),
(32,0,l)
);
}
);
width = 613;
}
);
unicode = 70;
},
{
glyphname = G;
kernLeft = G;
kernRight = G;
lastChange = "2024-08-06 02:25:19 +0000";
layers = (
{
anchors = (
{
name = commaaccentbelow;
pos = (356,0);
},
{
name = top;
pos = (347,813);
}
);
layerId = m01;
shapes = (
{
closed = 1;
nodes = (
(460,-14,o),
(494,27,o),
(582,27,cs),
(588,27,o),
(596,27,o),
(604,26,c),
(604,198,ls),
(604,253,o),
(615,279,o),
(669,279,cs),
(691,279,l),
(691,321,l),
(408,321,l),
(408,279,l),
(424,279,ls),
(494,279,o),
(508,266,o),
(508,196,cs),
(508,150,ls),
(508,76,o),
(446,26,o),
(362,26,cs),
(240,26,o),
(155,132,o),
(155,350,cs),
(155,562,o),
(236,695,o),
(360,695,cs),
(463,695,o),
(541,604,o),
(586,534,c),
(623,552,l),
(556,734,l),
(536,728,o),
(502,714,o),
(480,714,cs),
(454,714,o),
(418,735,o),
(357,735,cs),
(177,735,o),
(43,552,o),
(43,344,cs),
(43,146,o),
(165,-14,o),
(361,-14,cs)
);
}
);
width = 730;
}
);
unicode = 71;
},
{
glyphname = H;
kernLeft = H;
kernRight = H;
lastChange = "2024-08-06 02:25:19 +0000";
layers = (
{
anchors = (
{
name = attachcedilla;
pos = (159,-17);
},
{
name = dotbelow;
pos = (370,0);
},
{
name = top;
pos = (370,813);
}
);
layerId = m01;
shapes = (
{
closed = 1;
nodes = (
(314,0,l),
(314,42,l),
(298,42,ls),
(244,42,o),
(227,53,o),
(227,131,cs),
(227,345,l),
(512,345,l),
(512,131,ls),
(512,53,o),
(495,42,o),
(441,42,cs),
(426,42,l),
(426,0,l),
(707,0,l),
(707,42,l),
(684,42,ls),
(630,42,o),
(613,53,o),
(613,131,cs),
(613,599,ls),
(613,662,o),
(628,679,o),
(683,679,cs),
(707,679,l),
(707,721,l),
(426,721,l),
(426,679,l),
(442,679,ls),
(497,679,o),
(512,662,o),
(512,599,cs),
(512,394,l),
(227,394,l),
(227,599,ls),
(227,662,o),
(242,679,o),
(297,679,cs),
(314,679,l),
(314,721,l),
(32,721,l),
(32,679,l),
(56,679,ls),
(111,679,o),
(126,662,o),
(126,599,cs),
(126,131,ls),
(126,53,o),
(109,42,o),
(55,42,cs),
(32,42,l),
(32,0,l)
);
}
);
width = 738;
}
);
unicode = 72;
},
{
glyphname = Hbar;
kernLeft = H;
kernRight = H;
lastChange = "2024-08-06 02:25:19 +0000";
layers = (
{
anchors = (
{
name = top;
pos = (370,813);
}
);
layerId = m01;
shapes = (
{
closed = 1;
nodes = (
(314,0,l),
(314,42,l),
(298,42,ls),
(244,42,o),
(227,53,o),
(227,131,cs),
(227,345,l),
(512,345,l),
(512,131,ls),
(512,53,o),
(495,42,o),
(441,42,cs),
(426,42,l),
(426,0,l),
(707,0,l),
(707,42,l),
(684,42,ls),
(630,42,o),
(613,53,o),
(613,131,cs),
(613,511,l),
(706,511,l),
(706,554,l),
(613,554,l),
(613,599,ls),
(613,662,o),
(628,679,o),
(683,679,cs),
(707,679,l),
(707,721,l),
(426,721,l),
(426,679,l),
(442,679,ls),
(497,679,o),
(512,662,o),
(512,599,cs),
(512,554,l),
(227,554,l),
(227,599,ls),
(227,662,o),
(242,679,o),
(297,679,cs),
(314,679,l),
(314,721,l),
(32,721,l),
(32,679,l),
(56,679,ls),
(111,679,o),
(126,662,o),
(126,599,cs),
(126,554,l),
(32,554,l),
(32,511,l),
(126,511,l),
(126,131,ls),
(126,53,o),
(109,42,o),
(55,42,cs),
(32,42,l),
(32,0,l)
);
},
{
closed = 1;
nodes = (
(227,511,l),
(512,511,l),
(512,394,l),
(227,394,l)
);
}
);
width = 738;
}
);
unicode = 294;
},
{
glyphname = Hcedilla;
kernLeft = H;
kernRight = H;
lastChange = "2024-08-06 02:25:19 +0000";
layers = (
{
layerId = m01;
shapes = (
{
closed = 1;
nodes = (
(220,-217,o),
(274,-186,o),
(274,-133,cs),
(274,-92,o),
(243,-63,o),
(203,-63,cs),
(187,-63,o),
(171,-68,o),
(171,-68,c),
(195,3,l),
(165,3,l),
(125,-93,l),
(136,-99,l),
(143,-98,o),
(155,-96,o),
(165,-96,cs),
(197,-96,o),
(205,-115,o),
(205,-133,cs),
(205,-166,o),
(177,-183,o),
(145,-183,cs),
(118,-183,o),
(91,-171,o),
(76,-164,c),
(58,-197,l),
(82,-208,o),
(112,-217,o),
(150,-217,cs)
);
},
{
ref = H;
}
);
width = 738;
}
);
unicode = 7720;
},
{
glyphname = I;
kernLeft = I;
kernRight = I;
lastChange = "2024-08-06 02:25:19 +0000";
layers = (
{
anchors = (
{
name = dotbelow;
pos = (177,0);
},
{
name = ogonek;
pos = (173,0);
},
{
name = top;
pos = (177,813);
}
);
layerId = m01;
shapes = (
{
closed = 1;
nodes = (
(321,0,l),
(321,42,l),
(298,42,ls),
(244,42,o),
(227,53,o),
(227,131,cs),
(227,599,ls),
(227,662,o),
(242,679,o),
(297,679,cs),
(321,679,l),
(321,721,l),
(32,721,l),
(32,679,l),
(56,679,ls),
(111,679,o),
(126,662,o),
(126,599,cs),
(126,131,ls),
(126,53,o),
(109,42,o),
(55,42,cs),
(32,42,l),
(32,0,l)
);
}
);
width = 354;
}
);
unicode = 73;
},
{
glyphname = J;
kernLeft = J;
kernRight = J;
lastChange = "2024-08-06 02:25:19 +0000";
layers = (
{
anchors = (
{
name = top;
pos = (188,813);
}
);
layerId = m01;
shapes = (
{
closed = 1;
nodes = (
(116,-166,o),
(162,-137,o),
(194,-93,cs),
(234,-38,o),
(244,30,o),
(244,99,cs),
(244,599,ls),
(244,662,o),
(259,679,o),
(315,679,cs),
(338,679,l),
(338,721,l),
(43,721,l),
(43,679,l),
(74,679,ls),
(129,679,o),
(144,662,o),
(144,599,cs),
(144,-17,ls),
(144,-62,o),
(137,-107,o),
(101,-107,cs),
(81,-107,o),
(81,-92,o),
(74,-74,cs),
(67,-56,o),
(50,-27,o),
(13,-27,cs),
(-26,-27,o),
(-51,-59,o),
(-51,-91,cs),
(-51,-129,o),
(-15,-166,o),
(54,-166,cs)
);
}
);
width = 368;
}
);
unicode = 74;
},
{
glyphname = K;
kernLeft = K;
kernRight = K;
lastChange = "2024-08-06 02:25:19 +0000";
layers = (
{
anchors = (
{
name = commaaccentbelow;
pos = (354,0);
},
{
name = dotbelow;
pos = (354,0);
},
{
name = top;
pos = (351,813);
}
);
layerId = m01;
shapes = (
{
closed = 1;
nodes = (
(314,0,l),
(314,42,l),
(298,42,ls),
(244,42,o),
(227,53,o),
(227,131,cs),
(227,285,l),
(316,375,l),
(477,128,ls),
(496,99,o),
(510,76,o),
(510,63,cs),
(510,42,o),
(470,42,o),
(452,42,cs),
(432,42,l),
(432,0,l),
(710,0,l),
(710,42,l),
(672,42,o),
(643,48,o),
(608,103,cs),
(388,450,l),
(536,602,ls),
(592,659,o),
(624,679,o),
(675,679,c),
(675,721,l),
(426,721,l),
(426,679,l),
(452,679,ls),
(478,679,o),
(498,671,o),
(498,653,cs),
(498,636,o),
(482,615,o),
(462,594,cs),
(227,346,l),
(227,599,ls),
(227,662,o),
(242,679,o),
(297,679,cs),
(314,679,l),
(314,721,l),
(32,721,l),
(32,679,l),
(56,679,ls),
(111,679,o),
(126,662,o),
(126,599,cs),
(126,131,ls),
(126,53,o),
(109,42,o),
(55,42,cs),
(32,42,l),
(32,0,l)
);
}
);
width = 703;
}
);
unicode = 75;
},
{
glyphname = L;
kernLeft = L;
kernRight = L;
lastChange = "2024-08-06 02:25:19 +0000";
layers = (
{
anchors = (
{
name = caroncombalt;
pos = (478,735);
},
{
name = commaaccentbelow;
pos = (304,0);
},
{
name = dotbelow;
pos = (305,0);
},
{
name = ldot;
pos = (411,292);
},
{
name = top;
pos = (177,813);
}
);
layerId = m01;
shapes = (
{
closed = 1;
nodes = (
(538,0,l),
(605,187,l),
(570,202,l),
(548,170,o),
(526,145,o),
(496,117,cs),
(437,63,o),
(396,44,o),
(311,44,cs),
(245,44,o),
(227,55,o),
(227,116,cs),
(227,599,ls),
(227,662,o),
(242,679,o),
(297,679,cs),
(321,679,l),
(321,721,l),
(32,721,l),
(32,679,l),
(56,679,ls),
(111,679,o),
(126,662,o),
(126,599,cs),
(126,131,ls),
(126,53,o),
(109,42,o),
(55,42,cs),
(32,42,l),
(32,0,l)
);
}
);
width = 605;
}
);
unicode = 76;
},
{
glyphname = Lslash;
kernLeft = L;
kernRight = L;
lastChange = "2024-08-06 02:25:19 +0000";
layers = (
{
layerId = m01;
shapes = (
{
closed = 1;
nodes = (
(370,431,l),
(370,488,l),
(44,308,l),
(44,257,l)
);
},
{
ref = L;
}
);
width = 605;
}
);
unicode = 321;
},
{
glyphname = M;
kernLeft = M;
kernRight = M;
lastChange = "2024-08-06 02:25:19 +0000";
layers = (
{
anchors = (
{
name = dotbelow;
pos = (430,0);
},
{
name = top;
pos = (450,813);
}
);
layerId = m01;
shapes = (
{
closed = 1;
nodes = (
(271,0,l),
(271,42,l),
(195,42,o),
(177,76,o),
(177,171,cs),
(177,644,l),
(414,0,l),
(445,0,l),
(681,653,l),
(681,131,ls),
(681,53,o),
(664,42,o),
(610,42,cs),
(587,42,l),
(587,0,l),
(876,0,l),
(876,42,l),
(853,42,ls),
(799,42,o),
(782,53,o),
(782,131,cs),
(782,599,ls),
(782,662,o),
(797,679,o),
(852,679,cs),
(876,679,l),
(876,721,l),
(658,721,l),
(457,171,l),
(254,721,l),
(32,721,l),
(32,679,l),
(54,679,ls),
(108,679,o),
(126,667,o),
(126,598,cs),
(126,171,ls),
(126,88,o),
(107,42,o),
(32,42,c),
(32,0,l)
);
}
);
width = 908;
}
);
unicode = 77;
},
{
glyphname = N;
kernLeft = N;
kernRight = N;
lastChange = "2024-08-06 02:25:19 +0000";
layers = (
{
anchors = (
{
name = commaaccentbelow;
pos = (375,0);
},
{
name = dotbelow;
pos = (375,0);
},
{
name = top;
pos = (362,813);
}
);
layerId = m01;
shapes = (
{
closed = 1;
nodes = (
(619,-14,l),
(619,550,ls),
(619,634,o),
(634,675,o),
(714,679,c),
(714,721,l),
(475,721,l),
(475,679,l),
(555,672,o),
(569,640,o),
(569,545,cs),
(569,194,l),
(202,721,l),
(32,721,l),
(32,677,l),
(78,677,o),
(110,656,o),
(126,637,c),
(126,171,ls),
(126,88,o),
(107,42,o),
(32,42,c),
(32,0,l),
(271,0,l),
(271,42,l),
(195,42,o),
(177,86,o),
(177,182,cs),
(177,591,l),
(586,-14,l)
);
}
);
width = 738;
}
);
unicode = 78;
},
{
glyphname = O;
kernLeft = O;
kernRight = O;
lastChange = "2024-08-06 02:25:19 +0000";
layers = (
{
anchors = (
{
name = attachhorn;
pos = (563,592);
},
{
name = dotbelow;
pos = (354,0);
},
{
name = ogonek;
pos = (398,0);
},
{
name = top;
pos = (354,813);
}
);
layerId = m01;
shapes = (
{
closed = 1;
nodes = (
(525,-14,o),
(664,155,o),
(664,361,cs),
(664,568,o),
(524,735,o),
(354,735,cs),
(183,735,o),
(43,568,o),
(43,361,cs),
(43,154,o),
(183,-14,o),
(354,-14,cs)
);
},
{
closed = 1;
nodes = (
(241,26,o),
(155,152,o),
(155,362,cs),
(155,571,o),
(241,695,o),
(353,695,cs),
(466,695,o),
(552,570,o),
(552,362,cs),
(552,153,o),
(466,26,o),
(353,26,cs)
);
}
);
width = 707;
}
);
unicode = 79;
},
{
glyphname = Ohorn;
kernLeft = O;
kernRight = O;
lastChange = "2024-08-06 02:25:19 +0000";
layers = (
{
layerId = m01;
shapes = (
{
closed = 1;
nodes = (
(632,609,o),
(707,688,o),
(707,765,cs),
(707,818,o),
(671,844,o),
(637,844,cs),
(606,844,o),
(575,823,o),
(575,781,cs),
(575,725,o),
(631,727,o),
(631,697,cs),
(631,671,o),
(591,623,o),
(563,592,c),
(589,565,l)
);
},
{
ref = O;
}
);
width = 707;
}
);
unicode = 416;
},
{
glyphname = Oslash;
kernLeft = O;
kernRight = O;
lastChange = "2024-08-06 02:25:19 +0000";
layers = (
{
layerId = m01;
shapes = (
{
closed = 1;
nodes = (
(586,723,l),
(550,743,l),
(122,-18,l),
(157,-39,l)
);
},
{
ref = O;
}
);
width = 707;
}
);
unicode = 216;
},
{
glyphname = OE;
kernLeft = O;
kernRight = E;
lastChange = "2024-08-06 02:25:19 +0000";
layers = (
{
anchors = (
{
name = top;
pos = (568,813);
}
);
layerId = m01;
shapes = (
{
closed = 1;
nodes = (
(931,0,l),
(1001,188,l),
(964,200,l),
(918,133,o),
(859,41,o),
(692,41,cs),
(627,41,o),
(615,55,o),
(615,116,cs),
(615,349,l),
(638,349,ls),
(765,349,o),
(777,310,o),
(794,225,c),
(834,225,l),
(834,511,l),
(792,511,l),
(775,426,o),
(760,391,o),
(638,391,cs),
(615,391,l),
(615,615,ls),
(615,670,o),
(640,679,o),
(704,679,cs),
(812,679,o),
(856,652,o),
(938,534,c),
(975,551,l),
(911,721,l),
(386,721,ls),
(175,721,o),
(43,568,o),
(43,362,cs),
(43,151,o),
(182,0,o),
(386,0,cs)
);
},
{
closed = 1;
nodes = (
(279,44,o),
(155,71,o),
(155,362,cs),
(155,586,o),
(228,677,o),
(387,677,cs),
(458,677,o),
(515,659,o),
(515,532,cs),
(515,201,ls),
(515,52,o),
(458,44,o),
(395,44,cs)
);
}
);
width = 1043;
}
);
unicode = 338;
},
{
glyphname = P;
kernLeft = P;
kernRight = P;
lastChange = "2024-08-06 02:25:19 +0000";
layers = (
{
anchors = (
{
name = top;
pos = (302,813);
}
);
layerId = m01;
shapes = (
{
closed = 1;
nodes = (
(328,0,l),
(328,42,l),
(298,42,ls),
(244,42,o),
(227,53,o),
(227,131,cs),
(227,332,l),
(261,332,ls),
(349,332,o),
(430,332,o),
(493,365,cs),
(552,396,o),
(588,451,o),
(588,522,cs),
(588,630,o),
(506,683,o),
(457,701,cs),
(424,713,o),
(373,721,o),
(294,721,cs),
(32,721,l),
(32,679,l),
(56,679,ls),
(111,679,o),
(126,662,o),
(126,599,cs),
(126,131,ls),
(126,53,o),
(109,42,o),
(55,42,cs),
(32,42,l),
(32,0,l)
);
},
{
closed = 1;
nodes = (
(227,611,ls),
(227,637,o),
(233,651,o),
(236,656,cs),
(248,676,o),
(289,681,o),
(321,681,cs),
(431,681,o),
(477,622,o),
(477,526,cs),
(477,376,o),
(364,376,o),
(285,376,cs),
(227,376,l)
);
}
);
width = 621;
}
);
unicode = 80;
},
{
glyphname = Thorn;
kernLeft = P;
kernRight = P;
lastChange = "2024-08-06 02:25:19 +0000";
layers = (
{
layerId = m01;
shapes = (
{
closed = 1;
nodes = (
(328,0,l),
(328,42,l),
(298,42,ls),
(244,42,o),
(227,53,o),
(227,131,cs),
(227,170,l),
(261,170,ls),
(349,170,o),
(430,170,o),
(493,203,cs),
(552,234,o),
(588,289,o),
(588,361,cs),
(588,468,o),
(507,520,o),
(457,538,cs),
(421,551,o),
(368,559,o),
(294,559,cs),
(227,559,l),
(227,599,ls),
(227,662,o),
(242,679,o),
(297,679,cs),
(328,679,l),
(328,721,l),
(32,721,l),
(32,679,l),
(56,679,ls),
(111,679,o),
(126,662,o),
(126,599,cs),
(126,131,ls),
(126,53,o),
(109,42,o),
(55,42,cs),
(32,42,l),
(32,0,l)
);
},
{
closed = 1;
nodes = (
(227,449,ls),
(227,475,o),
(233,489,o),
(236,494,cs),
(248,514,o),
(289,519,o),
(321,519,cs),
(431,519,o),
(477,459,o),
(477,364,cs),
(477,214,o),
(364,214,o),
(285,214,cs),
(227,214,l)
);
}
);
width = 621;
}
);
unicode = 222;
},
{
glyphname = Q;
kernLeft = Q;
kernRight = Q;
lastChange = "2024-08-06 02:25:19 +0000";
layers = (
{
anchors = (
{
name = top;
pos = (354,813);
}
);
layerId = m01;
shapes = (
{
closed = 1;
nodes = (
(614,-121,o),
(660,-83,o),
(682,-51,c),
(662,-27,l),
(646,-38,o),
(631,-50,o),
(612,-50,cs),
(574,-50,o),
(538,-1,o),
(514,39,c),
(592,95,o),
(665,190,o),
(665,354,cs),
(665,569,o),
(540,735,o),
(357,735,cs),
(172,735,o),
(43,566,o),
(43,354,cs),
(43,142,o),
(172,-14,o),
(348,-14,cs),
(379,-14,o),
(404,-9,o),
(428,-1,c),
(449,-77,o),
(485,-121,o),
(552,-121,cs)
);
},
{
closed = 1;
nodes = (
(274,26,o),
(230,69,o),
(230,109,cs),
(230,143,o),
(262,172,o),
(301,172,cs),
(351,172,o),
(400,124,o),
(416,39,c),
(397,29,o),
(374,26,o),
(353,26,cs)
);
},
{
closed = 1;
nodes = (
(428,162,o),
(375,212,o),
(300,212,cs),
(235,212,o),
(206,174,o),
(198,124,c),
(176,181,o),
(155,256,o),
(155,365,cs),
(155,578,o),
(236,695,o),
(357,695,cs),
(495,695,o),
(552,545,o),
(552,359,cs),
(552,231,o),
(525,133,o),
(481,81,c)
);
}
);
width = 708;
}
);
unicode = 81;
},
{
glyphname = R;
kernLeft = R;
kernRight = R;
lastChange = "2024-08-06 02:25:19 +0000";
layers = (
{
anchors = (
{
name = commaaccentbelow;
pos = (330,0);
},
{
name = dotbelow;
pos = (332,0);
},
{
name = top;
pos = (302,813);
}
);
layerId = m01;
shapes = (
{
closed = 1;
nodes = (
(314,0,l),
(314,42,l),
(298,42,ls),
(244,42,o),
(227,53,o),
(227,131,cs),
(227,346,l),
(297,346,l),
(486,0,l),
(658,0,l),
(658,42,l),
(643,42,ls),
(582,42,o),
(564,61,o),
(521,139,cs),
(401,358,l),
(525,366,o),
(591,452,o),
(591,540,cs),
(591,625,o),
(529,680,o),
(459,703,cs),
(423,715,o),
(377,721,o),
(294,721,cs),
(32,721,l),
(32,679,l),
(56,679,ls),
(111,679,o),
(126,662,o),
(126,599,cs),
(126,131,ls),
(126,53,o),
(109,42,o),
(55,42,cs),
(32,42,l),
(32,0,l)
);
},
{
closed = 1;
nodes = (
(227,611,ls),
(227,636,o),
(233,650,o),
(237,656,cs),
(250,676,o),
(276,681,o),
(313,681,cs),
(413,681,o),
(480,644,o),
(480,539,cs),
(480,438,o),
(417,388,o),
(317,388,cs),
(227,388,l)
);
}
);
width = 645;
}
);
unicode = 82;
},
{
glyphname = S;
kernLeft = S;
kernRight = S;
lastChange = "2024-08-06 02:25:19 +0000";
layers = (
{
anchors = (
{
name = attachcedilla;
pos = (290,-17);
},
{
name = commaaccentbelow;
pos = (308,0);
},
{
name = dotbelow;
pos = (303,0);
},
{
name = top;
pos = (269,813);
}
);
layerId = m01;
shapes = (
{
closed = 1;
nodes = (
(136,3,o),
(158,23,o),
(179,23,cs),
(207,23,o),
(247,-14,o),
(326,-14,cs),
(474,-14,o),
(532,115,o),
(532,216,cs),
(532,479,o),
(137,369,o),
(137,566,cs),
(137,631,o),
(180,689,o),
(260,689,cs),
(366,689,o),
(438,587,o),
(477,525,c),
(511,548,l),
(444,735,l),
(424,726,o),
(401,709,o),
(380,709,cs),
(353,709,o),
(306,735,o),
(251,735,cs),
(148,735,o),
(64,646,o),
(64,526,cs),
(64,268,o),
(455,380,o),
(455,169,cs),
(455,84,o),
(391,32,o),
(318,32,cs),
(222,32,o),
(119,123,o),
(70,199,c),
(36,182,l),
(107,-14,l)
);
}
);
width = 568;
}
);
unicode = 83;
},
{
glyphname = Germandbls;
kernLeft = I;
kernRight = S;
lastChange = "2024-08-06 02:25:19 +0000";
layers = (
{
anchors = (
{
name = attachcedilla;
pos = (617,-17);
},
{
name = commaaccentbelow;
pos = (636,0);
},
{
name = dotbelow;
pos = (630,0);
},
{
name = top;
pos = (415,813);
}
);
layerId = m01;
shapes = (
{
closed = 1;
nodes = (
(461,2,o),
(485,23,o),
(506,23,cs),
(535,23,o),
(575,-14,o),
(654,-14,cs),
(801,-14,o),
(859,115,o),
(859,216,cs),
(859,478,o),
(465,357,o),
(465,551,cs),
(465,616,o),
(510,675,o),
(579,675,cs),
(646,675,l),
(646,721,l),
(372,721,ls),
(177,721,o),
(109,616,o),
(109,457,cs),
(109,95,ls),
(109,56,o),
(98,40,o),
(44,40,cs),
(32,40,l),
(32,0,l),
(299,0,l),
(299,40,l),
(271,40,ls),
(217,40,o),
(210,53,o),
(210,98,cs),
(210,479,ls),
(210,597,o),
(242,675,o),
(403,675,cs),
(461,675,l),
(414,633,o),
(391,581,o),
(391,516,cs),
(391,250,o),
(783,381,o),
(783,169,cs),
(783,84,o),
(719,32,o),
(646,32,cs),
(548,32,o),
(445,125,o),
(398,199,c),
(363,182,l),
(435,-14,l)
);
}
);
width = 895;
}
);
metricRight = S;
unicode = 7838;
},
{
glyphname = T;
kernLeft = T;
kernRight = T;
lastChange = "2024-08-06 02:25:19 +0000";
layers = (
{
anchors = (
{
name = attachcedilla;
pos = (303,-17);
},
{
name = commaaccentbelow;
pos = (322,0);
},
{
name = dotbelow;
pos = (320,0);
},
{
name = top;
pos = (320,813);
}
);
layerId = m01;
shapes = (
{
closed = 1;
nodes = (
(471,0,l),
(471,42,l),
(442,42,ls),
(388,42,o),
(371,53,o),
(371,131,cs),
(371,615,ls),
(371,664,o),
(371,679,o),
(411,679,cs),
(469,679,o),
(533,647,o),
(611,526,c),
(649,542,l),
(595,721,l),
(46,721,l),
(-8,542,l),
(30,526,l),
(108,647,o),
(172,679,o),
(230,679,cs),
(270,679,o),
(270,664,o),
(270,615,cs),
(270,131,ls),
(270,53,o),
(253,42,o),
(199,42,cs),
(170,42,l),
(170,0,l)
);
}
);
width = 641;
}
);
unicode = 84;
},
{
glyphname = Tcedilla;
kernLeft = T;
kernRight = T;
lastChange = "2024-08-06 02:25:19 +0000";
layers = (
{
anchors = (
{
name = attachcedilla;
pos = (303,-17);
},
{
name = commaaccentbelow;
pos = (322,0);
},
{
name = top;
pos = (320,813);
}
);
layerId = m01;
shapes = (
{
closed = 1;
nodes = (
(364,-217,o),
(417,-186,o),
(417,-132,cs),
(417,-92,o),
(387,-63,o),
(347,-63,cs),
(331,-63,o),
(315,-68,o),
(315,-68,c),
(337,0,l),
(471,0,l),
(471,42,l),
(442,42,ls),
(388,42,o),
(371,53,o),
(371,131,cs),
(371,615,ls),
(371,664,o),
(371,679,o),
(411,679,cs),
(469,679,o),
(533,647,o),
(611,526,c),
(649,542,l),
(595,721,l),
(46,721,l),
(-8,542,l),
(30,526,l),
(108,647,o),
(172,679,o),
(230,679,cs),
(270,679,o),
(270,664,o),
(270,615,cs),
(270,131,ls),
(270,53,o),
(253,42,o),
(199,42,cs),
(170,42,l),
(170,0,l),
(307,0,l),
(269,-93,l),
(280,-99,l),
(286,-98,o),
(298,-96,o),
(308,-96,cs),
(341,-96,o),
(349,-115,o),
(349,-133,cs),
(349,-166,o),
(321,-183,o),
(289,-183,cs),
(262,-183,o),
(235,-171,o),
(219,-164,c),
(202,-197,l),
(226,-208,o),
(256,-217,o),
(294,-217,cs)
);
}
);
width = 641;
}
);
unicode = 354;
},
{
glyphname = U;
kernLeft = U;
kernRight = U;
lastChange = "2024-08-06 02:25:19 +0000";
layers = (
{
anchors = (
{
name = attachhorn;
pos = (716,592);
},
{
name = dotbelow;
pos = (384,0);
},
{
name = ogonek;
pos = (470,0);
},
{
name = top;
pos = (378,813);
}
);
layerId = m01;
shapes = (
{
closed = 1;
nodes = (
(493,-16,o),
(570,25,o),
(604,103,cs),
(623,145,o),
(630,201,o),
(630,271,cs),
(630,560,ls),
(630,646,o),
(654,675,o),
(724,679,c),
(724,721,l),
(485,721,l),
(485,679,l),
(556,675,o),
(579,646,o),
(579,560,cs),
(579,267,ls),
(579,215,o),
(576,169,o),
(562,131,cs),
(535,58,o),
(470,30,o),
(401,30,cs),
(358,30,o),
(305,41,o),
(266,90,cs),
(242,120,o),
(227,158,o),
(227,228,cs),
(227,599,ls),
(227,662,o),
(242,679,o),
(297,679,cs),
(321,679,l),
(321,721,l),
(32,721,l),
(32,679,l),
(56,679,ls),
(111,679,o),
(126,662,o),
(126,599,cs),
(126,230,ls),
(126,96,o),
(183,-16,o),
(377,-16,cs)
);
}
);
width = 757;
}
);
unicode = 85;
},
{
glyphname = Uhorn;
kernLeft = U;
kernRight = horn;
lastChange = "2024-08-06 02:25:19 +0000";
layers = (
{
layerId = m01;
shapes = (
{
closed = 1;
nodes = (
(789,475,o),
(881,688,o),
(881,767,cs),
(881,817,o),
(845,844,o),
(811,844,cs),
(781,844,o),
(749,823,o),
(749,780,cs),
(749,723,o),
(805,732,o),
(805,693,cs),
(805,670,o),
(786,554,o),
(623,517,c),
(623,475,l)
);
},
{
ref = U;
}
);
width = 878;
}
);
unicode = 431;
},
{
glyphname = Uogonek;
kernLeft = U;
kernRight = U;
lastChange = "2024-08-06 02:25:19 +0000";
layers = (
{
layerId = m01;
shapes = (
{
closed = 1;
nodes = (
(541,-204,o),
(569,-190,o),
(589,-175,c),
(570,-141,l),
(554,-151,o),
(543,-156,o),
(523,-156,cs),
(473,-156,o),
(456,-126,o),
(456,-89,cs),
(456,-44,o),
(480,-12,o),
(514,11,c),
(463,0,l),
(428,-13,o),
(396,-56,o),
(396,-108,cs),
(396,-167,o),
(436,-204,o),
(501,-204,cs)
);
},
{
ref = U;
}
);
width = 757;
}
);
unicode = 370;
},
{
glyphname = V;
kernLeft = V;
kernRight = V;
lastChange = "2024-08-06 02:25:19 +0000";
layers = (
{
anchors = (
{
name = dotbelow;
pos = (317,0);
},
{
name = top;
pos = (328,813);
}
);
layerId = m01;
shapes = (
{
closed = 1;
nodes = (
(332,-22,l),
(534,562,ls),
(562,643,o),
(571,677,o),
(640,679,c),
(640,721,l),
(417,721,l),
(417,679,l),
(474,679,o),
(496,662,o),
(496,626,cs),
(496,611,o),
(492,596,o),
(480,560,cs),
(343,147,l),
(195,599,ls),
(184,633,o),
(185,634,o),
(185,646,cs),
(185,675,o),
(216,679,o),
(240,679,cs),
(264,679,l),
(264,721,l),
(-8,721,l),
(-8,679,l),
(46,679,o),
(67,669,o),
(90,599,cs),
(298,-22,l)
);
}
);
width = 632;
}
);
unicode = 86;
},
{
glyphname = W;
kernLeft = V;
kernRight = V;
lastChange = "2024-08-06 02:25:19 +0000";
layers = (
{
anchors = (
{
name = dotbelow;
pos = (424,0);
},
{
name = top;
pos = (434,813);
}
);
layerId = m01;
shapes = (
{
closed = 1;
nodes = (
(272,-22,l),
(424,506,l),
(571,-22,l),
(598,-22,l),
(772,568,ls),
(798,656,o),
(802,676,o),
(859,679,c),
(859,721,l),
(654,721,l),
(654,679,l),
(676,679,ls),
(716,679,o),
(735,668,o),
(735,637,cs),
(735,624,o),
(732,609,o),
(718,560,cs),
(611,184,l),
(501,599,ls),
(492,633,o),
(491,637,o),
(491,643,cs),
(491,675,o),
(521,679,o),
(549,679,cs),
(573,679,l),
(573,721,l),
(291,721,l),
(291,679,l),
(368,679,o),
(378,680,o),
(402,590,c),
(282,184,l),
(173,599,ls),
(162,641,o),
(160,646,o),
(160,654,cs),
(160,679,o),
(182,679,o),
(211,679,cs),
(245,679,l),
(245,721,l),
(-8,721,l),
(-8,679,l),
(46,679,o),
(48,670,o),
(68,599,cs),
(240,-22,l)
);
}
);
width = 853;
}
);
unicode = 87;
},
{
glyphname = X;
kernLeft = X;
kernRight = X;
lastChange = "2024-08-06 02:25:19 +0000";
layers = (
{
anchors = (
{
name = top;
pos = (324,813);
}
);
layerId = m01;
shapes = (
{
closed = 1;
nodes = (
(249,0,l),
(249,42,l),
(222,42,ls),
(180,42,o),
(171,59,o),
(171,77,cs),
(171,97,o),
(181,118,o),
(187,128,cs),
(297,310,l),
(411,112,ls),
(418,100,o),
(432,74,o),
(432,62,cs),
(432,46,o),
(406,42,o),
(383,42,cs),
(354,42,l),
(354,0,l),
(640,0,l),
(640,42,l),
(574,42,o),
(554,66,o),
(524,117,cs),
(359,399,l),
(488,594,ls),
(539,671,o),
(565,679,o),
(611,679,cs),
(617,679,l),
(617,721,l),
(376,721,l),
(376,679,l),
(384,679,ls),
(438,679,o),
(448,662,o),
(448,650,cs),
(448,637,o),
(437,614,o),
(434,609,cs),
(333,438,l),
(232,609,ls),
(224,623,o),
(212,644,o),
(212,656,cs),
(212,673,o),
(235,679,o),
(259,679,cs),
(283,679,l),
(283,721,l),
(0,721,l),
(0,679,l),
(67,679,o),
(88,654,o),
(116,608,cs),
(270,352,l),
(128,128,ls),
(96,78,o),
(58,42,o),
(1,42,cs),
(-8,42,l),
(-8,0,l)
);
}
);
width = 632;
}
);
unicode = 88;
},
{
glyphname = Y;
kernLeft = Y;
kernRight = Y;
lastChange = "2024-08-06 02:25:19 +0000";
layers = (
{
anchors = (
{
name = dotbelow;
pos = (292,0);
},
{
name = top;
pos = (292,791);
}
);
layerId = m01;
shapes = (
{
closed = 1;
nodes = (
(431,0,l),
(431,42,l),
(409,42,ls),
(355,42,o),
(337,53,o),
(337,131,cs),
(337,308,l),
(486,594,ls),
(519,658,o),
(529,672,o),
(590,679,c),
(590,721,l),
(369,721,l),
(369,679,l),
(376,679,ls),
(430,679,o),
(443,660,o),
(443,643,cs),
(443,630,o),
(436,613,o),
(430,600,cs),
(314,358,l),
(189,609,ls),
(186,615,o),
(169,650,o),
(169,661,cs),
(169,676,o),
(205,679,o),
(244,679,c),
(244,721,l),
(-8,721,l),
(-8,679,l),
(55,679,o),
(56,656,o),
(79,610,cs),
(237,295,l),
(237,131,ls),
(237,53,o),
(219,42,o),
(165,42,cs),
(143,42,l),
(143,0,l)
);
}
);
width = 584;
}
);
unicode = 89;
},
{
glyphname = Z;
kernLeft = Z;
kernRight = Z;
lastChange = "2024-08-06 02:25:19 +0000";
layers = (
{
anchors = (
{
name = dotbelow;
pos = (278,0);
},
{
name = top;
pos = (316,813);
}
);
layerId = m01;
shapes = (
{
closed = 1;
nodes = (
(490,0,l),
(560,189,l),
(523,205,l),
(443,89,o),
(369,46,o),
(240,46,cs),
(156,46,l),
(548,699,l),
(532,721,l),
(110,721,l),
(45,544,l),
(80,528,l),
(161,645,o),
(251,675,o),
(330,675,cs),
(418,675,l),
(27,23,l),
(41,0,l)
);
}
);
width = 588;
}
);
unicode = 90;
},
{
glyphname = Saltillo;
lastChange = "2024-08-06 02:25:19 +0000";
layers = (
{
layerId = m01;
shapes = (
{
closed = 1;
nodes = (
(169,202,l),
(169,270,ls),
(169,502,o),
(218,568,o),
(218,646,cs),
(218,715,o),
(180,735,o),
(147,735,cs),
(114,735,o),
(77,715,o),
(77,647,cs),
(77,568,o),
(126,502,o),
(126,270,cs),
(126,202,l)
);
}
);
width = 295;
}
);
unicode = 42891;
},
{
glyphname = a;
kernLeft = a;
kernRight = a;
lastChange = "2024-08-06 02:25:19 +0000";
layers = (
{
anchors = (
{
name = dotbelow;
pos = (219,0);
},
{
name = ogonek;
pos = (326,0);
},
{
name = top;
pos = (219,558);
}
);
layerId = m01;
shapes = (
{
closed = 1;
nodes = (
(221,-14,o),
(276,26,o),
(304,46,c),
(308,15,o),
(325,-14,o),
(365,-14,cs),
(397,-14,o),
(430,4,o),
(451,35,c),
(427,57,l),
(419,51,o),
(408,39,o),
(398,39,cs),
(391,39,o),
(383,44,o),
(383,95,cs),
(383,350,ls),
(383,414,o),
(362,482,o),
(237,482,cs),
(135,482,o),
(54,436,o),
(54,380,cs),
(54,352,o),
(74,332,o),
(104,332,cs),
(175,332,o),
(144,441,o),
(231,441,cs),
(286,441,o),
(299,397,o),
(299,355,cs),
(299,292,l),
(169,256,o),
(38,212,o),
(38,98,cs),
(38,9,o),
(119,-14,o),
(163,-14,cs)
);
},
{
closed = 1;
nodes = (
(154,37,o),
(130,66,o),
(130,104,cs),
(130,183,o),
(232,229,o),
(299,252,c),
(299,83,l),
(268,58,o),
(226,37,o),
(193,37,cs)
);
}
);
width = 468;
}
);
unicode = 97;
},
{
glyphname = ae;
kernLeft = a;
kernRight = e;
lastChange = "2024-08-06 02:25:19 +0000";
layers = (
{
anchors = (
{
name = top;
pos = (388,558);
}
);
layerId = m01;
shapes = (
{
closed = 1;
nodes = (
(251,-14,o),
(298,38,o),
(342,79,c),
(384,17,o),
(448,-14,o),
(524,-14,cs),
(619,-14,o),
(686,35,o),
(734,101,c),
(707,122,l),
(663,72,o),
(610,43,o),
(550,43,cs),
(507,43,o),
(469,59,o),
(439,93,cs),
(409,127,o),
(392,175,o),
(392,257,c),
(729,257,l),
(721,373,o),
(655,482,o),
(530,482,cs),
(469,482,o),
(417,456,o),
(376,413,c),
(359,444,o),
(322,482,o),
(235,482,cs),
(142,482,o),
(54,439,o),
(54,380,cs),
(54,352,o),
(73,332,o),
(104,332,cs),
(175,332,o),
(144,441,o),
(231,441,cs),
(286,441,o),
(299,397,o),
(299,355,cs),
(299,292,l),
(169,256,o),
(38,212,o),
(38,97,cs),
(38,9,o),
(116,-14,o),
(170,-14,cs)
);
},
{
closed = 1;
nodes = (
(154,37,o),
(130,66,o),
(130,104,cs),
(130,184,o),
(234,232,o),
(301,252,c),
(301,221,ls),
(301,175,o),
(308,139,o),
(325,106,c),
(275,57,o),
(226,37,o),
(193,37,cs)
);
},
{
closed = 1;
nodes = (
(415,401,o),
(466,445,o),
(525,445,cs),
(578,445,o),
(627,410,o),
(635,301,c),
(399,301,l)
);
}
);
width = 770;
}
);
unicode = 230;
},
{
glyphname = b;
kernLeft = b;
kernRight = b;
lastChange = "2024-08-06 02:25:19 +0000";
layers = (
{
anchors = (
{
name = dotbelow;
pos = (268,0);
},
{
name = top;
pos = (268,813);
}
);
layerId = m01;
shapes = (
{
closed = 1;
nodes = (
(157,50,l),
(186,17,o),
(231,-14,o),
(289,-14,cs),
(406,-14,o),
(482,109,o),
(482,240,cs),
(482,376,o),
(399,483,o),
(295,483,cs),
(244,483,o),
(204,458,o),
(168,430,c),
(168,729,l),
(16,681,l),
(16,651,l),
(75,642,o),
(84,638,o),
(84,576,cs),
(84,-13,l),
(110,-18,l)
);
},
{
closed = 1;
nodes = (
(221,40,o),
(191,66,o),
(168,93,c),
(168,378,l),
(183,391,o),
(224,426,o),
(272,426,cs),
(334,426,o),
(388,367,o),
(388,228,cs),
(388,99,o),
(341,40,o),
(269,40,cs)
);
}
);
width = 522;
}
);
unicode = 98;
},
{
glyphname = bstroke;
kernLeft = b;
kernRight = b;
lastChange = "2024-08-06 02:25:19 +0000";
layers = (
{
layerId = m01;
shapes = (
{
closed = 1;
nodes = (
(283,525,l),
(283,565,l),
(23,565,l),
(23,525,l)
);
},
{
ref = b;
}
);
width = 522;
}
);
unicode = 384;
},
{
glyphname = c;
kernLeft = c;
kernRight = c;
lastChange = "2024-08-06 02:25:19 +0000";
layers = (
{
anchors = (
{
name = attachcedilla;
pos = (224,-17);
},
{
name = top;
pos = (274,558);
}
);
layerId = m01;
shapes = (
{
closed = 1;
nodes = (
(343,-14,o),
(407,47,o),
(443,109,c),
(410,130,l),
(378,81,o),
(333,43,o),
(275,43,cs),
(190,43,o),
(134,125,o),
(134,249,cs),
(134,363,o),
(181,442,o),
(252,442,cs),
(335,442,o),
(308,336,o),
(374,336,cs),
(405,336,o),
(427,360,o),
(427,387,cs),
(427,436,o),
(352,482,o),
(272,482,cs),
(145,482,o),
(41,364,o),
(41,219,cs),
(41,84,o),
(130,-14,o),
(249,-14,cs)
);
}
);
width = 462;
}
);
unicode = 99;
},
{
glyphname = ccedilla;
kernLeft = c;
kernRight = c;
lastChange = "2024-08-06 02:25:19 +0000";
layers = (
{
anchors = (
{
name = attachcedilla;
pos = (224,-17);
}
);
layerId = m01;
shapes = (
{
closed = 1;
nodes = (
(285,-217,o),
(338,-186,o),
(338,-132,cs),
(338,-92,o),
(308,-63,o),
(268,-63,cs),
(252,-63,o),
(236,-68,o),
(236,-68,c),
(254,-14,l),
(346,-12,o),
(408,48,o),
(443,109,c),
(410,130,l),
(378,81,o),
(333,43,o),
(275,43,cs),
(190,43,o),
(134,125,o),
(134,249,cs),
(134,363,o),
(181,442,o),
(252,442,cs),
(335,442,o),
(308,336,o),
(374,336,cs),
(405,336,o),
(427,360,o),
(427,387,cs),
(427,436,o),
(352,482,o),
(273,482,cs),
(145,482,o),
(41,363,o),
(41,219,cs),
(41,93,o),
(120,-1,o),
(224,-13,c),
(190,-93,l),
(201,-99,l),
(208,-98,o),
(219,-96,o),
(229,-96,cs),
(262,-96,o),
(270,-115,o),
(270,-133,cs),
(270,-166,o),
(242,-183,o),
(210,-183,cs),
(183,-183,o),
(156,-171,o),
(141,-164,c),
(123,-197,l),
(147,-208,o),
(177,-217,o),
(215,-217,cs)
);
}
);
width = 462;
}
);
unicode = 231;
},
{
glyphname = d;
kernLeft = d;
kernRight = d;
lastChange = "2024-08-06 02:25:19 +0000";
layers = (
{
anchors = (
{
name = caroncombalt;
pos = (556,735);
},
{
name = commaaccentbelow;
pos = (264,0);
},
{
name = dotbelow;
pos = (249,0);
},
{
name = top;
pos = (249,813);
}
);
layerId = m01;
shapes = (
{
closed = 1;
nodes = (
(284,-14,o),
(327,16,o),
(357,53,c),
(357,-9,l),
(502,0,l),
(502,36,l),
(453,37,o),
(440,42,o),
(440,109,cs),
(440,729,l),
(289,681,l),
(289,651,l),
(347,642,o),
(357,638,o),
(357,576,cs),
(357,423,l),
(333,443,o),
(289,482,o),
(227,482,cs),
(123,482,o),
(40,374,o),
(40,237,cs),
(40,111,o),
(111,-14,o),
(227,-14,cs)
);
},
{
closed = 1;
nodes = (
(195,39,o),
(134,80,o),
(134,224,cs),
(134,344,o),
(176,425,o),
(251,425,cs),
(299,425,o),
(336,392,o),
(357,373,c),
(357,104,l),
(326,62,o),
(281,39,o),
(245,39,cs)
);
}
);
width = 524;
}
);
unicode = 100;
},
{
glyphname = dcroat;
kernLeft = d;
kernRight = d;
lastChange = "2024-08-06 02:25:19 +0000";
layers = (
{
layerId = m01;
shapes = (
{
closed = 1;
nodes = (
(502,525,l),
(502,565,l),
(241,565,l),
(241,525,l)
);
},
{
ref = d;
}
);
width = 524;
}
);
unicode = 273;
},
{
glyphname = eth;
lastChange = "2024-08-06 02:25:19 +0000";
layers = (
{
layerId = m01;
shapes = (
{
closed = 1;
nodes = (
(396,-14,o),
(492,126,o),
(492,291,cs),
(492,451,o),
(401,586,o),
(332,652,c),
(485,735,l),
(466,766,l),
(302,677,l),
(264,714,o),
(186,756,o),
(142,772,c),
(120,738,l),
(161,712,o),
(214,681,o),
(242,645,c),
(83,559,l),
(99,525,l),
(268,616,l),
(295,588,o),
(338,511,o),
(355,458,c),
(325,474,o),
(294,482,o),
(262,482,cs),
(152,482,o),
(41,385,o),
(41,235,cs),
(41,97,o),
(136,-14,o),
(258,-14,cs)
);
},
{
closed = 1;
nodes = (
(179,23,o),
(135,120,o),
(135,234,cs),
(135,347,o),
(178,445,o),
(261,445,cs),
(343,445,o),
(387,348,o),
(387,235,cs),
(387,121,o),
(343,23,o),
(261,23,cs)
);
}
);
width = 533;
}
);
unicode = 240;
},
{
glyphname = e;
kernLeft = e;
kernRight = e;
lastChange = "2024-08-06 02:25:19 +0000";
layers = (
{
anchors = (
{
name = attachcedilla;
pos = (244,-17);
},
{
name = dotbelow;
pos = (270,0);
},
{
name = ogonek;
pos = (329,0);
},
{
name = top;
pos = (270,558);
}
);
layerId = m01;
shapes = (
{
closed = 1;
nodes = (
(361,-14,o),
(431,39,o),
(475,101,c),
(448,122,l),
(403,72,o),
(350,43,o),
(292,43,cs),
(248,43,o),
(208,60,o),
(179,93,cs),
(149,127,o),
(133,175,o),
(133,257,c),
(469,257,l),
(462,373,o),
(395,482,o),
(272,482,cs),
(139,482,o),
(41,356,o),
(41,217,cs),
(41,75,o),
(143,-14,o),
(266,-14,cs)
);
},
{
closed = 1;
nodes = (
(156,401,o),
(206,445,o),
(266,445,cs),
(319,445,o),
(368,410,o),
(375,301,c),
(139,301,l)
);
}
);
width = 510;
}
);
unicode = 101;
},
{
glyphname = eogonek;
kernLeft = e;
kernRight = e;
lastChange = "2024-08-06 02:25:19 +0000";
layers = (
{
layerId = m01;
shapes = (
{
closed = 1;
nodes = (
(399,-204,o),
(427,-190,o),
(448,-175,c),
(428,-141,l),
(412,-151,o),
(401,-156,o),
(381,-156,cs),
(332,-156,o),
(315,-126,o),
(315,-91,cs),
(315,-36,o),
(356,-3,o),
(376,13,c),
(322,3,l),
(285,-19,o),
(254,-57,o),
(254,-108,cs),
(254,-167,o),
(294,-204,o),
(359,-204,cs)
);
},
{
ref = e;
}
);
width = 510;
}
);
unicode = 281;
},
{
glyphname = schwa;
lastChange = "2024-08-06 02:25:19 +0000";
layers = (
{
anchors = (
{
name = attachcedilla;
pos = (244,-17);
},
{
name = dotbelow;
pos = (270,0);
},
{
name = ogonek;
pos = (329,0);
},
{
name = top;
pos = (270,558);
}
);
layerId = m01;
shapes = (
{
closed = 1;
nodes = (
(376,-14,o),
(475,112,o),
(475,252,cs),
(475,394,o),
(373,482,o),
(250,482,cs),
(155,482,o),
(85,430,o),
(41,368,c),
(68,346,l),
(112,396,o),
(165,425,o),
(225,425,cs),
(268,425,o),
(306,409,o),
(336,375,cs),
(366,341,o),
(383,293,o),
(383,211,c),
(46,211,l),
(54,95,o),
(121,-14,o),
(244,-14,cs)
);
},
{
closed = 1;
nodes = (
(197,23,o),
(148,58,o),
(141,168,c),
(376,168,l),
(360,67,o),
(309,23,o),
(250,23,cs)
);
}
);
width = 510;
}
);
unicode = 601;
},
{
glyphname = f;
kernLeft = f;
kernRight = f;
lastChange = "2024-08-06 02:25:19 +0000";
layers = (
{
anchors = (
{
name = top;
pos = (185,813);
}
);
layerId = m01;
shapes = (
{
closed = 1;
nodes = (
(264,0,l),
(264,40,l),
(236,40,ls),
(182,40,o),
(174,53,o),
(174,98,cs),
(174,425,l),
(277,425,l),
(277,468,l),
(174,468,l),
(174,579,o),
(182,662,o),
(209,662,cs),
(226,662,o),
(238,627,o),
(271,627,cs),
(299,627,o),
(326,651,o),
(326,680,cs),
(326,710,o),
(298,732,o),
(259,732,cs),
(194,732,o),
(91,666,o),
(91,468,c),
(14,468,l),
(14,425,l),
(91,425,l),
(91,95,ls),
(91,56,o),
(80,40,o),
(26,40,cs),
(14,40,l),
(14,0,l)
);
}
);
width = 292;
}
);
unicode = 102;
},
{
glyphname = g;
kernLeft = g;
kernRight = g;
lastChange = "2024-08-06 02:25:19 +0000";
layers = (
{
anchors = (
{
name = top;
pos = (243,558);
}
);
layerId = m01;
shapes = (
{
closed = 1;
nodes = (
(395,-181,o),
(476,-130,o),
(476,-50,cs),
(476,35,o),
(383,59,o),
(327,70,cs),
(227,90,o),
(146,89,o),
(146,120,cs),
(146,131,o),
(156,143,o),
(182,149,c),
(196,146,o),
(213,141,o),
(240,141,cs),
(348,141,o),
(426,220,o),
(426,310,cs),
(426,362,o),
(400,401,o),
(382,422,c),
(385,425,o),
(391,430,o),
(398,430,cs),
(415,430,o),
(420,404,o),
(451,404,cs),
(476,404,o),
(486,422,o),
(486,443,cs),
(486,474,o),
(465,493,o),
(436,493,cs),
(402,493,o),
(374,467,o),
(356,441,c),
(329,459,o),
(294,482,o),
(239,482,cs),
(139,482,o),
(58,404,o),
(58,305,cs),
(58,238,o),
(96,191,o),
(150,163,c),
(115,151,o),
(65,132,o),
(65,92,cs),
(65,58,o),
(102,36,o),
(173,28,c),
(107,10,o),
(25,-22,o),
(25,-84,cs),
(25,-151,o),
(120,-181,o),
(239,-181,cs)
);
},
{
closed = 1;
nodes = (
(142,-144,o),
(106,-119,o),
(106,-79,cs),
(106,-39,o),
(141,-19,o),
(216,13,c),
(370,-14,o),
(408,-35,o),
(408,-73,cs),
(408,-109,o),
(373,-144,o),
(248,-144,cs)
);
},
{
closed = 1;
nodes = (
(178,174,o),
(144,234,o),
(144,309,cs),
(144,390,o),
(184,445,o),
(243,445,cs),
(294,445,o),
(341,403,o),
(341,312,cs),
(341,226,o),
(299,174,o),
(241,174,cs)
);
}
);
width = 506;
}
);
unicode = 103;
},
{
glyphname = h;
kernLeft = h;
kernRight = h;
lastChange = "2024-08-06 02:25:19 +0000";
layers = (
{
anchors = (
{
name = attachcedilla;
pos = (118,-17);
},
{
name = dotbelow;
pos = (268,0);
},
{
name = top;
pos = (264,813);
}
);
layerId = m01;
shapes = (
{
closed = 1;
nodes = (
(241,0,l),
(241,40,l),
(187,40,o),
(179,53,o),
(179,98,cs),
(179,357,l),
(215,400,o),
(256,426,o),
(300,426,cs),
(342,426,o),
(370,403,o),
(370,323,cs),
(370,95,ls),
(370,56,o),
(364,40,o),
(310,40,cs),
(308,40,l),
(308,0,l),
(515,0,l),
(515,40,l),
(461,40,o),
(453,53,o),
(453,98,cs),
(453,329,ls),
(453,440,o),
(398,483,o),
(330,483,cs),
(277,483,o),
(232,457,o),
(179,404,c),
(179,729,l),
(28,681,l),
(28,651,l),
(86,642,o),
(96,638,o),
(96,576,cs),
(96,98,ls),
(96,59,o),
(91,40,o),
(37,40,cs),
(28,40,l),
(28,0,l)
);
}
);
width = 546;
}
);
unicode = 104;
},
{
glyphname = hbar;
kernLeft = h;
kernRight = h;
lastChange = "2024-08-06 02:25:19 +0000";
layers = (
{
layerId = m01;
shapes = (
{
closed = 1;
nodes = (
(309,525,l),
(309,565,l),
(28,565,l),
(28,525,l)
);
},
{
ref = h;
}
);
width = 546;
}
);
unicode = 295;
},
{
glyphname = hcedilla;
kernLeft = h;
kernRight = h;
lastChange = "2024-08-06 02:25:19 +0000";
layers = (
{
layerId = m01;
shapes = (
{
closed = 1;
nodes = (
(179,-217,o),
(232,-186,o),
(232,-132,cs),
(232,-92,o),
(202,-63,o),
(162,-63,cs),
(146,-63,o),
(130,-68,o),
(130,-68,c),
(154,3,l),
(124,3,l),
(84,-93,l),
(95,-99,l),
(102,-98,o),
(114,-96,o),
(124,-96,cs),
(156,-96,o),
(164,-115,o),
(164,-133,cs),
(164,-166,o),
(136,-183,o),
(104,-183,cs),
(77,-183,o),
(50,-171,o),
(35,-164,c),
(17,-197,l),
(41,-208,o),
(71,-217,o),
(109,-217,cs)
);
},
{
ref = h;
}
);
width = 546;
}
);
unicode = 7721;
},
{
glyphname = idotless;
kernLeft = i;
kernRight = i;
lastChange = "2024-08-06 02:25:19 +0000";
layers = (
{
anchors = (
{
name = dotbelow;
pos = (141,0);
},
{
name = ogonek;
pos = (135,0);
},
{
name = top;
pos = (141,558);
},
{
name = top_dot;
pos = (141,558);
}
);
layerId = m01;
shapes = (
{
closed = 1;
nodes = (
(246,0,l),
(246,40,l),
(192,40,o),
(185,53,o),
(185,98,cs),
(185,490,l),
(34,442,l),
(34,412,l),
(92,403,o),
(102,399,o),
(102,337,cs),
(102,98,ls),
(102,59,o),
(96,40,o),
(42,40,cs),
(34,40,l),
(34,0,l)
);
}
);
width = 270;
}
);
unicode = 305;
},
{
glyphname = jdotless;
kernLeft = j;
kernRight = j;
lastChange = "2024-08-06 02:25:19 +0000";
layers = (
{
anchors = (
{
name = top;
pos = (141,558);
},
{
name = top_dot;
pos = (141,558);
}
);
layerId = m01;
shapes = (
{
closed = 1;
nodes = (
(78,-188,o),
(185,-154,o),
(185,22,cs),
(185,490,l),
(34,442,l),
(34,412,l),
(92,403,o),
(102,399,o),
(102,337,cs),
(102,-28,ls),
(102,-94,o),
(91,-123,o),
(80,-123,cs),
(65,-123,o),
(61,-76,o),
(17,-76,cs),
(-12,-76,o),
(-37,-97,o),
(-37,-129,cs),
(-37,-165,o),
(-4,-188,o),
(33,-188,cs)
);
}
);
width = 250;
}
);
unicode = 567;
},
{
glyphname = k;
kernLeft = k;
kernRight = k;
lastChange = "2024-08-06 02:25:19 +0000";
layers = (
{
anchors = (
{
name = commaaccentbelow;
pos = (256,0);
},
{
name = dotbelow;
pos = (256,0);
},
{
name = top;
pos = (256,813);
}
);
layerId = m01;
shapes = (
{
closed = 1;
nodes = (
(239,0,l),
(239,40,l),
(185,40,o),
(177,53,o),
(177,98,cs),
(177,177,l),
(237,236,l),
(295,146,ls),
(365,37,o),
(346,66,o),
(346,55,cs),
(346,44,o),
(330,40,o),
(305,40,cs),
(296,40,l),
(296,0,l),
(509,0,l),
(509,40,l),
(463,43,o),
(459,44,o),
(442,67,cs),
(416,103,l),
(296,290,l),
(343,338,ls),
(383,379,o),
(427,428,o),
(494,428,c),
(494,468,l),
(282,468,l),
(282,428,l),
(321,427,o),
(339,423,o),
(339,408,cs),
(339,396,o),
(328,382,o),
(314,368,cs),
(177,231,l),
(177,729,l),
(26,681,l),
(26,651,l),
(84,642,o),
(94,638,o),
(94,576,cs),
(94,98,ls),
(94,59,o),
(89,40,o),
(35,40,cs),
(26,40,l),
(26,0,l)
);
}
);
width = 509;
}
);
unicode = 107;
},
{
glyphname = l;
kernLeft = l;
kernRight = l;
lastChange = "2024-08-06 02:25:19 +0000";
layers = (
{
anchors = (
{
name = caroncombalt;
pos = (295,735);
},
{
name = commaaccentbelow;
pos = (133,0);
},
{
name = dotbelow;
pos = (137,0);
},
{
name = ldot;
pos = (274,292);
},
{
name = top;
pos = (135,813);
}
);
layerId = m01;
shapes = (
{
closed = 1;
nodes = (
(241,0,l),
(241,40,l),
(187,40,o),
(179,53,o),
(179,98,cs),
(179,729,l),
(28,681,l),
(28,651,l),
(86,642,o),
(96,638,o),
(96,576,cs),
(96,98,ls),
(96,59,o),
(91,40,o),
(37,40,cs),
(28,40,l),
(28,0,l)
);
}
);
width = 263;
}
);
unicode = 108;
},
{
glyphname = lslash;
kernLeft = l;
kernRight = l;
lastChange = "2024-08-06 02:25:19 +0000";
layers = (
{
layerId = m01;
shapes = (
{
closed = 1;
nodes = (
(236,399,l),
(236,451,l),
(38,347,l),
(38,298,l)
);
},
{
ref = l;
}
);
width = 263;
}
);
unicode = 322;
},
{
glyphname = m;
kernLeft = m;
kernRight = m;
lastChange = "2024-08-06 02:25:19 +0000";
layers = (
{
anchors = (
{
name = dotbelow;
pos = (418,0);
},
{
name = top;
pos = (418,558);
}
);
layerId = m01;
shapes = (
{
closed = 1;
nodes = (
(246,0,l),
(246,40,l),
(192,40,o),
(185,58,o),
(185,104,cs),
(185,359,l),
(226,399,o),
(268,425,o),
(305,425,cs),
(343,425,o),
(376,401,o),
(376,322,cs),
(376,98,ls),
(376,59,o),
(371,40,o),
(317,40,cs),
(315,40,l),
(315,0,l),
(521,0,l),
(521,40,l),
(467,40,o),
(459,53,o),
(459,98,cs),
(459,358,l),
(497,396,o),
(536,425,o),
(578,425,cs),
(616,425,o),
(650,402,o),
(650,319,cs),
(650,98,ls),
(650,59,o),
(644,40,o),
(590,40,cs),
(588,40,l),
(588,0,l),
(795,0,l),
(795,40,l),
(741,40,o),
(733,53,o),
(733,98,cs),
(733,334,ls),
(733,442,o),
(678,482,o),
(609,482,cs),
(551,482,o),
(500,454,o),
(453,397,c),
(438,433,o),
(404,482,o),
(333,482,cs),
(281,482,o),
(229,455,o),
(185,403,c),
(185,490,l),
(34,442,l),
(34,412,l),
(92,403,o),
(102,399,o),
(102,337,cs),
(102,98,ls),
(102,59,o),
(96,40,o),
(42,40,cs),
(34,40,l),
(34,0,l)
);
}
);
width = 818;
}
);
unicode = 109;
},
{
glyphname = n;
kernLeft = n;
kernRight = n;
lastChange = "2024-08-06 02:25:19 +0000";
layers = (
{
anchors = (
{
name = commaaccentbelow;
pos = (274,0);
},
{
name = dotbelow;
pos = (275,0);
},
{
name = top;
pos = (269,558);
}
);
layerId = m01;
shapes = (
{
closed = 1;
nodes = (
(246,0,l),
(246,40,l),
(192,40,o),
(185,54,o),
(185,99,cs),
(185,363,l),
(226,402,o),
(266,425,o),
(302,425,cs),
(338,425,o),
(375,401,o),
(375,322,cs),
(375,96,ls),
(375,57,o),
(370,40,o),
(316,40,cs),
(314,40,l),
(314,0,l),
(520,0,l),
(520,40,l),
(466,40,o),
(458,53,o),
(458,98,cs),
(458,325,ls),
(458,440,o),
(404,482,o),
(336,482,cs),
(281,482,o),
(233,454,o),
(185,408,c),
(185,490,l),
(34,442,l),
(34,412,l),
(92,403,o),
(102,399,o),
(102,337,cs),
(102,98,ls),
(102,59,o),
(96,40,o),
(42,40,cs),
(34,40,l),
(34,0,l)
);
}
);
width = 544;
}
);
unicode = 110;
},
{
glyphname = o;
kernLeft = o;
kernRight = o;
lastChange = "2024-08-06 02:25:19 +0000";
layers = (
{
anchors = (
{
name = attachhorn;
pos = (432,368);
},
{
name = dotbelow;
pos = (262,0);
},
{
name = ogonek;
pos = (296,0);
},
{
name = top;
pos = (262,558);
}
);
layerId = m01;
shapes = (
{
closed = 1;
nodes = (
(396,-14,o),
(481,107,o),
(481,236,cs),
(481,380,o),
(376,482,o),
(263,482,cs),
(152,482,o),
(41,385,o),
(41,237,cs),
(41,109,o),
(124,-14,o),
(261,-14,cs)
);
},
{
closed = 1;
nodes = (
(179,23,o),
(135,120,o),
(135,234,cs),
(135,347,o),
(178,445,o),
(261,445,cs),
(343,445,o),
(387,348,o),
(387,235,cs),
(387,121,o),
(343,23,o),
(261,23,cs)
);
}
);
width = 522;
}
);
unicode = 111;
},
{
glyphname = oslash;
kernLeft = o;
kernRight = o;
lastChange = "2024-08-06 02:25:19 +0000";
layers = (
{
anchors = (
{
name = top;
pos = (262,558);
}
);
layerId = m01;
shapes = (
{
closed = 1;
nodes = (
(159,13,l),
(188,-4,o),
(223,-14,o),
(262,-14,cs),
(396,-14,o),
(481,107,o),
(481,236,cs),
(481,320,o),
(445,390,o),
(392,434,c),
(432,505,l),
(401,522,l),
(363,454,l),
(332,472,o),
(297,482,o),
(262,482,cs),
(152,482,o),
(41,385,o),
(41,237,cs),
(41,159,o),
(72,82,o),
(129,34,c),
(90,-36,l),
(121,-54,l)
);
},
{
closed = 1;
nodes = (
(229,23,o),
(204,37,o),
(185,61,c),
(359,373,l),
(377,336,o),
(387,289,o),
(387,235,cs),
(387,121,o),
(343,23,o),
(261,23,cs)
);
},
{
closed = 1;
nodes = (
(145,133,o),
(135,183,o),
(135,237,cs),
(135,347,o),
(178,445,o),
(261,445,cs),
(292,445,o),
(318,431,o),
(337,408,c),
(162,95,l)
);
}
);
width = 522;
}
);
unicode = 248;
},
{
glyphname = oe;
kernLeft = o;
kernRight = e;
lastChange = "2024-08-06 02:25:19 +0000";
layers = (
{
anchors = (
{
name = top;
pos = (437,558);
}
);
layerId = m01;
shapes = (
{
closed = 1;
nodes = (
(333,-14,o),
(390,18,o),
(425,79,c),
(464,13,o),
(531,-14,o),
(603,-14,cs),
(702,-14,o),
(770,37,o),
(815,101,c),
(788,122,l),
(744,72,o),
(691,43,o),
(631,43,cs),
(588,43,o),
(550,59,o),
(520,93,cs),
(490,126,o),
(474,176,o),
(474,257,c),
(810,257,l),
(800,380,o),
(736,482,o),
(605,482,cs),
(496,482,o),
(452,411,o),
(435,381,c),
(397,455,o),
(331,482,o),
(268,482,cs),
(149,482,o),
(41,385,o),
(41,238,cs),
(41,110,o),
(123,-14,o),
(262,-14,cs)
);
},
{
closed = 1;
nodes = (
(179,23,o),
(135,120,o),
(135,234,cs),
(135,347,o),
(178,445,o),
(261,445,cs),
(343,445,o),
(382,348,o),
(382,235,cs),
(382,121,o),
(343,23,o),
(261,23,cs)
);
},
{
closed = 1;
nodes = (
(496,402,o),
(547,445,o),
(606,445,cs),
(660,445,o),
(708,410,o),
(716,301,c),
(480,301,l)
);
}
);
width = 848;
}
);
unicode = 339;
},
{
glyphname = p;
kernLeft = p;
kernRight = p;
lastChange = "2024-08-06 02:25:19 +0000";
layers = (
{
anchors = (
{
name = top;
pos = (283,558);
}
);
layerId = m01;
shapes = (
{
closed = 1;
nodes = (
(253,-181,l),
(253,-141,l),
(246,-141,ls),
(192,-141,o),
(185,-128,o),
(185,-82,cs),
(185,40,l),
(215,13,o),
(253,-14,o),
(307,-14,cs),
(415,-14,o),
(498,95,o),
(498,234,cs),
(498,371,o),
(418,482,o),
(310,482,cs),
(259,482,o),
(217,457,o),
(185,428,c),
(185,490,l),
(34,442,l),
(34,412,l),
(92,403,o),
(102,399,o),
(102,337,cs),
(102,-82,ls),
(102,-121,o),
(96,-141,o),
(42,-141,cs),
(34,-141,l),
(34,-181,l)
);
},
{
closed = 1;
nodes = (
(241,41,o),
(215,62,o),
(185,85,c),
(185,377,l),
(209,408,o),
(241,431,o),
(286,431,cs),
(350,431,o),
(404,385,o),
(404,236,cs),
(404,98,o),
(358,41,o),
(285,41,cs)
);
}
);
width = 539;
}
);
unicode = 112;
},
{
glyphname = thorn;
kernLeft = p;
kernRight = p;
lastChange = "2024-08-06 02:25:19 +0000";
layers = (
{
layerId = m01;
shapes = (
{
closed = 1;
nodes = (
(253,-181,l),
(253,-141,l),
(246,-141,ls),
(192,-141,o),
(185,-128,o),
(185,-82,cs),
(185,40,l),
(215,13,o),
(253,-14,o),
(307,-14,cs),
(415,-14,o),
(498,95,o),
(498,234,cs),
(498,371,o),
(418,482,o),
(310,482,cs),
(259,482,o),
(217,457,o),
(185,428,c),
(185,729,l),
(34,681,l),
(34,651,l),
(92,642,o),
(102,638,o),
(102,576,cs),
(102,-82,ls),
(102,-121,o),
(96,-141,o),
(42,-141,cs),
(34,-141,l),
(34,-181,l)
);
},
{
closed = 1;
nodes = (
(241,41,o),
(215,62,o),
(185,85,c),
(185,377,l),
(209,408,o),
(241,431,o),
(286,431,cs),
(350,431,o),
(404,385,o),
(404,236,cs),
(404,98,o),
(358,41,o),
(285,41,cs)
);
}
);
width = 539;
}
);
unicode = 254;
},
{
glyphname = q;
kernLeft = q;
kernRight = q;
lastChange = "2024-08-06 02:25:19 +0000";
layers = (
{
anchors = (
{
name = top;
pos = (259,558);
}
);
layerId = m01;
shapes = (
{
closed = 1;
nodes = (
(504,-181,l),
(504,-141,l),
(450,-141,o),
(442,-128,o),
(442,-82,cs),
(442,477,l),
(417,484,l),
(371,421,l),
(345,444,o),
(301,482,o),
(238,482,cs),
(130,482,o),
(41,368,o),
(41,230,cs),
(41,100,o),
(119,-14,o),
(232,-14,cs),
(282,-14,o),
(318,8,o),
(359,40,c),
(359,-82,ls),
(359,-121,o),
(354,-141,o),
(299,-141,cs),
(291,-141,l),
(291,-181,l)
);
},
{
closed = 1;
nodes = (
(200,40,o),
(135,85,o),
(135,232,cs),
(135,350,o),
(177,429,o),
(254,429,cs),
(301,429,o),
(338,400,o),
(359,378,c),
(359,92,l),
(322,56,o),
(289,40,o),
(256,40,cs)
);
}
);
width = 524;
}
);
unicode = 113;
},
{
glyphname = r;
kernLeft = r;
kernRight = r;
lastChange = "2024-08-06 02:25:19 +0000";
layers = (
{
anchors = (
{
name = commaaccentbelow;
pos = (144,0);
},
{
name = dotbelow;
pos = (155,0);
},
{
name = top;
pos = (200,558);
}
);
layerId = m01;
shapes = (
{
closed = 1;
nodes = (
(290,0,l),
(290,40,l),
(246,40,ls),
(192,40,o),
(185,53,o),
(185,98,cs),
(185,318,l),
(228,370,o),
(253,401,o),
(284,401,cs),
(309,401,o),
(323,381,o),
(352,381,cs),
(377,381,o),
(402,397,o),
(402,433,cs),
(402,463,o),
(384,482,o),
(340,482,cs),
(281,482,o),
(240,447,o),
(185,369,c),
(185,490,l),
(34,442,l),
(34,412,l),
(92,403,o),
(102,399,o),
(102,337,cs),
(102,98,ls),
(102,59,o),
(96,40,o),
(42,40,cs),
(26,40,l),
(26,0,l)
);
}
);
width = 400;
}
);
unicode = 114;
},
{
glyphname = s;
kernLeft = s;
kernRight = s;
lastChange = "2024-08-06 02:25:19 +0000";
layers = (
{
anchors = (
{
name = attachcedilla;
pos = (226,-17);
},
{
name = commaaccentbelow;
pos = (229,0);
},
{
name = dotbelow;
pos = (228,0);
},
{
name = top;
pos = (206,558);
}
);
layerId = m01;
shapes = (
{
closed = 1;
nodes = (
(123,-4,o),
(128,5,o),
(152,5,cs),
(187,5,o),
(220,-14,o),
(263,-14,cs),
(343,-14,o),
(404,50,o),
(404,136,cs),
(404,324,o),
(110,255,o),
(110,373,cs),
(110,411,o),
(141,440,o),
(188,440,cs),
(262,440,o),
(325,366,o),
(355,321,c),
(387,342,l),
(328,486,l),
(311,475,o),
(296,463,o),
(280,463,cs),
(260,463,o),
(233,482,o),
(188,482,cs),
(109,482,o),
(52,425,o),
(52,347,cs),
(52,226,o),
(192,204,o),
(258,186,cs),
(287,178,o),
(339,160,o),
(339,108,cs),
(339,70,o),
(312,28,o),
(256,28,cs),
(176,28,o),
(94,112,o),
(69,160,c),
(36,144,l),
(99,-18,l)
);
}
);
width = 440;
}
);
unicode = 115;
},
{
glyphname = germandbls;
kernLeft = f;
kernRight = s;
lastChange = "2024-08-06 02:25:19 +0000";
layers = (
{
layerId = m01;
shapes = (
{
closed = 1;
nodes = (
(476,-14,o),
(526,71,o),
(526,155,cs),
(526,309,o),
(355,353,o),
(355,410,cs),
(355,456,o),
(470,473,o),
(470,588,cs),
(470,677,o),
(401,735,o),
(289,735,cs),
(173,735,o),
(84,672,o),
(84,479,cs),
(84,95,ls),
(84,56,o),
(77,40,o),
(23,40,c),
(23,0,l),
(168,0,l),
(168,468,l),
(166,543,ls),
(164,629,o),
(208,698,o),
(289,698,cs),
(361,698,o),
(395,643,o),
(395,579,cs),
(395,457,o),
(271,458,o),
(271,383,cs),
(271,295,o),
(439,277,o),
(439,127,cs),
(439,66,o),
(411,28,o),
(362,28,cs),
(320,28,o),
(307,55,o),
(307,82,cs),
(307,106,o),
(295,124,o),
(267,124,cs),
(238,124,o),
(224,105,o),
(224,80,cs),
(224,39,o),
(264,-14,o),
(358,-14,cs)
);
}
);
width = 549;
}
);
unicode = 223;
},
{
glyphname = longs;
kernLeft = f;
kernRight = f;
lastChange = "2024-08-06 02:25:19 +0000";
layers = (
{
anchors = (
{
name = top;
pos = (185,813);
}
);
layerId = m01;
shapes = (
{
closed = 1;
nodes = (
(264,0,l),
(264,40,l),
(236,40,ls),
(182,40,o),
(174,53,o),
(174,98,cs),
(174,468,ls),
(174,579,o),
(182,662,o),
(209,662,cs),
(226,662,o),
(238,627,o),
(271,627,cs),
(299,627,o),
(326,651,o),
(326,680,cs),
(326,710,o),
(298,732,o),
(259,732,cs),
(194,732,o),
(91,666,o),
(91,468,c),
(14,468,l),
(14,425,l),
(91,425,l),
(91,95,ls),
(91,56,o),
(80,40,o),
(26,40,cs),
(14,40,l),
(14,0,l)
);
}
);
width = 292;
}
);
unicode = 383;
},
{
glyphname = t;
kernLeft = t;
kernRight = t;
lastChange = "2024-08-06 02:25:19 +0000";
layers = (
{
anchors = (
{
name = attachcedilla;
pos = (190,-17);
},
{
name = caroncombalt;
pos = (297,735);
},
{
name = commaaccentbelow;
pos = (190,0);
},
{
name = dotbelow;
pos = (192,-17);
},
{
name = top;
pos = (161,689);
}
);
layerId = m01;
shapes = (
{
closed = 1;
nodes = (
(270,-14,o),
(314,18,o),
(349,66,c),
(320,88,l),
(291,61,o),
(274,43,o),
(238,43,cs),
(210,43,o),
(183,54,o),
(183,148,cs),
(183,425,l),
(315,425,l),
(315,468,l),
(183,468,l),
(183,630,l),
(142,630,l),
(128,512,o),
(76,472,o),
(34,458,c),
(34,425,l),
(99,425,l),
(99,128,ls),
(99,74,o),
(99,-14,o),
(206,-14,cs)
);
}
);
width = 335;
}
);
unicode = 116;
},
{
glyphname = u;
kernLeft = u;
kernRight = u;
lastChange = "2024-08-06 02:25:19 +0000";
layers = (
{
anchors = (
{
name = attachhorn;
pos = (472,368);
},
{
name = dotbelow;
pos = (269,0);
},
{
name = ogonek;
pos = (382,0);
},
{
name = top;
pos = (269,558);
}
);
layerId = m01;
shapes = (
{
closed = 1;
nodes = (
(285,-14,o),
(334,32,o),
(368,68,c),
(368,-9,l),
(512,0,l),
(512,36,l),
(464,37,o),
(451,42,o),
(451,109,cs),
(451,490,l),
(299,442,l),
(299,412,l),
(358,403,o),
(368,399,o),
(368,337,cs),
(368,116,l),
(331,78,o),
(289,51,o),
(248,51,cs),
(227,51,o),
(205,58,o),
(193,78,cs),
(182,96,o),
(177,127,o),
(177,169,cs),
(177,490,l),
(26,442,l),
(26,412,l),
(84,403,o),
(94,399,o),
(94,337,cs),
(94,168,ls),
(94,98,o),
(100,52,o),
(123,24,cs),
(141,2,o),
(174,-14,o),
(215,-14,cs)
);
}
);
width = 537;
}
);
unicode = 117;
},
{
glyphname = uhorn;
kernLeft = u;
kernRight = horn;
lastChange = "2024-08-06 02:25:19 +0000";
layers = (
{
layerId = m01;
shapes = (
{
closed = 1;
nodes = (
(521,361,o),
(616,457,o),
(616,542,cs),
(616,593,o),
(581,619,o),
(547,619,cs),
(516,619,o),
(484,598,o),
(484,556,cs),
(484,500,o),
(541,500,o),
(541,473,cs),
(541,446,o),
(480,376,o),
(444,336,c),
(444,272,l)
);
},
{
ref = u;
}
);
width = 605;
}
);
unicode = 432;
},
{
glyphname = v;
kernLeft = v;
kernRight = v;
lastChange = "2024-08-06 02:25:19 +0000";
layers = (
{
anchors = (
{
name = dotbelow;
pos = (234,0);
},
{
name = top;
pos = (241,558);
}
);
layerId = m01;
shapes = (
{
closed = 1;
nodes = (
(248,-22,l),
(394,358,ls),
(415,412,o),
(425,427,o),
(475,428,c),
(475,468,l),
(283,468,l),
(283,428,l),
(294,428,ls),
(332,428,o),
(354,419,o),
(354,395,cs),
(354,382,o),
(348,365,o),
(343,351,cs),
(253,105,l),
(154,378,ls),
(150,389,o),
(147,398,o),
(147,406,cs),
(147,423,o),
(161,426,o),
(203,428,c),
(203,468,l),
(-8,468,l),
(-8,428,l),
(43,427,o),
(55,409,o),
(72,363,cs),
(216,-22,l)
);
}
);
width = 468;
}
);
unicode = 118;
},
{
glyphname = w;
kernLeft = w;
kernRight = w;
lastChange = "2024-08-06 02:25:19 +0000";
layers = (
{
anchors = (
{
name = dotbelow;
pos = (347,0);
},
{
name = top;
pos = (347,558);
}
);
layerId = m01;
shapes = (
{
closed = 1;
nodes = (
(234,-22,l),
(347,293,l),
(449,-22,l),
(483,-22,l),
(619,358,ls),
(639,413,o),
(646,427,o),
(696,428,c),
(696,468,l),
(511,468,l),
(511,428,l),
(550,428,o),
(576,419,o),
(576,393,cs),
(576,382,o),
(571,365,o),
(566,351,cs),
(483,114,l),
(406,360,ls),
(401,376,o),
(396,397,o),
(396,405,cs),
(396,425,o),
(424,428,o),
(449,428,c),
(449,468,l),
(248,468,l),
(248,428,l),
(296,424,o),
(305,419,o),
(323,356,c),
(234,114,l),
(152,378,ls),
(149,388,o),
(147,398,o),
(147,405,cs),
(147,423,o),
(163,428,o),
(199,428,c),
(199,468,l),
(-8,468,l),
(-8,428,l),
(43,427,o),
(56,409,o),
(71,363,cs),
(199,-22,l)
);
}
);
width = 690;
}
);
unicode = 119;
},
{
glyphname = x;
kernLeft = x;
kernRight = x;
lastChange = "2024-08-06 02:25:19 +0000";
layers = (
{
anchors = (
{
name = top;
pos = (252,558);
}
);
layerId = m01;
shapes = (
{
closed = 1;
nodes = (
(200,0,l),
(200,40,l),
(194,40,ls),
(174,40,o),
(145,39,o),
(145,56,cs),
(145,65,o),
(152,76,o),
(172,106,cs),
(231,194,l),
(308,90,ls),
(314,82,o),
(326,65,o),
(326,55,cs),
(326,48,o),
(320,40,o),
(291,40,cs),
(280,40,l),
(280,0,l),
(482,0,l),
(482,40,l),
(467,40,o),
(429,56,o),
(399,95,cs),
(280,251,l),
(367,361,ls),
(405,409,o),
(428,427,o),
(476,428,c),
(476,468,l),
(286,468,l),
(286,428,l),
(309,428,o),
(336,426,o),
(336,407,cs),
(336,399,o),
(331,391,o),
(312,363,cs),
(256,281,l),
(177,394,ls),
(170,404,o),
(169,406,o),
(169,410,cs),
(169,422,o),
(177,428,o),
(206,428,cs),
(221,428,l),
(221,468,l),
(0,468,l),
(0,428,l),
(51,427,o),
(61,415,o),
(91,377,cs),
(209,224,l),
(116,106,ls),
(68,45,o),
(50,41,o),
(0,40,c),
(0,0,l)
);
}
);
width = 482;
}
);
unicode = 120;
},
{
glyphname = y;
kernLeft = y;
kernRight = y;
lastChange = "2024-08-06 02:25:19 +0000";
layers = (
{
anchors = (
{
name = dotbelow;
pos = (347,0);
},
{
name = top;
pos = (235,558);
}
);
layerId = m01;
shapes = (
{
closed = 1;
nodes = (
(183,-192,o),
(220,-97,o),
(243,-37,cs),
(394,358,ls),
(414,411,o),
(426,427,o),
(476,428,c),
(476,468,l),
(282,468,l),
(282,428,l),
(323,428,o),
(352,418,o),
(352,393,cs),
(352,383,o),
(347,365,o),
(342,351,cs),
(253,98,l),
(154,374,ls),
(150,385,o),
(147,394,o),
(147,401,cs),
(147,419,o),
(164,428,o),
(208,428,c),
(208,468,l),
(-8,468,l),
(-8,428,l),
(50,428,o),
(50,419,o),
(67,374,cs),
(208,0,l),
(187,-58,ls),
(176,-88,o),
(157,-115,o),
(138,-115,cs),
(118,-115,o),
(101,-84,o),
(66,-84,cs),
(35,-84,o),
(18,-109,o),
(18,-133,cs),
(18,-159,o),
(38,-192,o),
(92,-192,cs)
);
}
);
width = 469;
}
);
unicode = 121;
},
{
glyphname = z;
kernLeft = z;
kernRight = z;
lastChange = "2024-08-06 02:25:19 +0000";
layers = (
{
anchors = (
{
name = dotbelow;
pos = (198,0);
},
{
name = top;
pos = (240,558);
}
);
layerId = m01;
shapes = (
{
closed = 1;
nodes = (
(359,0,l),
(416,154,l),
(384,170,l),
(354,123,o),
(318,88,o),
(299,72,cs),
(269,47,o),
(248,40,o),
(192,40,cs),
(130,40,l),
(405,435,l),
(395,468,l),
(101,468,l),
(42,322,l),
(72,306,l),
(135,395,o),
(166,428,o),
(262,428,cs),
(305,428,l),
(24,30,l),
(24,0,l)
);
}
);
width = 440;
}
);
unicode = 122;
},
{
glyphname = f_b.liga;
kernLeft = f;
kernRight = b;
lastChange = "2024-08-06 02:25:19 +0000";
layers = (
{
layerId = m01;
shapes = (
{
closed = 1;
nodes = (
(437,50,l),
(466,17,o),
(511,-14,o),
(569,-14,cs),
(686,-14,o),
(762,109,o),
(762,240,cs),
(762,376,o),
(679,483,o),
(575,483,cs),
(524,483,o),
(484,458,o),
(448,430,c),
(448,729,l),
(391,710,l),
(364,725,o),
(328,732,o),
(299,732,cs),
(211,732,o),
(91,670,o),
(91,483,cs),
(91,468,l),
(14,468,l),
(14,425,l),
(91,425,l),
(91,95,ls),
(91,56,o),
(80,40,o),
(26,40,cs),
(14,40,l),
(14,0,l),
(236,0,l),
(236,40,l),
(182,40,o),
(174,53,o),
(174,98,cs),
(174,425,l),
(364,425,l),
(364,-13,l),
(390,-18,l)
);
},
{
closed = 1;
nodes = (
(501,40,o),
(471,66,o),
(448,93,c),
(448,378,l),
(463,391,o),
(504,426,o),
(552,426,cs),
(614,426,o),
(668,367,o),
(668,228,cs),
(668,99,o),
(621,40,o),
(549,40,cs)
);
},
{
closed = 1;
nodes = (
(174,515,ls),
(174,628,o),
(216,695,o),
(280,695,cs),
(345,695,o),
(320,627,o),
(364,627,c),
(364,468,l),
(174,468,l)
);
}
);
width = 802;
}
);
metricLeft = f;
metricRight = b;
},
{
glyphname = f_f.liga;
kernLeft = f;
kernRight = f;
lastChange = "2024-08-06 02:25:19 +0000";
layers = (
{
layerId = m01;
shapes = (
{
closed = 1;
nodes = (
(236,0,l),
(236,40,l),
(182,40,o),
(174,53,o),
(174,98,cs),
(174,425,l),
(364,425,l),
(364,95,ls),
(364,56,o),
(355,40,o),
(303,40,c),
(303,0,l),
(537,0,l),
(537,40,l),
(509,40,ls),
(455,40,o),
(448,53,o),
(448,98,cs),
(448,425,l),
(550,425,l),
(550,468,l),
(448,468,l),
(448,579,o),
(455,662,o),
(483,662,cs),
(501,662,o),
(511,627,o),
(545,627,cs),
(574,627,o),
(600,652,o),
(600,680,cs),
(600,710,o),
(572,732,o),
(533,732,cs),
(503,732,o),
(469,719,o),
(434,684,c),
(400,709,o),
(358,732,o),
(300,732,cs),
(211,732,o),
(91,679,o),
(91,483,cs),
(91,468,l),
(14,468,l),
(14,425,l),
(91,425,l),
(91,95,ls),
(91,56,o),
(80,40,o),
(26,40,cs),
(14,40,l),
(14,0,l)
);
},
{
closed = 1;
nodes = (
(174,515,ls),
(174,629,o),
(216,695,o),
(289,695,cs),
(370,695,o),
(331,612,o),
(381,594,c),
(370,559,o),
(364,519,o),
(364,468,c),
(174,468,l)
);
}
);
width = 566;
}
);
metricLeft = f;
metricRight = f;
},
{
glyphname = f_f_b.liga;
kernLeft = f;
kernRight = b;
lastChange = "2024-08-06 02:25:19 +0000";
layers = (
{
layerId = m01;
shapes = (
{
closed = 1;
nodes = (
(710,50,l),
(739,17,o),
(785,-14,o),
(843,-14,cs),
(960,-14,o),
(1036,110,o),
(1036,240,cs),
(1036,376,o),
(953,483,o),
(849,483,cs),
(798,483,o),
(757,458,o),
(721,430,c),
(721,729,l),
(665,710,l),
(638,725,o),
(601,732,o),
(572,732,cs),
(527,732,o),
(480,716,o),
(440,679,c),
(408,704,o),
(358,732,o),
(297,732,cs),
(212,732,o),
(91,679,o),
(91,483,cs),
(91,468,l),
(14,468,l),
(14,425,l),
(91,425,l),
(91,95,ls),
(91,56,o),
(80,40,o),
(26,40,cs),
(14,40,l),
(14,0,l),
(236,0,l),
(236,40,l),
(182,40,o),
(174,53,o),
(174,98,cs),
(174,425,l),
(364,425,l),
(364,95,ls),
(364,56,o),
(355,40,o),
(303,40,c),
(303,0,l),
(509,0,l),
(509,40,l),
(455,40,o),
(448,53,o),
(448,98,cs),
(448,425,l),
(638,425,l),
(638,-13,l),
(664,-18,l)
);
},
{
closed = 1;
nodes = (
(174,515,ls),
(174,629,o),
(216,695,o),
(288,695,cs),
(370,695,o),
(332,611,o),
(382,592,c),
(371,562,o),
(364,526,o),
(364,483,cs),
(364,468,l),
(174,468,l)
);
},
{
closed = 1;
nodes = (
(774,40,o),
(745,66,o),
(721,93,c),
(721,378,l),
(736,391,o),
(777,426,o),
(825,426,cs),
(888,426,o),
(942,366,o),
(942,229,cs),
(942,99,o),
(894,40,o),
(822,40,cs)
);
},
{
closed = 1;
nodes = (
(448,515,ls),
(448,627,o),
(490,695,o),
(554,695,cs),
(618,695,o),
(594,627,o),
(638,627,c),
(638,468,l),
(448,468,l)
);
}
);
width = 1076;
}
);
metricLeft = f;
metricRight = b;
},
{
glyphname = f_f_f.liga;
kernLeft = f;
kernRight = f;
lastChange = "2024-08-06 02:25:19 +0000";
layers = (
{
layerId = m01;
shapes = (
{
closed = 1;
nodes = (
(236,0,l),
(236,40,l),
(182,40,o),
(174,53,o),
(174,98,cs),
(174,425,l),
(364,425,l),
(364,95,ls),
(364,56,o),
(355,40,o),
(303,40,c),
(303,0,l),
(509,0,l),
(509,40,l),
(455,40,o),
(448,53,o),
(448,98,cs),
(448,425,l),
(638,425,l),
(638,95,ls),
(638,56,o),
(628,40,o),
(576,40,c),
(576,0,l),
(811,0,l),
(811,40,l),
(783,40,ls),
(729,40,o),
(721,53,o),
(721,98,cs),
(721,425,l),
(824,425,l),
(824,468,l),
(721,468,l),
(721,577,o),
(729,662,o),
(756,662,cs),
(774,662,o),
(785,627,o),
(818,627,cs),
(846,627,o),
(874,651,o),
(874,680,cs),
(874,710,o),
(845,732,o),
(806,732,cs),
(776,732,o),
(743,719,o),
(707,684,c),
(674,709,o),
(632,732,o),
(573,732,cs),
(528,732,o),
(481,719,o),
(437,681,c),
(383,718,o),
(348,732,o),
(301,732,cs),
(210,732,o),
(91,679,o),
(91,483,cs),
(91,468,l),
(14,468,l),
(14,425,l),
(91,425,l),
(91,95,ls),
(91,56,o),
(80,40,o),
(26,40,cs),
(14,40,l),
(14,0,l)
);
},
{
closed = 1;
nodes = (
(174,515,ls),
(174,629,o),
(216,695,o),
(289,695,cs),
(370,695,o),
(331,612,o),
(381,594,c),
(371,563,o),
(364,526,o),
(364,483,cs),
(364,468,l),
(174,468,l)
);
},
{
closed = 1;
nodes = (
(448,515,ls),
(448,629,o),
(490,695,o),
(562,695,cs),
(643,695,o),
(604,612,o),
(654,594,c),
(643,559,o),
(638,519,o),
(638,468,c),
(448,468,l)
);
}
);
width = 840;
}
);
metricLeft = f;
metricRight = f;
},
{
glyphname = f_f_f_b.liga;
kernLeft = f;
kernRight = b;
lastChange = "2024-08-06 02:25:19 +0000";
layers = (
{
layerId = m01;
shapes = (
{
closed = 1;
nodes = (
(984,50,l),
(1013,17,o),
(1058,-14,o),
(1117,-14,cs),
(1234,-14,o),
(1309,109,o),
(1309,239,cs),
(1309,376,o),
(1226,483,o),
(1122,483,cs),
(1071,483,o),
(1031,458,o),
(995,430,c),
(995,729,l),
(938,710,l),
(911,725,o),
(875,732,o),
(845,732,cs),
(801,732,o),
(755,717,o),
(714,679,c),
(681,704,o),
(631,732,o),
(570,732,cs),
(527,732,o),
(480,718,o),
(437,681,c),
(383,718,o),
(348,732,o),
(301,732,cs),
(210,732,o),
(91,679,o),
(91,483,cs),
(91,468,l),
(14,468,l),
(14,425,l),
(91,425,l),
(91,95,ls),
(91,56,o),
(80,40,o),
(26,40,cs),
(14,40,l),
(14,0,l),
(236,0,l),
(236,40,l),
(182,40,o),
(174,53,o),
(174,98,cs),
(174,425,l),
(364,425,l),
(364,95,ls),
(364,56,o),
(355,40,o),
(303,40,c),
(303,0,l),
(509,0,l),
(509,40,l),
(455,40,o),
(448,53,o),
(448,98,cs),
(448,425,l),
(638,425,l),
(638,95,ls),
(638,56,o),
(628,40,o),
(576,40,c),
(576,0,l),
(783,0,l),
(783,40,l),
(729,40,o),
(721,53,o),
(721,98,cs),
(721,425,l),
(911,425,l),
(911,-13,l),
(937,-18,l)
);
},
{
closed = 1;
nodes = (
(174,515,ls),
(174,629,o),
(216,695,o),
(289,695,cs),
(370,695,o),
(331,612,o),
(381,594,c),
(371,563,o),
(364,526,o),
(364,483,cs),
(364,468,l),
(174,468,l)
);
},
{
closed = 1;
nodes = (
(448,515,ls),
(448,629,o),
(490,695,o),
(562,695,cs),
(644,695,o),
(605,611,o),
(655,592,c),
(644,562,o),
(638,526,o),
(638,483,cs),
(638,468,l),
(448,468,l)
);
},
{
closed = 1;
nodes = (
(1048,40,o),
(1018,66,o),
(995,93,c),
(995,378,l),
(1010,391,o),
(1051,426,o),
(1099,426,cs),
(1161,426,o),
(1215,367,o),
(1215,228,cs),
(1215,99,o),
(1168,40,o),
(1096,40,cs)
);
},
{
closed = 1;
nodes = (
(721,515,ls),
(721,628,o),
(763,695,o),
(827,695,cs),
(892,695,o),
(867,627,o),
(911,627,c),
(911,468,l),
(721,468,l)
);
}
);
width = 1349;
}
);
metricLeft = f;
metricRight = b;
},
{
glyphname = f_f_f_h.liga;
kernLeft = f;
kernRight = h;
lastChange = "2024-08-06 02:25:19 +0000";
layers = (
{
layerId = m01;
shapes = (
{
closed = 1;
nodes = (
(236,0,l),
(236,40,l),
(182,40,o),
(174,53,o),
(174,98,cs),
(174,425,l),
(364,425,l),
(364,95,ls),
(364,56,o),
(355,40,o),
(303,40,c),
(303,0,l),
(509,0,l),
(509,40,l),
(455,40,o),
(448,53,o),
(448,98,cs),
(448,425,l),
(638,425,l),
(638,95,ls),
(638,56,o),
(628,40,o),
(576,40,c),
(576,0,l),
(783,0,l),
(783,40,l),
(729,40,o),
(721,53,o),
(721,98,cs),
(721,425,l),
(911,425,l),
(911,98,ls),
(911,59,o),
(906,40,o),
(852,40,cs),
(843,40,l),
(843,0,l),
(1056,0,l),
(1056,40,l),
(1002,40,o),
(995,53,o),
(995,98,cs),
(995,357,l),
(1030,400,o),
(1072,426,o),
(1115,426,cs),
(1157,426,o),
(1185,404,o),
(1185,323,cs),
(1185,95,ls),
(1185,56,o),
(1179,40,o),
(1125,40,cs),
(1123,40,l),
(1123,0,l),
(1330,0,l),
(1330,40,l),
(1276,40,o),
(1268,53,o),
(1268,98,cs),
(1268,329,ls),
(1268,440,o),
(1213,483,o),
(1146,483,cs),
(1092,483,o),
(1044,455,o),
(995,404,c),
(995,729,l),
(938,710,l),
(911,725,o),
(875,732,o),
(845,732,cs),
(801,732,o),
(755,717,o),
(714,679,c),
(681,704,o),
(631,732,o),
(570,732,cs),
(527,732,o),
(480,718,o),
(437,681,c),
(383,718,o),
(348,732,o),
(301,732,cs),
(210,732,o),
(91,679,o),
(91,483,cs),
(91,468,l),
(14,468,l),
(14,425,l),
(91,425,l),
(91,95,ls),
(91,56,o),
(80,40,o),
(26,40,cs),
(14,40,l),
(14,0,l)
);
},
{
closed = 1;
nodes = (
(174,515,ls),
(174,629,o),
(216,695,o),
(289,695,cs),
(370,695,o),
(331,612,o),
(381,594,c),
(371,563,o),
(364,526,o),
(364,483,cs),
(364,468,l),
(174,468,l)
);
},
{
closed = 1;
nodes = (
(448,515,ls),
(448,629,o),
(490,695,o),
(562,695,cs),
(644,695,o),
(605,611,o),
(655,592,c),
(644,562,o),
(638,526,o),
(638,483,cs),
(638,468,l),
(448,468,l)
);
},
{
closed = 1;
nodes = (
(721,515,ls),
(721,628,o),
(763,695,o),
(827,695,cs),
(892,695,o),
(867,627,o),
(911,627,c),
(911,468,l),
(721,468,l)
);
}
);
width = 1361;
}
);
metricLeft = f;
metricRight = h;
},
{
glyphname = f_f_f_i.liga;
kernLeft = f;
kernRight = i;
lastChange = "2024-08-06 02:25:19 +0000";
layers = (
{
layerId = m01;
shapes = (
{
closed = 1;
nodes = (
(236,0,l),
(236,40,l),
(182,40,o),
(174,53,o),
(174,98,cs),
(174,425,l),
(364,425,l),
(364,95,ls),
(364,56,o),
(355,40,o),
(303,40,c),
(303,0,l),
(509,0,l),
(509,40,l),
(455,40,o),
(448,53,o),
(448,98,cs),
(448,425,l),
(638,425,l),
(638,95,ls),
(638,56,o),
(628,40,o),
(576,40,c),
(576,0,l),
(783,0,l),
(783,40,l),
(729,40,o),
(721,53,o),
(721,98,cs),
(721,425,l),
(843,425,ls),
(889,425,o),
(911,416,o),
(911,355,cs),
(911,98,ls),
(911,59,o),
(906,40,o),
(852,40,cs),
(850,40,l),
(850,0,l),
(1056,0,l),
(1056,40,l),
(1002,40,o),
(995,53,o),
(995,98,cs),
(995,490,l),
(925,468,l),
(721,468,l),
(721,515,ls),
(721,627,o),
(761,695,o),
(830,695,cs),
(919,695,o),
(876,584,o),
(946,584,cs),
(976,584,o),
(998,605,o),
(998,635,cs),
(998,695,o),
(906,732,o),
(843,732,cs),
(801,732,o),
(754,716,o),
(714,679,c),
(681,704,o),
(631,732,o),
(570,732,cs),
(527,732,o),
(480,718,o),
(437,681,c),
(383,718,o),
(348,732,o),
(301,732,cs),
(210,732,o),
(91,679,o),
(91,483,cs),
(91,468,l),
(14,468,l),
(14,425,l),
(91,425,l),
(91,95,ls),
(91,56,o),
(80,40,o),
(26,40,cs),
(14,40,l),
(14,0,l)
);
},
{
closed = 1;
nodes = (
(174,515,ls),
(174,629,o),
(216,695,o),
(289,695,cs),
(370,695,o),
(331,612,o),
(381,594,c),
(371,563,o),
(364,526,o),
(364,483,cs),
(364,468,l),
(174,468,l)
);
},
{
closed = 1;
nodes = (
(448,515,ls),
(448,629,o),
(490,695,o),
(562,695,cs),
(644,695,o),
(605,611,o),
(655,592,c),
(644,562,o),
(638,526,o),
(638,483,cs),
(638,468,l),
(448,468,l)
);
}
);
width = 1080;
}
);
metricLeft = f;
metricRight = i;
},
{
glyphname = f_f_f_j.liga;
kernLeft = f;
kernRight = j;
lastChange = "2024-08-06 02:25:19 +0000";
layers = (
{
layerId = m01;
shapes = (
{
closed = 1;
nodes = (
(888,-188,o),
(995,-154,o),
(995,22,cs),
(995,490,l),
(925,468,l),
(721,468,l),
(721,515,ls),
(721,627,o),
(761,695,o),
(830,695,cs),
(919,695,o),
(876,584,o),
(946,584,cs),
(976,584,o),
(998,605,o),
(998,635,cs),
(998,695,o),
(906,732,o),
(843,732,cs),
(801,732,o),
(754,716,o),
(714,679,c),
(681,704,o),
(631,732,o),
(570,732,cs),
(527,732,o),
(480,718,o),
(437,681,c),
(383,718,o),
(348,732,o),
(301,732,cs),
(210,732,o),
(91,679,o),
(91,483,cs),
(91,468,l),
(14,468,l),
(14,425,l),
(91,425,l),
(91,95,ls),
(91,56,o),
(80,40,o),
(26,40,cs),
(14,40,l),
(14,0,l),
(236,0,l),
(236,40,l),
(182,40,o),
(174,53,o),
(174,98,cs),
(174,425,l),
(364,425,l),
(364,95,ls),
(364,56,o),
(355,40,o),
(303,40,c),
(303,0,l),
(509,0,l),
(509,40,l),
(455,40,o),
(448,53,o),
(448,98,cs),
(448,425,l),
(638,425,l),
(638,95,ls),
(638,56,o),
(628,40,o),
(576,40,c),
(576,0,l),
(783,0,l),
(783,40,l),
(729,40,o),
(721,53,o),
(721,98,cs),
(721,425,l),
(843,425,ls),
(889,425,o),
(911,416,o),
(911,355,cs),
(911,-28,ls),
(911,-93,o),
(901,-123,o),
(889,-123,cs),
(874,-123,o),
(871,-76,o),
(827,-76,cs),
(798,-76,o),
(773,-97,o),
(773,-129,cs),
(773,-165,o),
(805,-188,o),
(842,-188,cs)
);
},
{
closed = 1;
nodes = (
(174,515,ls),
(174,629,o),
(216,695,o),
(289,695,cs),
(370,695,o),
(331,612,o),
(381,594,c),
(371,563,o),
(364,526,o),
(364,483,cs),
(364,468,l),
(174,468,l)
);
},
{
closed = 1;
nodes = (
(448,515,ls),
(448,629,o),
(490,695,o),
(562,695,cs),
(644,695,o),
(605,611,o),
(655,592,c),
(644,562,o),
(638,526,o),
(638,483,cs),
(638,468,l),
(448,468,l)
);
}
);
width = 1049;
}
);
metricLeft = f;
metricRight = j;
},
{
glyphname = f_f_f_k.liga;
kernLeft = f;
kernRight = k;
lastChange = "2024-08-06 02:25:21 +0000";
layers = (
{
layerId = m01;
shapes = (
{
closed = 1;
nodes = (
(236,0,l),
(236,40,l),
(182,40,o),
(174,53,o),
(174,98,cs),
(174,425,l),
(364,425,l),
(364,95,ls),
(364,56,o),
(355,40,o),
(303,40,c),
(303,0,l),
(509,0,l),
(509,40,l),
(455,40,o),
(448,53,o),
(448,98,cs),
(448,425,l),
(638,425,l),
(638,95,ls),
(638,56,o),
(628,40,o),
(576,40,c),
(576,0,l),
(783,0,l),
(783,40,l),
(729,40,o),
(721,53,o),
(721,98,cs),
(721,425,l),
(911,425,l),
(911,98,ls),
(911,59,o),
(906,40,o),
(852,40,cs),
(843,40,l),
(843,0,l),
(1056,0,l),
(1056,40,l),
(1002,40,o),
(995,53,o),
(995,98,cs),
(995,177,l),
(1054,236,l),
(1112,146,ls),
(1182,37,o),
(1163,66,o),
(1163,55,cs),
(1163,44,o),
(1147,40,o),
(1122,40,cs),
(1114,40,l),
(1114,0,l),
(1326,0,l),
(1326,40,l),
(1281,43,o),
(1277,44,o),
(1260,66,cs),
(1234,103,l),
(1114,290,l),
(1160,338,ls),
(1200,380,o),
(1244,428,o),
(1311,428,c),
(1311,468,l),
(1099,468,l),
(1099,428,l),
(1139,427,o),
(1157,423,o),
(1157,407,cs),
(1157,394,o),
(1144,381,o),
(1131,368,cs),
(995,231,l),
(995,729,l),
(938,710,l),
(911,725,o),
(875,732,o),
(845,732,cs),
(801,732,o),
(755,717,o),
(714,679,c),
(681,704,o),
(631,732,o),
(570,732,cs),
(527,732,o),
(480,718,o),
(437,681,c),
(383,718,o),
(348,732,o),
(301,732,cs),
(210,732,o),
(91,679,o),
(91,483,cs),
(91,468,l),
(14,468,l),
(14,425,l),
(91,425,l),
(91,95,ls),
(91,56,o),
(80,40,o),
(26,40,cs),
(14,40,l),
(14,0,l)
);
},
{
closed = 1;
nodes = (
(174,515,ls),
(174,629,o),
(216,695,o),
(289,695,cs),
(370,695,o),
(331,612,o),
(381,594,c),
(371,563,o),
(364,526,o),
(364,483,cs),
(364,468,l),
(174,468,l)
);
},
{
closed = 1;
nodes = (
(448,515,ls),
(448,629,o),
(490,695,o),
(562,695,cs),
(644,695,o),
(605,611,o),
(655,592,c),
(644,562,o),
(638,526,o),
(638,483,cs),
(638,468,l),
(448,468,l)
);
},
{
closed = 1;
nodes = (
(721,515,ls),
(721,628,o),
(763,695,o),
(827,695,cs),
(892,695,o),
(867,627,o),
(911,627,c),
(911,468,l),
(721,468,l)
);
}
);
width = 1326;
}
);
metricLeft = f;
metricRight = k;
},
{
glyphname = f_f_f_l.liga;
kernLeft = f;
kernRight = l;
lastChange = "2024-08-06 02:25:19 +0000";
layers = (
{
layerId = m01;
shapes = (
{
closed = 1;
nodes = (
(236,0,l),
(236,40,l),
(182,40,o),
(174,53,o),
(174,98,cs),
(174,425,l),
(364,425,l),
(364,95,ls),
(364,56,o),
(355,40,o),
(303,40,c),
(303,0,l),
(509,0,l),
(509,40,l),
(455,40,o),
(448,53,o),
(448,98,cs),
(448,425,l),
(638,425,l),
(638,95,ls),
(638,56,o),
(628,40,o),
(576,40,c),
(576,0,l),
(783,0,l),
(783,40,l),
(729,40,o),
(721,53,o),
(721,98,cs),
(721,425,l),
(911,425,l),
(911,98,ls),
(911,59,o),
(906,40,o),
(852,40,cs),
(843,40,l),
(843,0,l),
(1056,0,l),
(1056,40,l),
(1002,40,o),
(995,53,o),
(995,98,cs),
(995,729,l),
(938,710,l),
(911,725,o),
(875,732,o),
(845,732,cs),
(801,732,o),
(755,717,o),
(714,679,c),
(681,704,o),
(631,732,o),
(570,732,cs),
(527,732,o),
(480,718,o),
(437,681,c),
(383,718,o),
(348,732,o),
(301,732,cs),
(210,732,o),
(91,679,o),
(91,483,cs),
(91,468,l),
(14,468,l),
(14,425,l),
(91,425,l),
(91,95,ls),
(91,56,o),
(80,40,o),
(26,40,cs),
(14,40,l),
(14,0,l)
);
},
{
closed = 1;
nodes = (
(174,515,ls),
(174,629,o),
(216,695,o),
(289,695,cs),
(370,695,o),
(331,612,o),
(381,594,c),
(371,563,o),
(364,526,o),
(364,483,cs),
(364,468,l),
(174,468,l)
);
},
{
closed = 1;
nodes = (
(448,515,ls),
(448,629,o),
(490,695,o),
(562,695,cs),
(644,695,o),
(605,611,o),
(655,592,c),
(644,562,o),
(638,526,o),
(638,483,cs),
(638,468,l),
(448,468,l)
);
},
{
closed = 1;
nodes = (
(721,515,ls),
(721,628,o),
(763,695,o),
(827,695,cs),
(892,695,o),
(867,627,o),
(911,627,c),
(911,468,l),
(721,468,l)
);
}
);
width = 1078;
}
);
metricLeft = f;
metricRight = l;
},
{
glyphname = f_f_f_t.liga;
kernLeft = f;
kernRight = t;
lastChange = "2024-08-06 02:25:19 +0000";
layers = (
{
layerId = m01;
shapes = (
{
closed = 1;
nodes = (
(1082,-14,o),
(1126,18,o),
(1161,66,c),
(1132,88,l),
(1103,61,o),
(1086,43,o),
(1050,43,cs),
(1022,43,o),
(995,54,o),
(995,148,cs),
(995,425,l),
(1126,425,l),
(1126,468,l),
(995,468,l),
(995,630,l),
(954,630,l),
(939,512,o),
(890,468,o),
(845,468,cs),
(721,468,l),
(721,577,o),
(729,662,o),
(756,662,cs),
(774,662,o),
(785,627,o),
(818,627,cs),
(846,627,o),
(874,651,o),
(874,680,cs),
(874,710,o),
(845,732,o),
(806,732,cs),
(776,732,o),
(743,719,o),
(707,684,c),
(674,709,o),
(632,732,o),
(573,732,cs),
(528,732,o),
(481,719,o),
(437,681,c),
(383,718,o),
(348,732,o),
(301,732,cs),
(210,732,o),
(91,679,o),
(91,483,cs),
(91,468,l),
(14,468,l),
(14,425,l),
(91,425,l),
(91,95,ls),
(91,56,o),
(80,40,o),
(26,40,cs),
(14,40,l),
(14,0,l),
(236,0,l),
(236,40,l),
(182,40,o),
(174,53,o),
(174,98,cs),
(174,425,l),
(364,425,l),
(364,95,ls),
(364,56,o),
(355,40,o),
(303,40,c),
(303,0,l),
(509,0,l),
(509,40,l),
(455,40,o),
(448,53,o),
(448,98,cs),
(448,425,l),
(638,425,l),
(638,95,ls),
(638,56,o),
(628,40,o),
(576,40,c),
(576,0,l),
(811,0,l),
(811,40,l),
(783,40,ls),
(729,40,o),
(721,53,o),
(721,98,cs),
(721,425,l),
(911,425,l),
(911,128,ls),
(911,74,o),
(911,-14,o),
(1018,-14,cs)
);
},
{
closed = 1;
nodes = (
(174,515,ls),
(174,629,o),
(216,695,o),
(289,695,cs),
(370,695,o),
(331,612,o),
(381,594,c),
(371,563,o),
(364,526,o),
(364,483,cs),
(364,468,l),
(174,468,l)
);
},
{
closed = 1;
nodes = (
(448,515,ls),
(448,629,o),
(490,695,o),
(562,695,cs),
(643,695,o),
(604,612,o),
(654,594,c),
(643,559,o),
(638,519,o),
(638,468,c),
(448,468,l)
);
}
);
width = 1147;
}
);
metricLeft = f;
metricRight = t;
},
{
glyphname = f_f_h.liga;
kernLeft = f;
kernRight = h;
lastChange = "2024-08-06 02:25:19 +0000";
layers = (
{
layerId = m01;
shapes = (
{
closed = 1;
nodes = (
(236,0,l),
(236,40,l),
(182,40,o),
(174,53,o),
(174,98,cs),
(174,425,l),
(364,425,l),
(364,95,ls),
(364,56,o),
(355,40,o),
(303,40,c),
(303,0,l),
(509,0,l),
(509,40,l),
(455,40,o),
(448,53,o),
(448,98,cs),
(448,425,l),
(638,425,l),
(638,98,ls),
(638,59,o),
(632,40,o),
(578,40,cs),
(570,40,l),
(570,0,l),
(783,0,l),
(783,40,l),
(729,40,o),
(721,53,o),
(721,98,cs),
(721,357,l),
(758,401,o),
(799,426,o),
(842,426,cs),
(883,426,o),
(911,404,o),
(911,323,cs),
(911,95,ls),
(911,56,o),
(906,40,o),
(852,40,cs),
(850,40,l),
(850,0,l),
(1056,0,l),
(1056,40,l),
(1002,40,o),
(995,53,o),
(995,98,cs),
(995,329,ls),
(995,440,o),
(939,483,o),
(871,483,cs),
(818,483,o),
(773,456,o),
(721,404,c),
(721,729,l),
(665,710,l),
(638,725,o),
(601,732,o),
(572,732,cs),
(527,732,o),
(480,716,o),
(440,679,c),
(408,704,o),
(358,732,o),
(297,732,cs),
(212,732,o),
(91,679,o),
(91,483,cs),
(91,468,l),
(14,468,l),
(14,425,l),
(91,425,l),
(91,95,ls),
(91,56,o),
(80,40,o),
(26,40,cs),
(14,40,l),
(14,0,l)
);
},
{
closed = 1;
nodes = (
(174,515,ls),
(174,629,o),
(216,695,o),
(288,695,cs),
(370,695,o),
(332,611,o),
(382,592,c),
(371,562,o),
(364,526,o),
(364,483,cs),
(364,468,l),
(174,468,l)
);
},
{
closed = 1;
nodes = (
(448,515,ls),
(448,627,o),
(490,695,o),
(554,695,cs),
(618,695,o),
(594,627,o),
(638,627,c),
(638,468,l),
(448,468,l)
);
}
);
width = 1087;
}
);
metricLeft = f;
metricRight = h;
},
{
glyphname = f_f_i.liga;
kernLeft = f;
kernRight = i;
lastChange = "2024-08-06 02:26:53 +0000";
layers = (
{
layerId = m01;
shapes = (
{
closed = 1;
nodes = (
(236,0,l),
(236,40,l),
(182,40,o),
(174,53,o),
(174,98,cs),
(174,425,l),
(364,425,l),
(364,95,ls),
(364,56,o),
(355,40,o),
(303,40,c),
(303,0,l),
(509,0,l),
(509,40,l),
(455,40,o),
(448,53,o),
(448,98,cs),
(448,425,l),
(570,425,ls),
(615,425,o),
(638,416,o),
(638,355,cs),
(638,98,ls),
(638,59,o),
(632,40,o),
(578,40,cs),
(576,40,l),
(576,0,l),
(783,0,l),
(783,40,l),
(729,40,o),
(721,53,o),
(721,98,cs),
(721,490,l),
(652,468,l),
(448,468,l),
(448,515,ls),
(448,627,o),
(488,695,o),
(557,695,cs),
(645,695,o),
(602,584,o),
(672,584,cs),
(703,584,o),
(724,605,o),
(724,634,cs),
(724,695,o),
(634,732,o),
(569,732,cs),
(528,732,o),
(480,716,o),
(440,679,c),
(408,704,o),
(358,732,o),
(297,732,cs),
(212,732,o),
(91,679,o),
(91,483,cs),
(91,468,l),
(14,468,l),
(14,425,l),
(91,425,l),
(91,95,ls),
(91,56,o),
(80,40,o),
(26,40,cs),
(14,40,l),
(14,0,l)
);
},
{
closed = 1;
nodes = (
(174,515,ls),
(174,629,o),
(216,695,o),
(288,695,cs),
(370,695,o),
(332,611,o),
(382,592,c),
(371,562,o),
(364,526,o),
(364,483,cs),
(364,468,l),
(174,468,l)
);
}
);
width = 807;
}
);
metricLeft = f;
metricRight = i;
},
{
glyphname = f_f_j.liga;
kernLeft = f;
kernRight = j;
lastChange = "2024-08-06 02:25:19 +0000";
layers = (
{
layerId = m01;
shapes = (
{
closed = 1;
nodes = (
(614,-188,o),
(721,-154,o),
(721,22,cs),
(721,490,l),
(652,468,l),
(448,468,l),
(448,515,ls),
(448,627,o),
(488,695,o),
(557,695,cs),
(645,695,o),
(602,584,o),
(672,584,cs),
(703,584,o),
(724,605,o),
(724,634,cs),
(724,695,o),
(634,732,o),
(569,732,cs),
(528,732,o),
(480,716,o),
(440,679,c),
(408,704,o),
(358,732,o),
(297,732,cs),
(212,732,o),
(91,679,o),
(91,483,cs),
(91,468,l),
(14,468,l),
(14,425,l),
(91,425,l),
(91,95,ls),
(91,56,o),
(80,40,o),
(26,40,cs),
(14,40,l),
(14,0,l),
(236,0,l),
(236,40,l),
(182,40,o),
(174,53,o),
(174,98,cs),
(174,425,l),
(364,425,l),
(364,95,ls),
(364,56,o),
(355,40,o),
(303,40,c),
(303,0,l),
(509,0,l),
(509,40,l),
(455,40,o),
(448,53,o),
(448,98,cs),
(448,425,l),
(570,425,ls),
(615,425,o),
(638,416,o),
(638,355,cs),
(638,-28,ls),
(638,-94,o),
(627,-123,o),
(616,-123,cs),
(601,-123,o),
(597,-76,o),
(553,-76,cs),
(524,-76,o),
(499,-97,o),
(499,-128,cs),
(499,-165,o),
(532,-188,o),
(569,-188,cs)
);
},
{
closed = 1;
nodes = (
(174,515,ls),
(174,629,o),
(216,695,o),
(288,695,cs),
(370,695,o),
(332,611,o),
(382,592,c),
(371,562,o),
(364,526,o),
(364,483,cs),
(364,468,l),
(174,468,l)
);
}
);
width = 775;
}
);
metricLeft = f;
metricRight = j;
},
{
glyphname = f_f_k.liga;
kernLeft = f;
kernRight = k;
lastChange = "2024-08-06 02:25:19 +0000";
layers = (
{
layerId = m01;
shapes = (
{
closed = 1;
nodes = (
(236,0,l),
(236,40,l),
(182,40,o),
(174,53,o),
(174,98,cs),
(174,425,l),
(364,425,l),
(364,95,ls),
(364,56,o),
(355,40,o),
(303,40,c),
(303,0,l),
(509,0,l),
(509,40,l),
(455,40,o),
(448,53,o),
(448,98,cs),
(448,425,l),
(638,425,l),
(638,98,ls),
(638,59,o),
(632,40,o),
(578,40,cs),
(570,40,l),
(570,0,l),
(783,0,l),
(783,40,l),
(729,40,o),
(721,53,o),
(721,98,cs),
(721,177,l),
(781,236,l),
(839,146,ls),
(866,104,o),
(890,71,o),
(890,56,cs),
(890,43,o),
(872,40,o),
(849,40,cs),
(840,40,l),
(840,0,l),
(1053,0,l),
(1053,40,l),
(1006,43,o),
(1003,44,o),
(986,67,cs),
(960,103,l),
(840,290,l),
(886,338,ls),
(926,380,o),
(971,428,o),
(1038,428,c),
(1038,468,l),
(826,468,l),
(826,428,l),
(865,427,o),
(883,423,o),
(883,407,cs),
(883,394,o),
(870,381,o),
(857,368,cs),
(721,231,l),
(721,729,l),
(665,710,l),
(638,725,o),
(601,732,o),
(572,732,cs),
(527,732,o),
(480,716,o),
(440,679,c),
(408,704,o),
(358,732,o),
(297,732,cs),
(212,732,o),
(91,679,o),
(91,483,cs),
(91,468,l),
(14,468,l),
(14,425,l),
(91,425,l),
(91,95,ls),
(91,56,o),
(80,40,o),
(26,40,cs),
(14,40,l),
(14,0,l)
);
},
{
closed = 1;
nodes = (
(174,515,ls),
(174,629,o),
(216,695,o),
(288,695,cs),
(370,695,o),
(332,611,o),
(382,592,c),
(371,562,o),
(364,526,o),
(364,483,cs),
(364,468,l),
(174,468,l)
);
},
{
closed = 1;
nodes = (
(448,515,ls),
(448,627,o),
(490,695,o),
(554,695,cs),
(618,695,o),
(594,627,o),
(638,627,c),
(638,468,l),
(448,468,l)
);
}
);
width = 1053;
}
);
metricLeft = f;
metricRight = k;
},
{
glyphname = f_f_l.liga;
kernLeft = f;
kernRight = l;
lastChange = "2024-08-06 02:25:19 +0000";
layers = (
{
layerId = m01;
shapes = (
{
closed = 1;
nodes = (
(236,0,l),
(236,40,l),
(182,40,o),
(174,53,o),
(174,98,cs),
(174,425,l),
(364,425,l),
(364,95,ls),
(364,56,o),
(355,40,o),
(303,40,c),
(303,0,l),
(509,0,l),
(509,40,l),
(455,40,o),
(448,53,o),
(448,98,cs),
(448,425,l),
(638,425,l),
(638,98,ls),
(638,59,o),
(632,40,o),
(578,40,cs),
(570,40,l),
(570,0,l),
(783,0,l),
(783,40,l),
(729,40,o),
(721,53,o),
(721,98,cs),
(721,729,l),
(665,710,l),
(638,725,o),
(601,732,o),
(572,732,cs),
(527,732,o),
(480,716,o),
(440,679,c),
(408,704,o),
(358,732,o),
(297,732,cs),
(212,732,o),
(91,679,o),
(91,483,cs),
(91,468,l),
(14,468,l),
(14,425,l),
(91,425,l),
(91,95,ls),
(91,56,o),
(80,40,o),
(26,40,cs),
(14,40,l),
(14,0,l)
);
},
{
closed = 1;
nodes = (
(174,515,ls),
(174,629,o),
(216,695,o),
(288,695,cs),
(370,695,o),
(332,611,o),
(382,592,c),
(371,562,o),
(364,526,o),
(364,483,cs),
(364,468,l),
(174,468,l)
);
},
{
closed = 1;
nodes = (
(448,515,ls),
(448,627,o),
(490,695,o),
(554,695,cs),
(618,695,o),
(594,627,o),
(638,627,c),
(638,468,l),
(448,468,l)
);
}
);
width = 805;
}
);
metricLeft = f;
metricRight = l;
},
{
glyphname = f_f_t.liga;
kernLeft = f;
kernRight = t;
lastChange = "2024-08-06 02:25:19 +0000";
layers = (
{
layerId = m01;
shapes = (
{
closed = 1;
nodes = (
(809,-14,o),
(852,18,o),
(888,66,c),
(858,88,l),
(829,61,o),
(812,43,o),
(776,43,cs),
(748,43,o),
(721,54,o),
(721,148,cs),
(721,425,l),
(853,425,l),
(853,468,l),
(721,468,l),
(721,630,l),
(680,630,l),
(666,512,o),
(616,468,o),
(572,468,cs),
(448,468,l),
(448,579,o),
(455,662,o),
(483,662,cs),
(501,662,o),
(511,627,o),
(545,627,cs),
(574,627,o),
(600,652,o),
(600,680,cs),
(600,710,o),
(572,732,o),
(533,732,cs),
(503,732,o),
(469,719,o),
(434,684,c),
(400,709,o),
(358,732,o),
(300,732,cs),
(211,732,o),
(91,679,o),
(91,483,cs),
(91,468,l),
(14,468,l),
(14,425,l),
(91,425,l),
(91,95,ls),
(91,56,o),
(80,40,o),
(26,40,cs),
(14,40,l),
(14,0,l),
(236,0,l),
(236,40,l),
(182,40,o),
(174,53,o),
(174,98,cs),
(174,425,l),
(364,425,l),
(364,95,ls),
(364,56,o),
(355,40,o),
(303,40,c),
(303,0,l),
(537,0,l),
(537,40,l),
(509,40,ls),
(455,40,o),
(448,53,o),
(448,98,cs),
(448,425,l),
(638,425,l),
(638,128,ls),
(638,72,o),
(638,-14,o),
(744,-14,cs)
);
},
{
closed = 1;
nodes = (
(174,515,ls),
(174,629,o),
(216,695,o),
(289,695,cs),
(370,695,o),
(331,612,o),
(381,594,c),
(370,559,o),
(364,519,o),
(364,468,c),
(174,468,l)
);
}
);
width = 874;
}
);
metricLeft = f;
metricRight = t;
},
{
glyphname = f_h.liga;
kernLeft = f;
kernRight = h;
lastChange = "2024-08-06 02:25:19 +0000";
layers = (
{
layerId = m01;
shapes = (
{
closed = 1;
nodes = (
(236,0,l),
(236,40,l),
(182,40,o),
(174,53,o),
(174,98,cs),
(174,425,l),
(364,425,l),
(364,98,ls),
(364,59,o),
(359,40,o),
(305,40,cs),
(296,40,l),
(296,0,l),
(509,0,l),
(509,40,l),
(455,40,o),
(448,53,o),
(448,98,cs),
(448,357,l),
(483,400,o),
(525,426,o),
(568,426,cs),
(610,426,o),
(638,404,o),
(638,323,cs),
(638,95,ls),
(638,56,o),
(632,40,o),
(578,40,cs),
(576,40,l),
(576,0,l),
(783,0,l),
(783,40,l),
(729,40,o),
(721,53,o),
(721,98,cs),
(721,329,ls),
(721,440,o),
(666,483,o),
(599,483,cs),
(545,483,o),
(497,455,o),
(448,404,c),
(448,729,l),
(391,710,l),
(364,725,o),
(328,732,o),
(299,732,cs),
(211,732,o),
(91,670,o),
(91,483,cs),
(91,468,l),
(14,468,l),
(14,425,l),
(91,425,l),
(91,95,ls),
(91,56,o),
(80,40,o),
(26,40,cs),
(14,40,l),
(14,0,l)
);
},
{
closed = 1;
nodes = (
(174,515,ls),
(174,628,o),
(216,695,o),
(280,695,cs),
(345,695,o),
(320,627,o),
(364,627,c),
(364,468,l),
(174,468,l)
);
}
);
width = 814;
}
);
metricLeft = f;
metricRight = h;
},
{
glyphname = f_i.liga;
kernLeft = f;
kernRight = i;
lastChange = "2024-08-06 02:27:02 +0000";
layers = (
{
anchors = (
{
name = dotbelow;
pos = (432,0);
},
{
name = ogonek;
pos = (427,0);
}
);
layerId = m01;
shapes = (
{
closed = 1;
nodes = (
(236,0,l),
(236,40,l),
(182,40,o),
(174,53,o),
(174,98,cs),
(174,425,l),
(296,425,ls),
(342,425,o),
(364,416,o),
(364,355,cs),
(364,98,ls),
(364,59,o),
(359,40,o),
(305,40,cs),
(303,40,l),
(303,0,l),
(509,0,l),
(509,40,l),
(455,40,o),
(448,53,o),
(448,98,cs),
(448,490,l),
(378,468,l),
(174,468,l),
(174,515,ls),
(174,627,o),
(214,695,o),
(283,695,cs),
(372,695,o),
(329,584,o),
(399,584,cs),
(429,584,o),
(451,605,o),
(451,635,cs),
(451,695,o),
(359,732,o),
(295,732,cs),
(212,732,o),
(91,670,o),
(91,483,cs),
(91,468,l),
(14,468,l),
(14,425,l),
(91,425,l),
(91,95,ls),
(91,56,o),
(80,40,o),
(26,40,cs),
(14,40,l),
(14,0,l)
);
}
);
width = 533;
}
);
metricLeft = f;
metricRight = i;
},
{
glyphname = f_j.liga;
kernLeft = f;
kernRight = j;
lastChange = "2024-08-06 02:25:19 +0000";
layers = (
{
layerId = m01;
shapes = (
{
closed = 1;
nodes = (
(341,-188,o),
(448,-154,o),
(448,22,cs),
(448,490,l),
(378,468,l),
(174,468,l),
(174,515,ls),
(174,627,o),
(214,695,o),
(283,695,cs),
(372,695,o),
(329,584,o),
(399,584,cs),
(429,584,o),
(451,605,o),
(451,635,cs),
(451,695,o),
(359,732,o),
(295,732,cs),
(212,732,o),
(91,670,o),
(91,483,cs),
(91,468,l),
(14,468,l),
(14,425,l),
(91,425,l),
(91,95,ls),
(91,56,o),
(80,40,o),
(26,40,cs),
(14,40,l),
(14,0,l),
(236,0,l),
(236,40,l),
(182,40,o),
(174,53,o),
(174,98,cs),
(174,425,l),
(296,425,ls),
(342,425,o),
(364,416,o),
(364,355,cs),
(364,-28,ls),
(364,-93,o),
(354,-123,o),
(342,-123,cs),
(327,-123,o),
(324,-76,o),
(280,-76,cs),
(251,-76,o),
(226,-97,o),
(226,-129,cs),
(226,-165,o),
(258,-188,o),
(295,-188,cs)
);
}
);
width = 502;
}
);
metricLeft = f;
metricRight = j;
},
{
glyphname = f_k.liga;
kernLeft = f;
kernRight = k;
lastChange = "2024-08-06 02:27:06 +0000";
layers = (
{
layerId = m01;
shapes = (
{
closed = 1;
nodes = (
(236,0,l),
(236,40,l),
(182,40,o),
(174,53,o),
(174,98,cs),
(174,425,l),
(364,425,l),
(364,98,ls),
(364,59,o),
(359,40,o),
(305,40,cs),
(296,40,l),
(296,0,l),
(509,0,l),
(509,40,l),
(455,40,o),
(448,53,o),
(448,98,cs),
(448,177,l),
(507,236,l),
(565,146,ls),
(635,37,o),
(616,66,o),
(616,55,cs),
(616,44,o),
(600,40,o),
(575,40,cs),
(566,40,l),
(566,0,l),
(779,0,l),
(779,40,l),
(732,43,o),
(729,44,o),
(713,66,cs),
(686,103,l),
(566,290,l),
(613,338,ls),
(653,379,o),
(697,428,o),
(764,428,c),
(764,468,l),
(552,468,l),
(552,428,l),
(592,427,o),
(610,423,o),
(610,407,cs),
(610,394,o),
(597,381,o),
(584,368,cs),
(448,231,l),
(448,729,l),
(391,710,l),
(364,725,o),
(328,732,o),
(299,732,cs),
(211,732,o),
(91,670,o),
(91,483,cs),
(91,468,l),
(14,468,l),
(14,425,l),
(91,425,l),
(91,95,ls),
(91,56,o),
(80,40,o),
(26,40,cs),
(14,40,l),
(14,0,l)
);
},
{
closed = 1;
nodes = (
(174,515,ls),
(174,628,o),
(216,695,o),
(280,695,cs),
(345,695,o),
(320,627,o),
(364,627,c),
(364,468,l),
(174,468,l)
);
}
);
width = 779;
}
);
metricLeft = f;
metricRight = k;
},
{
glyphname = f_l.liga;
kernLeft = f;
kernRight = l;
lastChange = "2024-08-06 02:27:09 +0000";
layers = (
{
layerId = m01;
shapes = (
{
closed = 1;
nodes = (
(236,0,l),
(236,40,l),
(182,40,o),
(174,53,o),
(174,98,cs),
(174,425,l),
(364,425,l),
(364,98,ls),
(364,59,o),
(359,40,o),
(305,40,cs),
(296,40,l),
(296,0,l),
(509,0,l),
(509,40,l),
(455,40,o),
(448,53,o),
(448,98,cs),
(448,729,l),
(391,710,l),
(364,725,o),
(328,732,o),
(299,732,cs),
(211,732,o),
(91,670,o),
(91,483,cs),
(91,468,l),
(14,468,l),
(14,425,l),
(91,425,l),
(91,95,ls),
(91,56,o),
(80,40,o),
(26,40,cs),
(14,40,l),
(14,0,l)
);
},
{
closed = 1;
nodes = (
(174,515,ls),
(174,628,o),
(216,695,o),
(280,695,cs),
(345,695,o),
(320,627,o),
(364,627,c),
(364,468,l),
(174,468,l)
);
}
);
width = 531;
}
);
metricLeft = f;
metricRight = l;
},
{
glyphname = f_t.liga;
kernLeft = f;
kernRight = t;
lastChange = "2024-08-06 02:25:19 +0000";
layers = (
{
anchors = (
{
name = attachcedilla;
pos = (482,-17);
},
{
name = caroncombalt;
pos = (589,735);
},
{
name = commaaccentbelow;
pos = (482,0);
},
{
name = dotbelow;
pos = (484,-17);
},
{
name = top;
pos = (453,689);
}
);
layerId = m01;
shapes = (
{
closed = 1;
nodes = (
(535,-14,o),
(579,18,o),
(614,66,c),
(585,88,l),
(556,61,o),
(539,43,o),
(503,43,cs),
(475,43,o),
(448,54,o),
(448,148,cs),
(448,425,l),
(579,425,l),
(579,468,l),
(448,468,l),
(448,630,l),
(406,630,l),
(392,512,o),
(343,468,o),
(298,468,cs),
(174,468,l),
(174,579,o),
(182,662,o),
(209,662,cs),
(226,662,o),
(238,627,o),
(271,627,cs),
(299,627,o),
(326,651,o),
(326,680,cs),
(326,710,o),
(298,732,o),
(259,732,cs),
(194,732,o),
(91,666,o),
(91,468,c),
(14,468,l),
(14,425,l),
(91,425,l),
(91,95,ls),
(91,56,o),
(80,40,o),
(26,40,cs),
(14,40,l),
(14,0,l),
(250,0,l),
(250,40,l),
(236,40,ls),
(182,40,o),
(174,53,o),
(174,98,cs),
(174,425,l),
(364,425,l),
(364,128,ls),
(364,74,o),
(364,-14,o),
(471,-14,cs)
);
}
);
width = 600;
}
);
metricLeft = f;
metricRight = t;
},
{
glyphname = a.sc;
kernLeft = a.sc;
kernRight = a.sc;
lastChange = "2024-08-06 02:25:19 +0000";
layers = (
{
anchors = (
{
name = dotbelow;
pos = (223,0);
},
{
name = ogonek;
pos = (381,0);
},
{
name = top;
pos = (243,558);
}
);
layerId = m01;
shapes = (
{
closed = 1;
nodes = (
(169,0,l),
(169,40,l),
(123,40,o),
(111,53,o),
(111,68,cs),
(111,75,o),
(114,86,o),
(117,95,cs),
(141,169,l),
(307,169,l),
(333,79,ls),
(337,65,o),
(338,61,o),
(338,57,cs),
(338,40,o),
(318,40,o),
(304,40,cs),
(281,40,l),
(281,0,l),
(483,0,l),
(483,40,l),
(434,44,o),
(430,48,o),
(414,95,cs),
(274,517,l),
(203,495,l),
(63,85,ls),
(51,50,o),
(31,40,o),
(0,40,c),
(0,0,l)
);
},
{
closed = 1;
nodes = (
(228,428,l),
(291,212,l),
(156,212,l)
);
}
);
width = 483;
}
);
},
{
glyphname = ae.sc;
kernLeft = a.sc;
kernRight = e.sc;
lastChange = "2024-08-06 02:25:19 +0000";
layers = (
{
anchors = (
{
name = top;
pos = (481,558);
}
);
layerId = m01;
shapes = (
{
closed = 1;
nodes = (
(162,0,l),
(162,40,l),
(144,40,ls),
(120,40,o),
(109,43,o),
(109,51,cs),
(109,62,o),
(127,85,o),
(135,97,cs),
(185,173,l),
(364,173,l),
(364,99,ls),
(364,43,o),
(337,40,o),
(305,40,cs),
(296,40,l),
(296,0,l),
(682,0,l),
(734,137,l),
(697,154,l),
(656,86,o),
(608,40,o),
(499,40,cs),
(448,40,o),
(448,50,o),
(448,93,cs),
(448,237,l),
(478,237,ls),
(566,237,o),
(562,203,o),
(573,151,c),
(613,151,l),
(613,359,l),
(573,359,l),
(562,312,o),
(566,277,o),
(478,277,cs),
(448,277,l),
(448,426,ls),
(448,455,o),
(468,461,o),
(508,461,cs),
(613,461,o),
(635,421,o),
(681,358,c),
(719,371,l),
(671,501,l),
(296,501,l),
(296,461,l),
(326,461,l),
(91,115,ls),
(70,84,o),
(43,40,o),
(0,40,c),
(0,0,l)
);
},
{
closed = 1;
nodes = (
(364,442,l),
(364,216,l),
(212,216,l)
);
}
);
width = 770;
}
);
metricRight = e.sc;
},
{
glyphname = b.sc;
kernLeft = b.sc;
kernRight = b.sc;
lastChange = "2024-08-06 02:25:19 +0000";
layers = (
{
anchors = (
{
name = dotbelow;
pos = (250,0);
},
{
name = top;
pos = (238,558);
}
);
layerId = m01;
shapes = (
{
closed = 1;
nodes = (
(264,0,ls),
(323,0,o),
(377,10,o),
(414,35,cs),
(445,56,o),
(471,92,o),
(471,138,cs),
(471,212,o),
(405,256,o),
(341,269,c),
(405,290,o),
(444,323,o),
(444,380,cs),
(444,414,o),
(430,445,o),
(397,467,cs),
(364,489,o),
(314,501,o),
(238,501,cs),
(40,501,l),
(40,461,l),
(49,461,ls),
(81,461,o),
(108,457,o),
(108,401,cs),
(108,99,ls),
(108,43,o),
(81,40,o),
(49,40,cs),
(40,40,l),
(40,0,l)
);
},
{
closed = 1;
nodes = (
(197,40,o),
(191,46,o),
(191,85,cs),
(191,244,l),
(242,244,ls),
(318,244,o),
(382,232,o),
(382,138,cs),
(382,69,o),
(347,40,o),
(244,40,cs)
);
},
{
closed = 1;
nodes = (
(191,422,ls),
(191,449,o),
(200,462,o),
(250,462,cs),
(331,462,o),
(357,427,o),
(357,378,cs),
(357,318,o),
(318,286,o),
(263,286,cs),
(191,286,l)
);
}
);
width = 514;
}
);
},
{
glyphname = bstroke.sc;
kernLeft = b.sc;
kernRight = b.sc;
lastChange = "2024-08-06 02:25:19 +0000";
layers = (
{
layerId = m01;
shapes = (
{
closed = 1;
nodes = (
(285,132,l),
(285,175,l),
(40,175,l),
(40,132,l)
);
},
{
ref = b.sc;
}
);
width = 514;
}
);
},
{
glyphname = c.sc;
kernLeft = c.sc;
kernRight = c.sc;
lastChange = "2024-08-06 02:25:19 +0000";
layers = (
{
anchors = (
{
name = attachcedilla;
pos = (241,-17);
},
{
name = top;
pos = (244,558);
}
);
layerId = m01;
shapes = (
{
closed = 1;
nodes = (
(351,-14,o),
(425,49,o),
(455,142,c),
(418,157,l),
(397,99,o),
(356,44,o),
(283,44,cs),
(203,44,o),
(129,109,o),
(129,261,cs),
(129,399,o),
(190,479,o),
(264,479,cs),
(339,479,o),
(401,396,o),
(418,351,c),
(455,366,l),
(410,507,l),
(398,504,o),
(369,492,o),
(359,492,cs),
(343,492,o),
(319,515,o),
(266,515,cs),
(131,515,o),
(41,365,o),
(41,226,cs),
(41,89,o),
(129,-14,o),
(254,-14,cs)
);
}
);
width = 502;
}
);
},
{
glyphname = d.sc;
kernLeft = d.sc;
kernRight = d.sc;
lastChange = "2024-08-06 02:25:19 +0000";
layers = (
{
anchors = (
{
name = commaaccentbelow;
pos = (264,0);
},
{
name = dotbelow;
pos = (250,0);
},
{
name = top;
pos = (245,558);
}
);
layerId = m01;
shapes = (
{
closed = 1;
nodes = (
(258,0,ls),
(390,0,o),
(510,89,o),
(510,258,cs),
(510,433,o),
(382,501,o),
(256,501,cs),
(40,501,l),
(40,461,l),
(49,461,ls),
(81,461,o),
(108,457,o),
(108,401,cs),
(108,99,ls),
(108,43,o),
(81,40,o),
(49,40,cs),
(40,40,l),
(40,0,l)
);
},
{
closed = 1;
nodes = (
(204,40,o),
(191,48,o),
(191,85,cs),
(191,422,ls),
(191,450,o),
(200,462,o),
(253,462,cs),
(346,462,o),
(421,424,o),
(421,252,cs),
(421,132,o),
(385,40,o),
(245,40,cs)
);
}
);
width = 551;
}
);
},
{
glyphname = eth.sc;
kernLeft = d.sc;
kernRight = d.sc;
lastChange = "2024-08-06 02:25:19 +0000";
layers = (
{
layerId = m01;
shapes = (
{
closed = 1;
nodes = (
(285,240,l),
(285,283,l),
(40,283,l),
(40,240,l)
);
},
{
ref = d.sc;
}
);
width = 551;
}
);
},
{
glyphname = e.sc;
kernLeft = e.sc;
kernRight = e.sc;
lastChange = "2024-08-06 02:25:19 +0000";
layers = (
{
anchors = (
{
name = attachcedilla;
pos = (226,-17);
},
{
name = dotbelow;
pos = (240,0);
},
{
name = ogonek;
pos = (305,0);
},
{
name = top;
pos = (234,558);
}
);
layerId = m01;
shapes = (
{
closed = 1;
nodes = (
(426,0,l),
(478,137,l),
(441,154,l),
(400,86,o),
(351,40,o),
(242,40,cs),
(191,40,o),
(191,50,o),
(191,93,cs),
(191,237,l),
(222,237,ls),
(310,237,o),
(306,203,o),
(317,151,c),
(357,151,l),
(357,359,l),
(317,359,l),
(306,312,o),
(310,277,o),
(222,277,cs),
(191,277,l),
(191,426,ls),
(191,456,o),
(214,461,o),
(252,461,cs),
(357,461,o),
(377,422,o),
(425,358,c),
(463,371,l),
(415,501,l),
(40,501,l),
(40,461,l),
(49,461,ls),
(81,461,o),
(108,457,o),
(108,401,cs),
(108,99,ls),
(108,43,o),
(81,40,o),
(49,40,cs),
(40,40,l),
(40,0,l)
);
}
);
width = 514;
}
);
},
{
glyphname = ecedilla.sc;
kernLeft = e.sc;
kernRight = e.sc;
lastChange = "2024-08-06 02:25:19 +0000";
layers = (
{
layerId = m01;
shapes = (
{
closed = 1;
nodes = (
(287,-217,o),
(341,-186,o),
(341,-133,cs),
(341,-92,o),
(310,-63,o),
(270,-63,cs),
(254,-63,o),
(238,-68,o),
(238,-68,c),
(263,6,l),
(234,6,l),
(192,-93,l),
(203,-99,l),
(210,-98,o),
(222,-96,o),
(232,-96,cs),
(264,-96,o),
(272,-115,o),
(272,-133,cs),
(272,-166,o),
(244,-183,o),
(212,-183,cs),
(185,-183,o),
(158,-171,o),
(143,-164,c),
(125,-197,l),
(149,-208,o),
(179,-217,o),
(217,-217,cs)
);
},
{
ref = e.sc;
}
);
width = 514;
}
);
},
{
glyphname = f.sc;
kernLeft = e.sc;
kernRight = f.sc;
lastChange = "2024-08-06 02:25:19 +0000";
layers = (
{
anchors = (
{
name = top;
pos = (234,558);
}
);
layerId = m01;
shapes = (
{
closed = 1;
nodes = (
(267,0,l),
(267,40,l),
(251,40,ls),
(218,40,o),
(191,43,o),
(191,99,cs),
(191,237,l),
(222,237,ls),
(310,237,o),
(306,203,o),
(317,151,c),
(357,151,l),
(357,359,l),
(317,359,l),
(306,312,o),
(310,277,o),
(222,277,cs),
(191,277,l),
(191,426,ls),
(191,456,o),
(215,461,o),
(251,461,cs),
(357,461,o),
(391,417,o),
(428,354,c),
(465,369,l),
(415,501,l),
(40,501,l),
(40,461,l),
(49,461,ls),
(81,461,o),
(108,457,o),
(108,401,cs),
(108,99,ls),
(108,43,o),
(81,40,o),
(49,40,cs),
(40,40,l),
(40,0,l)
);
}
);
width = 466;
}
);
},
{
glyphname = g.sc;
kernLeft = g.sc;
kernRight = g.sc;
lastChange = "2024-08-06 02:25:19 +0000";
layers = (
{
anchors = (
{
name = commaaccentbelow;
pos = (257,0);
},
{
name = top;
pos = (244,558);
}
);
layerId = m01;
shapes = (
{
closed = 1;
nodes = (
(329,-14,o),
(377,18,o),
(429,18,cs),
(438,18,o),
(445,17,o),
(449,17,c),
(449,132,ls),
(449,188,o),
(476,191,o),
(508,191,cs),
(517,191,l),
(517,231,l),
(297,231,l),
(297,191,l),
(306,191,ls),
(338,191,o),
(365,188,o),
(365,132,cs),
(365,99,ls),
(365,47,o),
(317,22,o),
(270,22,cs),
(187,22,o),
(131,102,o),
(131,247,cs),
(131,392,o),
(187,471,o),
(258,479,cs),
(342,488,o),
(404,392,o),
(426,358,c),
(462,376,l),
(412,511,l),
(399,506,o),
(374,495,o),
(358,495,cs),
(336,495,o),
(318,515,o),
(267,515,cs),
(141,515,o),
(41,393,o),
(41,241,cs),
(41,98,o),
(130,-14,o),
(260,-14,cs)
);
}
);
width = 557;
}
);
},
{
glyphname = h.sc;
kernLeft = h.sc;
kernRight = h.sc;
lastChange = "2024-08-06 02:25:19 +0000";
layers = (
{
anchors = (
{
name = attachcedilla;
pos = (131,-17);
},
{
name = dotbelow;
pos = (288,0);
},
{
name = top;
pos = (288,558);
}
);
layerId = m01;
shapes = (
{
closed = 1;
nodes = (
(259,0,l),
(259,40,l),
(251,40,ls),
(218,40,o),
(191,43,o),
(191,99,cs),
(191,237,l),
(383,237,l),
(383,99,ls),
(383,43,o),
(356,40,o),
(323,40,cs),
(315,40,l),
(315,0,l),
(534,0,l),
(534,40,l),
(525,40,ls),
(493,40,o),
(466,43,o),
(466,99,cs),
(466,401,ls),
(466,457,o),
(493,461,o),
(525,461,cs),
(534,461,l),
(534,501,l),
(315,501,l),
(315,461,l),
(323,461,ls),
(356,461,o),
(383,457,o),
(383,401,cs),
(383,280,l),
(191,280,l),
(191,401,ls),
(191,457,o),
(218,461,o),
(251,461,cs),
(259,461,l),
(259,501,l),
(40,501,l),
(40,461,l),
(49,461,ls),
(81,461,o),
(108,457,o),
(108,401,cs),
(108,99,ls),
(108,43,o),
(81,40,o),
(49,40,cs),
(40,40,l),
(40,0,l)
);
}
);
width = 574;
}
);
},
{
glyphname = hbar.sc;
kernLeft = h.sc;
kernRight = h.sc;
lastChange = "2024-08-06 02:25:19 +0000";
layers = (
{
layerId = m01;
shapes = (
{
closed = 1;
nodes = (
(534,343,l),
(534,386,l),
(40,386,l),
(40,343,l)
);
},
{
ref = h.sc;
}
);
width = 574;
}
);
},
{
glyphname = hcedilla.sc;
kernLeft = h.sc;
kernRight = h.sc;
lastChange = "2024-08-06 02:25:19 +0000";
layers = (
{
layerId = m01;
shapes = (
{
closed = 1;
nodes = (
(192,-217,o),
(245,-186,o),
(245,-132,cs),
(245,-92,o),
(215,-63,o),
(175,-63,cs),
(159,-63,o),
(143,-68,o),
(143,-68,c),
(166,3,l),
(137,3,l),
(97,-93,l),
(108,-99,l),
(115,-98,o),
(126,-96,o),
(136,-96,cs),
(169,-96,o),
(177,-115,o),
(177,-133,cs),
(177,-166,o),
(149,-183,o),
(117,-183,cs),
(90,-183,o),
(63,-171,o),
(48,-164,c),
(30,-197,l),
(54,-208,o),
(84,-217,o),
(122,-217,cs)
);
},
{
ref = h.sc;
}
);
width = 574;
}
);
},
{
glyphname = idotless.sc;
kernLeft = i.sc;
kernRight = i.sc;
lastChange = "2024-08-06 02:25:19 +0000";
layers = (
{
anchors = (
{
name = dotbelow;
pos = (149,0);
},
{
name = ogonek;
pos = (141,0);
},
{
name = top;
pos = (149,558);
}
);
layerId = m01;
shapes = (
{
closed = 1;
nodes = (
(259,0,l),
(259,40,l),
(251,40,ls),
(218,40,o),
(191,43,o),
(191,99,cs),
(191,401,ls),
(191,457,o),
(218,461,o),
(251,461,cs),
(259,461,l),
(259,501,l),
(40,501,l),
(40,461,l),
(49,461,ls),
(81,461,o),
(108,457,o),
(108,401,cs),
(108,99,ls),
(108,43,o),
(81,40,o),
(49,40,cs),
(40,40,l),
(40,0,l)
);
}
);
width = 299;
}
);
},
{
glyphname = jdotless.sc;
kernLeft = j.sc;
kernRight = j.sc;
lastChange = "2024-08-06 02:25:19 +0000";
layers = (
{
anchors = (
{
name = top;
pos = (149,558);
}
);
layerId = m01;
shapes = (
{
closed = 1;
nodes = (
(120,-111,o),
(191,-61,o),
(191,68,cs),
(191,401,ls),
(191,457,o),
(218,461,o),
(251,461,cs),
(259,461,l),
(259,501,l),
(40,501,l),
(40,461,l),
(49,461,ls),
(81,461,o),
(108,457,o),
(108,401,cs),
(108,0,ls),
(108,-21,o),
(108,-61,o),
(86,-61,cs),
(59,-61,o),
(71,-3,o),
(24,-3,cs),
(-2,-3,o),
(-30,-21,o),
(-30,-53,cs),
(-30,-88,o),
(2,-111,o),
(48,-111,cs)
);
}
);
width = 291;
}
);
},
{
glyphname = k.sc;
kernLeft = k.sc;
kernRight = k.sc;
lastChange = "2024-08-06 02:25:19 +0000";
layers = (
{
anchors = (
{
name = commaaccentbelow;
pos = (275,0);
},
{
name = dotbelow;
pos = (275,0);
},
{
name = top;
pos = (283,558);
}
);
layerId = m01;
shapes = (
{
closed = 1;
nodes = (
(259,0,l),
(259,40,l),
(251,40,ls),
(218,40,o),
(191,43,o),
(191,99,cs),
(191,197,l),
(256,259,l),
(366,81,ls),
(382,55,o),
(381,56,o),
(381,53,cs),
(381,43,o),
(373,40,o),
(345,40,cs),
(330,40,l),
(330,0,l),
(532,0,l),
(532,40,l),
(507,40,o),
(480,52,o),
(466,74,cs),
(315,311,l),
(414,410,ls),
(456,452,o),
(474,461,o),
(508,461,c),
(508,501,l),
(325,501,l),
(325,461,l),
(352,461,ls),
(371,461,o),
(377,454,o),
(377,446,cs),
(377,435,o),
(365,419,o),
(356,410,cs),
(191,251,l),
(191,401,ls),
(191,457,o),
(218,461,o),
(251,461,cs),
(259,461,l),
(259,501,l),
(40,501,l),
(40,461,l),
(49,461,ls),
(81,461,o),
(108,457,o),
(108,401,cs),
(108,99,ls),
(108,43,o),
(81,40,o),
(49,40,cs),
(40,40,l),
(40,0,l)
);
}
);
width = 531;
}
);
},
{
glyphname = l.sc;
kernLeft = l.sc;
kernRight = l.sc;
lastChange = "2024-08-06 02:25:19 +0000";
layers = (
{
anchors = (
{
name = caroncombalt;
pos = (383,511);
},
{
name = commaaccentbelow;
pos = (231,0);
},
{
name = dotbelow;
pos = (231,0);
},
{
name = ldot;
pos = (254,208);
},
{
name = top;
pos = (149,558);
}
);
layerId = m01;
shapes = (
{
closed = 1;
nodes = (
(413,0,l),
(463,137,l),
(427,154,l),
(394,104,o),
(358,71,o),
(337,58,cs),
(316,45,o),
(291,40,o),
(247,40,cs),
(191,40,o),
(191,48,o),
(191,93,cs),
(191,401,ls),
(191,457,o),
(218,461,o),
(251,461,cs),
(259,461,l),
(259,501,l),
(40,501,l),
(40,461,l),
(49,461,ls),
(81,461,o),
(108,457,o),
(108,401,cs),
(108,99,ls),
(108,43,o),
(81,40,o),
(49,40,cs),
(40,40,l),
(40,0,l)
);
}
);
width = 470;
}
);
},
{
glyphname = lslash.sc;
kernLeft = l.sc;
kernRight = l.sc;
lastChange = "2024-08-06 02:25:19 +0000";
layers = (
{
layerId = m01;
shapes = (
{
closed = 1;
nodes = (
(365,323,l),
(365,379,l),
(40,200,l),
(40,149,l)
);
},
{
ref = l.sc;
}
);
width = 470;
}
);
},
{
glyphname = m.sc;
kernLeft = m.sc;
kernRight = m.sc;
lastChange = "2024-08-06 02:25:19 +0000";
layers = (
{
anchors = (
{
name = dotbelow;
pos = (323,0);
},
{
name = top;
pos = (337,558);
}
);
layerId = m01;
shapes = (
{
closed = 1;
nodes = (
(219,0,l),
(219,40,l),
(211,40,ls),
(178,40,o),
(151,43,o),
(151,99,cs),
(151,430,l),
(310,0,l),
(337,0,l),
(492,435,l),
(492,99,ls),
(492,43,o),
(465,40,o),
(432,40,cs),
(424,40,l),
(424,0,l),
(643,0,l),
(643,40,l),
(635,40,ls),
(602,40,o),
(575,43,o),
(575,99,cs),
(575,401,ls),
(575,457,o),
(602,461,o),
(635,461,cs),
(643,461,l),
(643,501,l),
(474,501,l),
(343,130,l),
(209,501,l),
(40,501,l),
(40,461,l),
(49,461,ls),
(81,461,o),
(108,457,o),
(108,401,cs),
(108,99,ls),
(108,43,o),
(81,40,o),
(49,40,cs),
(40,40,l),
(40,0,l)
);
}
);
width = 683;
}
);
},
{
glyphname = n.sc;
kernLeft = n.sc;
kernRight = n.sc;
lastChange = "2024-08-06 02:25:19 +0000";
layers = (
{
anchors = (
{
name = commaaccentbelow;
pos = (280,0);
},
{
name = dotbelow;
pos = (277,0);
},
{
name = top;
pos = (276,558);
}
);
layerId = m01;
shapes = (
{
closed = 1;
nodes = (
(459,-10,l),
(459,401,ls),
(459,457,o),
(486,461,o),
(519,461,cs),
(528,461,l),
(528,501,l),
(348,501,l),
(348,461,l),
(357,461,ls),
(389,461,o),
(416,457,o),
(416,401,cs),
(416,146,l),
(164,501,l),
(40,501,l),
(40,461,l),
(49,461,ls),
(81,461,o),
(108,457,o),
(108,401,cs),
(108,99,ls),
(108,43,o),
(81,40,o),
(49,40,cs),
(40,40,l),
(40,0,l),
(219,0,l),
(219,40,l),
(211,40,ls),
(178,40,o),
(151,43,o),
(151,99,cs),
(151,386,l),
(431,-10,l)
);
}
);
width = 560;
}
);
},
{
glyphname = o.sc;
kernLeft = o.sc;
kernRight = o.sc;
lastChange = "2024-08-06 02:25:19 +0000";
layers = (
{
anchors = (
{
name = attachhorn;
pos = (386,368);
},
{
name = dotbelow;
pos = (264,0);
},
{
name = ogonek;
pos = (296,0);
},
{
name = top;
pos = (263,558);
}
);
layerId = m01;
shapes = (
{
closed = 1;
nodes = (
(388,-14,o),
(489,105,o),
(489,251,cs),
(489,397,o),
(388,515,o),
(265,515,cs),
(142,515,o),
(41,397,o),
(41,251,cs),
(41,105,o),
(142,-14,o),
(265,-14,cs)
);
},
{
closed = 1;
nodes = (
(190,22,o),
(131,108,o),
(131,252,cs),
(131,394,o),
(189,479,o),
(265,479,cs),
(341,479,o),
(399,395,o),
(399,252,cs),
(399,109,o),
(341,22,o),
(265,22,cs)
);
}
);
width = 530;
}
);
},
{
glyphname = oogonek.sc;
kernLeft = o.sc;
kernRight = o.sc;
lastChange = "2024-08-06 02:25:19 +0000";
layers = (
{
anchors = (
{
name = attachhorn;
pos = (386,368);
},
{
name = dotbelow;
pos = (264,0);
},
{
name = ogonek;
pos = (296,0);
},
{
name = top;
pos = (263,558);
}
);
layerId = m01;
shapes = (
{
closed = 1;
nodes = (
(366,-204,o),
(395,-190,o),
(415,-175,c),
(396,-141,l),
(380,-151,o),
(369,-156,o),
(349,-156,cs),
(300,-156,o),
(282,-127,o),
(282,-92,cs),
(282,-45,o),
(314,-18,o),
(335,-1,c),
(422,33,o),
(489,133,o),
(489,252,cs),
(489,397,o),
(388,515,o),
(265,515,cs),
(142,515,o),
(41,397,o),
(41,251,cs),
(41,105,o),
(142,-14,o),
(265,-14,cs),
(275,-14,l),
(244,-36,o),
(222,-66,o),
(222,-109,cs),
(222,-166,o),
(262,-204,o),
(326,-204,cs)
);
},
{
closed = 1;
nodes = (
(190,22,o),
(131,108,o),
(131,252,cs),
(131,394,o),
(189,479,o),
(265,479,cs),
(341,479,o),
(399,395,o),
(399,252,cs),
(399,109,o),
(341,22,o),
(265,22,cs)
);
}
);
width = 530;
}
);
},
{
glyphname = oslash.sc;
kernLeft = o.sc;
kernRight = o.sc;
lastChange = "2024-08-06 02:25:19 +0000";
layers = (
{
layerId = m01;
shapes = (
{
closed = 1;
nodes = (
(498,465,l),
(468,495,l),
(32,28,l),
(63,-2,l)
);
},
{
ref = o.sc;
}
);
width = 530;
}
);
},
{
glyphname = oe.sc;
kernLeft = o.sc;
kernRight = e.sc;
lastChange = "2024-08-06 02:25:19 +0000";
layers = (
{
anchors = (
{
name = top;
pos = (384,558);
}
);
layerId = m01;
shapes = (
{
closed = 1;
nodes = (
(662,0,l),
(714,137,l),
(677,154,l),
(635,86,o),
(587,40,o),
(478,40,cs),
(427,40,o),
(427,50,o),
(427,93,cs),
(427,237,l),
(457,237,ls),
(546,237,o),
(542,203,o),
(552,151,c),
(592,151,l),
(592,359,l),
(552,359,l),
(542,312,o),
(546,277,o),
(457,277,cs),
(427,277,l),
(427,426,ls),
(427,456,o),
(450,461,o),
(488,461,cs),
(592,461,o),
(612,423,o),
(661,358,c),
(698,371,l),
(651,501,l),
(259,501,ls),
(136,501,o),
(35,395,o),
(35,246,cs),
(35,92,o),
(144,0,o),
(267,0,cs)
);
},
{
closed = 1;
nodes = (
(162,36,o),
(123,132,o),
(123,250,cs),
(123,417,o),
(202,465,o),
(275,465,cs),
(324,465,o),
(344,443,o),
(344,414,cs),
(344,85,ls),
(344,48,o),
(316,36,o),
(276,36,cs)
);
}
);
width = 750;
}
);
metricRight = e.sc;
},
{
glyphname = p.sc;
kernLeft = p.sc;
kernRight = p.sc;
lastChange = "2024-08-06 02:25:19 +0000";
layers = (
{
anchors = (
{
name = top;
pos = (232,558);
}
);
layerId = m01;
shapes = (
{
closed = 1;
nodes = (
(267,0,l),
(267,40,l),
(251,40,ls),
(218,40,o),
(191,43,o),
(191,99,cs),
(191,226,l),
(332,226,o),
(450,236,o),
(450,358,cs),
(450,401,o),
(435,437,o),
(395,465,cs),
(365,486,o),
(322,501,o),
(238,501,cs),
(40,501,l),
(40,461,l),
(49,461,ls),
(81,461,o),
(108,457,o),
(108,401,cs),
(108,99,ls),
(108,43,o),
(81,40,o),
(49,40,cs),
(40,40,l),
(40,0,l)
);
},
{
closed = 1;
nodes = (
(191,422,ls),
(191,448,o),
(200,461,o),
(248,461,cs),
(331,461,o),
(360,421,o),
(360,363,cs),
(360,295,o),
(319,266,o),
(264,266,cs),
(191,266,l)
);
}
);
width = 481;
}
);
},
{
glyphname = thorn.sc;
kernLeft = p.sc;
kernRight = p.sc;
lastChange = "2024-08-06 02:25:19 +0000";
layers = (
{
layerId = m01;
shapes = (
{
closed = 1;
nodes = (
(267,0,l),
(267,40,l),
(251,40,ls),
(218,40,o),
(191,43,o),
(191,99,cs),
(191,118,l),
(344,118,o),
(450,133,o),
(450,249,cs),
(450,298,o),
(431,332,o),
(395,357,cs),
(369,375,o),
(329,392,o),
(238,392,cs),
(191,392,l),
(191,401,ls),
(191,457,o),
(218,461,o),
(251,461,cs),
(259,461,l),
(259,501,l),
(40,501,l),
(40,461,l),
(49,461,ls),
(81,461,o),
(108,457,o),
(108,401,cs),
(108,99,ls),
(108,43,o),
(81,40,o),
(49,40,cs),
(40,40,l),
(40,0,l)
);
},
{
closed = 1;
nodes = (
(191,314,ls),
(191,340,o),
(200,352,o),
(247,352,cs),
(331,352,o),
(360,313,o),
(360,255,cs),
(360,187,o),
(319,158,o),
(264,158,cs),
(191,158,l)
);
}
);
width = 482;
}
);
},
{
glyphname = q.sc;
kernLeft = q.sc;
kernRight = q.sc;
lastChange = "2024-08-06 02:25:19 +0000";
layers = (
{
anchors = (
{
name = top;
pos = (263,558);
}
);
layerId = m01;
shapes = (
{
closed = 1;
nodes = (
(442,-79,o),
(479,-46,o),
(496,-27,c),
(474,-1,l),
(464,-9,o),
(450,-19,o),
(439,-19,cs),
(418,-19,o),
(397,12,o),
(383,31,c),
(454,80,o),
(489,158,o),
(489,247,cs),
(489,399,o),
(388,515,o),
(266,515,cs),
(142,515,o),
(41,397,o),
(41,252,cs),
(41,106,o),
(142,-14,o),
(262,-14,cs),
(281,-14,o),
(292,-11,o),
(310,-4,c),
(323,-41,o),
(351,-79,o),
(398,-79,cs)
);
},
{
closed = 1;
nodes = (
(241,22,o),
(212,32,o),
(197,50,cs),
(190,58,o),
(186,68,o),
(186,80,cs),
(186,105,o),
(209,121,o),
(230,121,cs),
(266,121,o),
(291,75,o),
(302,30,c),
(290,24,o),
(276,22,o),
(265,22,cs)
);
},
{
closed = 1;
nodes = (
(320,121,o),
(283,157,o),
(229,157,cs),
(189,157,o),
(172,137,o),
(159,115,c),
(141,154,o),
(131,196,o),
(131,254,cs),
(131,395,o),
(190,479,o),
(266,479,cs),
(342,479,o),
(399,395,o),
(399,246,cs),
(399,202,o),
(394,130,o),
(351,75,c)
);
}
);
width = 531;
}
);
},
{
glyphname = r.sc;
kernLeft = r.sc;
kernRight = r.sc;
lastChange = "2024-08-06 02:25:19 +0000";
layers = (
{
anchors = (
{
name = commaaccentbelow;
pos = (258,0);
},
{
name = dotbelow;
pos = (258,0);
},
{
name = top;
pos = (232,558);
}
);
layerId = m01;
shapes = (
{
closed = 1;
nodes = (
(259,0,l),
(259,40,l),
(251,40,ls),
(218,40,o),
(191,43,o),
(191,99,cs),
(191,235,l),
(227,235,l),
(370,0,l),
(497,0,l),
(497,40,l),
(482,40,ls),
(443,40,o),
(431,57,o),
(417,79,cs),
(314,242,l),
(391,253,o),
(452,298,o),
(452,371,cs),
(452,412,o),
(433,443,o),
(400,466,cs),
(367,489,o),
(323,501,o),
(238,501,cs),
(40,501,l),
(40,461,l),
(49,461,ls),
(81,461,o),
(108,457,o),
(108,401,cs),
(108,99,ls),
(108,43,o),
(81,40,o),
(49,40,cs),
(40,40,l),
(40,0,l)
);
},
{
closed = 1;
nodes = (
(191,422,ls),
(191,449,o),
(200,461,o),
(250,461,cs),
(331,461,o),
(362,429,o),
(362,372,cs),
(362,304,o),
(318,275,o),
(264,275,cs),
(191,275,l)
);
}
);
width = 498;
}
);
},
{
glyphname = s.sc;
kernLeft = s.sc;
kernRight = s.sc;
lastChange = "2024-08-06 02:25:19 +0000";
layers = (
{
anchors = (
{
name = attachcedilla;
pos = (210,-17);
},
{
name = commaaccentbelow;
pos = (224,0);
},
{
name = dotbelow;
pos = (224,0);
},
{
name = top;
pos = (202,558);
}
);
layerId = m01;
shapes = (
{
closed = 1;
nodes = (
(329,-14,o),
(398,57,o),
(398,150,cs),
(398,337,o),
(117,259,o),
(117,395,cs),
(117,439,o),
(147,479,o),
(200,479,cs),
(275,479,o),
(322,399,o),
(352,351,c),
(387,371,l),
(336,512,l),
(323,507,o),
(295,492,o),
(287,492,cs),
(276,492,o),
(231,515,o),
(189,515,cs),
(120,515,o),
(53,451,o),
(53,362,cs),
(53,181,o),
(331,257,o),
(331,116,cs),
(331,62,o),
(291,22,o),
(239,22,cs),
(169,22,o),
(99,96,o),
(68,150,c),
(32,133,l),
(85,-13,l),
(106,-2,o),
(126,15,o),
(139,15,cs),
(155,15,o),
(191,-14,o),
(245,-14,cs)
);
}
);
width = 430;
}
);
},
{
glyphname = germandbls.sc;
kernLeft = i.sc;
kernRight = s.sc;
lastChange = "2024-08-06 02:25:19 +0000";
layers = (
{
layerId = m01;
shapes = (
{
closed = 1;
nodes = (
(608,-14,o),
(676,58,o),
(676,150,cs),
(676,337,o),
(395,260,o),
(395,382,cs),
(395,426,o),
(425,465,o),
(474,465,cs),
(528,465,l),
(528,501,l),
(322,501,ls),
(201,501,o),
(108,471,o),
(108,365,cs),
(108,99,ls),
(108,43,o),
(81,40,o),
(49,40,cs),
(40,40,l),
(40,0,l),
(259,0,l),
(259,40,l),
(251,40,ls),
(218,40,o),
(191,43,o),
(191,99,cs),
(191,347,ls),
(191,413,o),
(211,465,o),
(331,465,cs),
(381,465,l),
(348,435,o),
(331,400,o),
(331,354,cs),
(331,178,o),
(609,258,o),
(609,116,cs),
(609,62,o),
(569,22,o),
(517,22,cs),
(446,22,o),
(377,96,o),
(346,150,c),
(310,133,l),
(363,-13,l),
(379,-4,o),
(404,15,o),
(417,15,cs),
(432,15,o),
(468,-14,o),
(522,-14,cs)
);
}
);
width = 708;
}
);
metricLeft = i.sc;
metricRight = s.sc;
},
{
glyphname = t.sc;
kernLeft = t.sc;
kernRight = t.sc;
lastChange = "2024-08-06 02:25:19 +0000";
layers = (
{
anchors = (
{
name = attachcedilla;
pos = (226,-17);
},
{
name = commaaccentbelow;
pos = (238,0);
},
{
name = dotbelow;
pos = (237,0);
},
{
name = top;
pos = (237,558);
}
);
layerId = m01;
shapes = (
{
closed = 1;
nodes = (
(355,0,l),
(355,40,l),
(338,40,ls),
(306,40,o),
(279,43,o),
(279,99,cs),
(279,426,ls),
(279,457,o),
(282,461,o),
(300,461,cs),
(359,461,o),
(397,416,o),
(439,354,c),
(475,369,l),
(435,501,l),
(40,501,l),
(0,369,l),
(36,354,l),
(78,416,o),
(116,461,o),
(175,461,cs),
(192,461,o),
(196,457,o),
(196,426,cs),
(196,99,ls),
(196,43,o),
(169,40,o),
(136,40,cs),
(120,40,l),
(120,0,l)
);
}
);
width = 475;
}
);
},
{
glyphname = tcedilla.sc;
kernLeft = t.sc;
kernRight = t.sc;
lastChange = "2024-08-06 02:25:19 +0000";
layers = (
{
layerId = m01;
shapes = (
{
closed = 1;
nodes = (
(287,-217,o),
(341,-186,o),
(341,-133,cs),
(341,-92,o),
(310,-63,o),
(270,-63,cs),
(254,-63,o),
(238,-68,o),
(238,-68,c),
(262,3,l),
(232,3,l),
(192,-93,l),
(203,-99,l),
(210,-98,o),
(222,-96,o),
(232,-96,cs),
(264,-96,o),
(272,-115,o),
(272,-133,cs),
(272,-166,o),
(244,-183,o),
(212,-183,cs),
(185,-183,o),
(158,-171,o),
(143,-164,c),
(125,-197,l),
(149,-208,o),
(179,-217,o),
(217,-217,cs)
);
},
{
ref = t.sc;
}
);
width = 475;
}
);
},
{
glyphname = u.sc;
kernLeft = u.sc;
kernRight = u.sc;
lastChange = "2024-08-06 02:25:19 +0000";
layers = (
{
anchors = (
{
name = attachhorn;
pos = (530,368);
},
{
name = dotbelow;
pos = (293,0);
},
{
name = ogonek;
pos = (335,0);
},
{
name = top;
pos = (291,558);
}
);
layerId = m01;
shapes = (
{
closed = 1;
nodes = (
(403,-14,o),
(467,37,o),
(467,187,cs),
(467,401,ls),
(467,457,o),
(494,461,o),
(526,461,cs),
(535,461,l),
(535,501,l),
(356,501,l),
(356,461,l),
(364,461,ls),
(397,461,o),
(424,457,o),
(424,401,cs),
(424,171,ls),
(424,89,o),
(392,26,o),
(302,26,cs),
(214,26,o),
(186,89,o),
(186,171,cs),
(186,401,ls),
(186,457,o),
(213,461,o),
(245,461,cs),
(254,461,l),
(254,501,l),
(35,501,l),
(35,461,l),
(43,461,ls),
(76,461,o),
(103,457,o),
(103,401,cs),
(103,176,ls),
(103,27,o),
(186,-14,o),
(289,-14,cs)
);
}
);
width = 571;
}
);
},
{
glyphname = uhorn.sc;
kernLeft = u.sc;
kernRight = horn.sc;
lastChange = "2024-08-06 02:25:19 +0000";
layers = (
{
layerId = m01;
shapes = (
{
closed = 1;
nodes = (
(559,295,o),
(674,454,o),
(674,541,cs),
(674,590,o),
(638,617,o),
(603,617,cs),
(573,617,o),
(542,596,o),
(542,554,cs),
(542,498,o),
(598,500,o),
(598,471,cs),
(598,443,o),
(547,352,o),
(424,334,c),
(424,295,l)
);
},
{
ref = u.sc;
}
);
width = 663;
}
);
},
{
glyphname = uogonek.sc;
kernLeft = u.sc;
kernRight = u.sc;
lastChange = "2024-08-06 02:25:19 +0000";
layers = (
{
anchors = (
{
name = attachhorn;
pos = (530,368);
},
{
name = dotbelow;
pos = (293,0);
},
{
name = ogonek;
pos = (335,0);
},
{
name = top;
pos = (291,558);
}
);
layerId = m01;
shapes = (
{
closed = 1;
nodes = (
(405,-204,o),
(434,-190,o),
(454,-175,c),
(435,-141,l),
(419,-151,o),
(408,-156,o),
(388,-156,cs),
(339,-156,o),
(321,-127,o),
(321,-91,cs),
(321,-42,o),
(355,-15,o),
(375,0,c),
(434,23,o),
(467,80,o),
(467,187,cs),
(467,401,ls),
(467,457,o),
(494,461,o),
(526,461,cs),
(535,461,l),
(535,501,l),
(356,501,l),
(356,461,l),
(364,461,ls),
(397,461,o),
(424,457,o),
(424,401,cs),
(424,171,ls),
(424,89,o),
(392,26,o),
(302,26,cs),
(214,26,o),
(186,89,o),
(186,171,cs),
(186,401,ls),
(186,457,o),
(213,461,o),
(245,461,cs),
(254,461,l),
(254,501,l),
(35,501,l),
(35,461,l),
(43,461,ls),
(76,461,o),
(103,457,o),
(103,401,cs),
(103,176,ls),
(103,26,o),
(186,-13,o),
(291,-13,cs),
(314,-13,l),
(283,-36,o),
(261,-66,o),
(261,-109,cs),
(261,-166,o),
(301,-204,o),
(365,-204,cs)
);
}
);
width = 571;
}
);
},
{
glyphname = v.sc;
kernLeft = v.sc;
kernRight = v.sc;
lastChange = "2024-08-06 02:25:19 +0000";
layers = (
{
anchors = (
{
name = dotbelow;
pos = (241,0);
},
{
name = top;
pos = (246,558);
}
);
layerId = m01;
shapes = (
{
closed = 1;
nodes = (
(255,-14,l),
(405,401,ls),
(417,435,o),
(432,461,o),
(482,461,c),
(482,501,l),
(291,501,l),
(291,461,l),
(299,461,ls),
(332,461,o),
(363,456,o),
(363,430,cs),
(363,421,o),
(359,408,o),
(356,399,cs),
(261,122,l),
(163,405,ls),
(161,411,o),
(155,431,o),
(155,439,cs),
(155,454,o),
(177,461,o),
(211,461,c),
(211,501,l),
(0,501,l),
(0,461,l),
(9,461,ls),
(41,461,o),
(63,445,o),
(79,399,cs),
(224,-14,l)
);
}
);
width = 482;
}
);
},
{
glyphname = w.sc;
kernLeft = w.sc;
kernRight = w.sc;
lastChange = "2024-08-06 02:25:19 +0000";
layers = (
{
anchors = (
{
name = dotbelow;
pos = (311,0);
},
{
name = top;
pos = (318,558);
}
);
layerId = m01;
shapes = (
{
closed = 1;
nodes = (
(210,-14,l),
(311,322,l),
(409,-14,l),
(438,-14,l),
(564,401,ls),
(575,437,o),
(577,461,o),
(619,461,c),
(619,501,l),
(468,501,l),
(468,461,l),
(501,461,o),
(524,461,o),
(524,438,cs),
(524,429,o),
(518,409,o),
(515,399,cs),
(442,148,l),
(371,410,l),
(366,424,o),
(364,437,o),
(364,443,cs),
(364,461,o),
(387,461,o),
(419,461,c),
(419,501,l),
(214,501,l),
(214,461,l),
(235,461,ls),
(282,461,o),
(277,438,o),
(293,391,c),
(216,144,l),
(144,405,l),
(138,422,o),
(134,438,o),
(134,445,cs),
(134,462,o),
(160,461,o),
(190,461,c),
(190,501,l),
(0,501,l),
(0,461,l),
(11,461,ls),
(43,461,o),
(46,445,o),
(59,399,cs),
(177,-14,l)
);
}
);
width = 619;
}
);
},
{
glyphname = x.sc;
kernLeft = x.sc;
kernRight = x.sc;
lastChange = "2024-08-06 02:25:19 +0000";
layers = (
{
anchors = (
{
name = top;
pos = (241,558);
}
);
layerId = m01;
shapes = (
{
closed = 1;
nodes = (
(200,0,l),
(200,40,l),
(187,40,ls),
(157,40,o),
(145,46,o),
(145,56,cs),
(145,62,o),
(149,70,o),
(163,92,cs),
(231,199,l),
(303,88,ls),
(312,74,o),
(319,62,o),
(319,55,cs),
(319,44,o),
(305,40,o),
(274,40,c),
(274,0,l),
(475,0,l),
(475,40,l),
(430,46,o),
(398,82,o),
(388,97,cs),
(279,268,l),
(370,409,ls),
(384,431,o),
(418,461,o),
(468,461,c),
(468,501,l),
(279,501,l),
(279,461,l),
(288,461,ls),
(320,461,o),
(329,449,o),
(329,439,cs),
(329,430,o),
(319,417,o),
(314,409,cs),
(251,310,l),
(186,414,ls),
(172,437,o),
(170,441,o),
(170,446,cs),
(170,463,o),
(191,461,o),
(221,461,c),
(221,501,l),
(0,501,l),
(0,461,l),
(9,461,ls),
(41,461,o),
(69,444,o),
(89,414,cs),
(203,240,l),
(109,96,ls),
(93,71,o),
(57,40,o),
(0,40,c),
(0,0,l)
);
}
);
width = 475;
}
);
},
{
glyphname = y.sc;
kernLeft = y.sc;
kernRight = y.sc;
lastChange = "2024-08-06 02:25:19 +0000";
layers = (
{
anchors = (
{
name = dotbelow;
pos = (219,0);
},
{
name = top;
pos = (228,558);
}
);
layerId = m01;
shapes = (
{
closed = 1;
nodes = (
(329,0,l),
(329,40,l),
(320,40,ls),
(288,40,o),
(261,43,o),
(261,99,cs),
(261,213,l),
(375,418,ls),
(392,449,o),
(398,461,o),
(438,461,c),
(438,501,l),
(278,501,l),
(278,461,l),
(286,461,ls),
(319,461,o),
(329,452,o),
(329,443,cs),
(329,435,o),
(320,415,o),
(316,408,cs),
(238,264,l),
(157,414,ls),
(128,468,o),
(142,442,o),
(142,449,cs),
(142,456,o),
(155,461,o),
(183,461,c),
(183,501,l),
(0,501,l),
(0,461,l),
(9,461,ls),
(41,461,o),
(44,455,o),
(66,414,cs),
(177,204,l),
(177,99,ls),
(177,43,o),
(150,40,o),
(118,40,cs),
(109,40,l),
(109,0,l)
);
}
);
width = 438;
}
);
},
{
glyphname = z.sc;
kernLeft = z.sc;
kernRight = z.sc;
lastChange = "2024-08-06 02:25:19 +0000";
layers = (
{
anchors = (
{
name = dotbelow;
pos = (209,0);
},
{
name = top;
pos = (232,558);
}
);
layerId = m01;
shapes = (
{
closed = 1;
nodes = (
(370,0,l),
(421,139,l),
(385,156,l),
(339,84,o),
(301,40,o),
(186,40,cs),
(134,40,l),
(412,479,l),
(397,501,l),
(89,501,l),
(40,371,l),
(76,354,l),
(117,416,o),
(160,461,o),
(254,461,cs),
(307,461,l),
(29,23,l),
(43,0,l)
);
}
);
width = 451;
}
);
},
{
glyphname = saltillo.sc;
lastChange = "2024-08-06 02:25:19 +0000";
layers = (
{
layerId = m01;
shapes = (
{
closed = 1;
nodes = (
(169,181,l),
(169,378,o),
(218,381,o),
(218,441,cs),
(218,497,o),
(175,515,o),
(147,515,cs),
(119,515,o),
(77,497,o),
(77,441,cs),
(77,381,o),
(126,378,o),
(126,181,c)
);
}
);
width = 295;
}
);
},
{
glyphname = ordfeminine;
lastChange = "2024-08-06 02:25:19 +0000";
layers = (
{
layerId = m01;
shapes = (
{
closed = 1;
nodes = (
(160,405,o),
(191,424,o),
(212,439,c),
(217,423,o),
(227,406,o),
(252,406,cs),
(274,406,o),
(296,418,o),
(311,439,c),
(291,457,l),
(286,453,o),
(278,444,o),
(274,444,cs),
(269,444,o),
(267,452,o),
(267,476,cs),
(267,622,ls),
(267,665,o),
(254,707,o),
(173,707,cs),
(106,707,o),
(53,678,o),
(53,641,cs),
(53,622,o),
(66,611,o),
(86,611,cs),
(136,611,o),
(118,676,o),
(169,676,cs),
(208,676,o),
(208,638,o),
(208,612,cs),
(208,594,l),
(127,573,o),
(43,544,o),
(43,476,cs),
(43,423,o),
(95,405,o),
(127,405,cs)
);
},
{
closed = 1;
nodes = (
(120,443,o),
(108,456,o),
(108,477,cs),
(108,523,o),
(164,548,o),
(208,562,c),
(208,469,l),
(184,454,o),
(166,443,o),
(144,443,cs)
);
}
);
width = 341;
}
);
unicode = 170;
},
{
glyphname = ordmasculine;
lastChange = "2024-08-06 02:25:19 +0000";
layers = (
{
layerId = m01;
shapes = (
{
closed = 1;
nodes = (
(273,406,o),
(328,481,o),
(328,558,cs),
(328,644,o),
(260,707,o),
(186,707,cs),
(114,707,o),
(43,647,o),
(43,559,cs),
(43,482,o),
(97,406,o),
(185,406,cs)
);
},
{
closed = 1;
nodes = (
(136,436,o),
(109,491,o),
(109,557,cs),
(109,622,o),
(136,678,o),
(186,678,cs),
(237,678,o),
(262,621,o),
(262,557,cs),
(262,491,o),
(236,436,o),
(186,436,cs)
);
}
);
width = 371;
}
);
unicode = 186;
},
{
glyphname = Omega;
lastChange = "2024-08-06 02:25:19 +0000";
layers = (
{
layerId = m01;
shapes = (
{
closed = 1;
nodes = (
(356,0,l),
(356,46,l),
(257,150,o),
(234,270,o),
(234,378,cs),
(234,592,o),
(324,695,o),
(438,695,cs),
(551,695,o),
(642,592,o),
(642,379,cs),
(642,270,o),
(618,150,o),
(520,46,c),
(520,0,l),
(778,0,l),
(849,189,l),
(801,205,l),
(721,89,o),
(711,46,o),
(583,46,cs),
(574,46,l),
(711,133,o),
(764,262,o),
(764,388,cs),
(764,588,o),
(630,735,o),
(438,735,cs),
(245,735,o),
(111,587,o),
(111,387,cs),
(111,262,o),
(164,133,o),
(302,46,c),
(293,46,ls),
(164,46,o),
(155,89,o),
(75,205,c),
(27,189,l),
(97,0,l)
);
}
);
width = 876;
}
);
unicode = 937;
},
{
glyphname = pi;
lastChange = "2024-08-06 02:25:21 +0000";
layers = (
{
layerId = m01;
shapes = (
{
closed = 1;
nodes = (
(194,-14,o),
(218,23,o),
(218,124,cs),
(218,415,l),
(351,415,l),
(351,132,ls),
(351,55,o),
(360,-14,o),
(429,-14,cs),
(486,-14,o),
(513,34,o),
(533,61,c),
(517,82,l),
(505,68,o),
(494,51,o),
(469,51,cs),
(434,51,o),
(434,86,o),
(434,122,cs),
(434,415,l),
(478,415,ls),
(507,415,o),
(537,468,o),
(537,508,c),
(511,516,l),
(499,499,o),
(480,486,o),
(452,486,cs),
(151,486,ls),
(74,486,o),
(46,454,o),
(15,391,c),
(46,366,l),
(90,402,o),
(106,415,o),
(158,415,c),
(158,160,ls),
(158,55,o),
(147,44,o),
(136,44,cs),
(114,44,o),
(121,85,o),
(87,85,cs),
(65,85,o),
(51,68,o),
(51,50,cs),
(51,32,o),
(64,-14,o),
(133,-14,cs)
);
}
);
width = 552;
}
);
unicode = 960;
},
{
glyphname = zero;
kernLeft = "0";
kernRight = "0";
lastChange = "2024-08-06 02:25:19 +0000";
layers = (
{
layerId = m01;
shapes = (
{
closed = 1;
nodes = (
(395,-14,o),
(492,161,o),
(492,346,cs),
(492,525,o),
(401,707,o),
(268,707,cs),
(136,707,o),
(43,529,o),
(43,346,cs),
(43,157,o),
(143,-14,o),
(268,-14,cs)
);
},
{
closed = 1;
nodes = (
(172,27,o),
(146,184,o),
(146,349,cs),
(146,505,o),
(169,666,o),
(267,666,cs),
(349,666,o),
(389,553,o),
(389,347,cs),
(389,162,o),
(357,27,o),
(268,27,cs)
);
}
);
width = 535;
}
);
unicode = 48;
},
{
glyphname = one;
kernLeft = "1";
kernRight = "1";
lastChange = "2024-08-06 02:25:19 +0000";
layers = (
{
layerId = m01;
shapes = (
{
closed = 1;
nodes = (
(459,0,l),
(459,43,l),
(347,43,o),
(326,61,o),
(326,131,cs),
(326,714,l),
(249,682,o),
(187,658,o),
(93,639,c),
(93,599,l),
(230,599,o),
(237,595,o),
(237,511,cs),
(237,131,ls),
(237,61,o),
(216,43,o),
(104,43,c),
(104,0,l)
);
}
);
width = 535;
}
);
unicode = 49;
},
{
glyphname = two;
kernLeft = "2";
kernRight = "2";
lastChange = "2024-08-06 02:25:19 +0000";
layers = (
{
layerId = m01;
shapes = (
{
closed = 1;
nodes = (
(436,0,l),
(480,190,l),
(441,201,l),
(408,109,o),
(387,81,o),
(322,81,cs),
(125,81,l),
(163,136,o),
(201,182,o),
(274,248,cs),
(374,338,o),
(475,410,o),
(475,524,cs),
(475,623,o),
(400,707,o),
(276,707,cs),
(142,707,o),
(65,609,o),
(65,535,cs),
(65,498,o),
(84,458,o),
(124,458,cs),
(160,458,o),
(179,489,o),
(179,518,cs),
(179,549,o),
(157,567,o),
(157,593,cs),
(157,631,o),
(203,662,o),
(257,662,cs),
(317,662,o),
(372,623,o),
(372,535,cs),
(372,423,o),
(280,349,o),
(219,279,cs),
(152,202,o),
(92,137,o),
(42,39,c),
(42,0,l)
);
}
);
width = 535;
}
);
unicode = 50;
},
{
glyphname = three;
kernLeft = "3";
kernRight = "3";
lastChange = "2024-08-06 02:25:21 +0000";
layers = (
{
layerId = m01;
shapes = (
{
closed = 1;
nodes = (
(404,-14,o),
(488,86,o),
(488,184,cs),
(488,245,o),
(455,296,o),
(420,326,cs),
(391,351,o),
(360,363,o),
(307,370,c),
(391,387,o),
(464,452,o),
(464,543,cs),
(464,638,o),
(383,707,o),
(271,707,cs),
(164,707,o),
(63,645,o),
(63,570,cs),
(63,537,o),
(82,508,o),
(118,508,cs),
(151,508,o),
(173,533,o),
(173,563,cs),
(173,576,o),
(169,590,o),
(169,603,cs),
(169,640,o),
(203,663,o),
(254,663,cs),
(327,663,o),
(363,615,o),
(363,539,cs),
(363,445,o),
(308,390,o),
(239,390,cs),
(197,392,ls),
(176,392,o),
(166,385,o),
(166,368,cs),
(166,350,o),
(177,344,o),
(199,344,cs),
(212,344,o),
(228,346,o),
(244,346,cs),
(345,346,o),
(381,268,o),
(381,186,cs),
(381,76,o),
(317,29,o),
(241,29,cs),
(183,29,o),
(152,56,o),
(152,84,cs),
(152,95,o),
(157,105,o),
(157,122,cs),
(157,152,o),
(142,185,o),
(100,185,cs),
(64,185,o),
(40,160,o),
(40,119,cs),
(40,29,o),
(158,-14,o),
(255,-14,cs)
);
}
);
width = 535;
}
);
unicode = 51;
},
{
glyphname = four;
kernLeft = "4";
kernRight = "4";
lastChange = "2024-08-06 02:25:19 +0000";
layers = (
{
layerId = m01;
shapes = (
{
closed = 1;
nodes = (
(459,0,l),
(459,43,l),
(377,43,o),
(384,61,o),
(384,131,cs),
(384,165,l),
(502,165,l),
(502,216,l),
(384,216,l),
(384,699,l),
(338,699,l),
(38,211,l),
(38,165,l),
(294,165,l),
(294,131,ls),
(294,57,o),
(294,43,o),
(211,43,c),
(211,0,l)
);
},
{
closed = 1;
nodes = (
(294,547,l),
(294,216,l),
(92,216,l)
);
}
);
width = 535;
}
);
unicode = 52;
},
{
glyphname = five;
kernLeft = "5";
kernRight = "5";
lastChange = "2024-08-06 02:25:19 +0000";
layers = (
{
layerId = m01;
shapes = (
{
closed = 1;
nodes = (
(399,-14,o),
(483,104,o),
(483,224,cs),
(483,292,o),
(456,349,o),
(418,386,cs),
(395,409,o),
(349,442,o),
(280,442,cs),
(212,442,o),
(163,410,o),
(136,385,c),
(146,613,l),
(435,613,l),
(451,692,l),
(102,692,l),
(94,476,ls),
(92,427,o),
(88,378,o),
(83,330,c),
(119,314,l),
(150,350,o),
(199,389,o),
(262,389,cs),
(358,389,o),
(381,300,o),
(381,215,cs),
(381,80,o),
(323,28,o),
(247,28,cs),
(191,28,o),
(161,56,o),
(161,83,cs),
(161,94,o),
(166,113,o),
(166,128,cs),
(166,159,o),
(146,185,o),
(114,185,cs),
(84,185,o),
(55,163,o),
(55,121,cs),
(55,52,o),
(131,-14,o),
(246,-14,cs)
);
}
);
width = 535;
}
);
unicode = 53;
},
{
glyphname = six;
kernLeft = "6";
kernRight = "6";
lastChange = "2024-08-06 02:25:19 +0000";
layers = (
{
layerId = m01;
shapes = (
{
closed = 1;
nodes = (
(394,-14,o),
(491,93,o),
(491,228,cs),
(491,334,o),
(431,443,o),
(316,443,cs),
(256,443,o),
(201,413,o),
(151,349,c),
(151,527,o),
(217,663,o),
(298,663,cs),
(371,663,o),
(340,555,o),
(412,555,cs),
(441,555,o),
(467,573,o),
(467,610,cs),
(467,675,o),
(385,707,o),
(322,707,cs),
(172,707,o),
(48,525,o),
(48,306,cs),
(48,120,o),
(137,-14,o),
(273,-14,cs)
);
},
{
closed = 1;
nodes = (
(240,24,o),
(211,41,o),
(191,71,cs),
(163,113,o),
(148,182,o),
(148,227,cs),
(148,250,o),
(148,265,o),
(149,279,c),
(171,343,o),
(232,384,o),
(288,384,cs),
(338,384,o),
(388,352,o),
(388,218,cs),
(388,76,o),
(332,24,o),
(273,24,cs)
);
}
);
width = 535;
}
);
unicode = 54;
},
{
glyphname = seven;
kernLeft = "7";
kernRight = "7";
lastChange = "2024-08-06 02:25:19 +0000";
layers = (
{
layerId = m01;
shapes = (
{
closed = 1;
nodes = (
(257,-14,o),
(284,3,o),
(284,66,cs),
(284,104,ls),
(284,243,o),
(397,475,o),
(491,645,c),
(491,692,l),
(107,692,l),
(59,490,l),
(96,478,l),
(145,604,o),
(146,613,o),
(224,613,cs),
(431,613,l),
(350,487,o),
(276,345,o),
(226,229,cs),
(198,164,o),
(174,99,o),
(174,54,cs),
(174,5,o),
(203,-14,o),
(231,-14,cs)
);
}
);
width = 535;
}
);
unicode = 55;
},
{
glyphname = eight;
kernLeft = "8";
kernRight = "8";
lastChange = "2024-08-06 02:25:19 +0000";
layers = (
{
layerId = m01;
shapes = (
{
closed = 1;
nodes = (
(392,-14,o),
(482,77,o),
(482,200,cs),
(482,290,o),
(434,348,o),
(341,388,c),
(403,414,o),
(463,468,o),
(463,546,cs),
(463,630,o),
(395,707,o),
(282,707,cs),
(166,707,o),
(82,627,o),
(82,521,cs),
(82,453,o),
(117,388,o),
(198,351,c),
(119,309,o),
(40,256,o),
(40,160,cs),
(40,56,o),
(132,-14,o),
(253,-14,cs)
);
},
{
closed = 1;
nodes = (
(178,27,o),
(131,85,o),
(131,165,cs),
(131,240,o),
(172,293,o),
(228,332,c),
(355,272,o),
(410,242,o),
(410,169,cs),
(410,98,o),
(359,27,o),
(264,27,cs)
);
},
{
closed = 1;
nodes = (
(206,450,o),
(150,485,o),
(150,554,cs),
(150,628,o),
(212,666,o),
(269,666,cs),
(324,666,o),
(385,631,o),
(385,546,cs),
(385,485,o),
(353,438,o),
(309,405,c)
);
}
);
width = 535;
}
);
unicode = 56;
},
{
glyphname = nine;
kernLeft = "9";
kernRight = "9";
lastChange = "2024-08-06 02:25:19 +0000";
layers = (
{
layerId = m01;
shapes = (
{
closed = 1;
nodes = (
(364,-14,o),
(486,168,o),
(486,386,cs),
(486,567,o),
(402,707,o),
(261,707,cs),
(129,707,o),
(44,584,o),
(44,459,cs),
(44,337,o),
(125,250,o),
(224,250,cs),
(293,250,o),
(348,293,o),
(389,354,c),
(383,176,o),
(322,32,o),
(236,32,cs),
(162,32,o),
(201,139,o),
(132,139,cs),
(103,139,o),
(71,121,o),
(71,83,cs),
(71,26,o),
(141,-14,o),
(212,-14,cs)
);
},
{
closed = 1;
nodes = (
(194,311,o),
(145,343,o),
(145,473,cs),
(145,591,o),
(186,666,o),
(259,666,cs),
(350,666,o),
(386,547,o),
(386,432,cs),
(386,404,l),
(355,349,o),
(311,311,o),
(250,311,cs)
);
}
);
width = 535;
}
);
unicode = 57;
},
{
glyphname = zero.osf;
lastChange = "2024-08-06 02:25:19 +0000";
layers = (
{
layerId = m01;
shapes = (
{
closed = 1;
nodes = (
(416,-14,o),
(520,112,o),
(520,250,cs),
(520,382,o),
(424,515,o),
(282,515,cs),
(141,515,o),
(43,383,o),
(43,249,cs),
(43,110,o),
(149,-14,o),
(282,-14,cs)
);
},
{
closed = 1;
nodes = (
(166,30,o),
(137,139,o),
(137,252,cs),
(137,361,o),
(164,470,o),
(280,470,cs),
(378,470,o),
(426,393,o),
(426,250,cs),
(426,121,o),
(387,30,o),
(281,30,cs)
);
}
);
width = 563;
}
);
},
{
glyphname = one.osf;
lastChange = "2024-08-06 02:25:19 +0000";
layers = (
{
layerId = m01;
shapes = (
{
closed = 1;
nodes = (
(389,0,l),
(389,43,l),
(277,43,o),
(256,50,o),
(256,120,cs),
(256,522,l),
(178,491,o),
(123,467,o),
(29,448,c),
(29,408,l),
(166,408,o),
(173,403,o),
(173,320,cs),
(173,120,ls),
(173,50,o),
(152,43,o),
(40,43,c),
(40,0,l)
);
}
);
width = 401;
}
);
},
{
glyphname = two.osf;
lastChange = "2024-08-06 02:25:19 +0000";
layers = (
{
layerId = m01;
shapes = (
{
closed = 1;
nodes = (
(432,0,l),
(478,190,l),
(438,201,l),
(404,109,o),
(387,81,o),
(322,81,cs),
(125,81,l),
(176,132,o),
(209,156,o),
(255,183,cs),
(358,244,o),
(450,275,o),
(450,363,cs),
(450,438,o),
(383,522,o),
(259,522,cs),
(117,522,o),
(48,413,o),
(48,345,cs),
(48,309,o),
(67,268,o),
(107,268,cs),
(142,268,o),
(162,299,o),
(162,325,cs),
(162,353,o),
(139,383,o),
(139,407,cs),
(139,439,o),
(181,485,o),
(242,485,cs),
(305,485,o),
(356,437,o),
(356,373,cs),
(356,295,o),
(282,254,o),
(201,196,cs),
(131,146,o),
(66,91,o),
(25,39,c),
(25,0,l)
);
}
);
width = 516;
}
);
},
{
glyphname = three.osf;
lastChange = "2024-08-06 02:25:21 +0000";
layers = (
{
layerId = m01;
shapes = (
{
closed = 1;
nodes = (
(385,-206,o),
(468,-106,o),
(468,-8,cs),
(468,53,o),
(435,106,o),
(398,136,cs),
(370,159,o),
(338,171,o),
(288,177,c),
(372,195,o),
(444,259,o),
(444,349,cs),
(444,446,o),
(363,515,o),
(251,515,cs),
(144,515,o),
(43,452,o),
(43,377,cs),
(43,344,o),
(63,316,o),
(98,316,cs),
(132,316,o),
(154,341,o),
(154,370,cs),
(154,384,o),
(149,397,o),
(149,411,cs),
(149,448,o),
(184,470,o),
(234,470,cs),
(307,470,o),
(344,423,o),
(344,346,cs),
(344,254,o),
(290,198,o),
(219,198,cs),
(178,200,ls),
(157,200,o),
(147,192,o),
(147,176,cs),
(147,159,o),
(157,151,o),
(179,151,cs),
(193,151,o),
(207,154,o),
(226,154,cs),
(325,154,o),
(361,76,o),
(361,-7,cs),
(361,-117,o),
(297,-163,o),
(221,-163,cs),
(163,-163,o),
(133,-136,o),
(133,-108,cs),
(133,-98,o),
(137,-87,o),
(137,-71,cs),
(137,-41,o),
(123,-8,o),
(80,-8,cs),
(44,-8,o),
(21,-32,o),
(21,-72,cs),
(21,-163,o),
(138,-206,o),
(236,-206,cs)
);
}
);
width = 507;
}
);
},
{
glyphname = four.osf;
lastChange = "2024-08-06 02:25:19 +0000";
layers = (
{
layerId = m01;
shapes = (
{
closed = 1;
nodes = (
(371,-184,l),
(371,14,l),
(489,14,l),
(489,65,l),
(371,65,l),
(371,522,l),
(325,522,l),
(11,59,l),
(11,14,l),
(281,14,l),
(281,-184,l)
);
},
{
closed = 1;
nodes = (
(281,373,l),
(281,65,l),
(69,65,l)
);
}
);
width = 510;
}
);
},
{
glyphname = five.osf;
lastChange = "2024-08-06 02:25:19 +0000";
layers = (
{
layerId = m01;
shapes = (
{
closed = 1;
nodes = (
(384,-205,o),
(468,-87,o),
(468,33,cs),
(468,101,o),
(441,158,o),
(403,195,cs),
(380,217,o),
(334,251,o),
(265,251,cs),
(197,251,o),
(148,218,o),
(121,194,c),
(131,422,l),
(419,422,l),
(436,501,l),
(86,501,l),
(79,284,ls),
(77,236,o),
(72,187,o),
(68,138,c),
(104,122,l),
(137,161,o),
(185,198,o),
(247,198,cs),
(343,198,o),
(365,108,o),
(365,24,cs),
(365,-111,o),
(308,-163,o),
(232,-163,cs),
(177,-163,o),
(146,-136,o),
(146,-107,cs),
(146,-96,o),
(151,-78,o),
(151,-63,cs),
(151,-31,o),
(130,-6,o),
(98,-6,cs),
(68,-6,o),
(40,-28,o),
(40,-70,cs),
(40,-140,o),
(116,-205,o),
(230,-205,cs)
);
}
);
width = 504;
}
);
},
{
glyphname = six.osf;
lastChange = "2024-08-06 02:25:19 +0000";
layers = (
{
layerId = m01;
shapes = (
{
closed = 1;
nodes = (
(387,-14,o),
(484,93,o),
(484,228,cs),
(484,334,o),
(425,443,o),
(310,443,cs),
(250,443,o),
(196,414,o),
(145,349,c),
(145,525,o),
(210,663,o),
(292,663,cs),
(365,663,o),
(333,555,o),
(405,555,cs),
(435,555,o),
(461,573,o),
(461,610,cs),
(461,676,o),
(376,707,o),
(315,707,cs),
(166,707,o),
(41,526,o),
(41,306,cs),
(41,120,o),
(130,-14,o),
(266,-14,cs)
);
},
{
closed = 1;
nodes = (
(232,24,o),
(205,41,o),
(185,71,cs),
(157,113,o),
(142,182,o),
(142,227,cs),
(142,250,o),
(142,265,o),
(143,279,c),
(164,343,o),
(226,384,o),
(282,384,cs),
(332,384,o),
(382,352,o),
(382,218,cs),
(382,75,o),
(325,24,o),
(266,24,cs)
);
}
);
width = 524;
}
);
},
{
glyphname = seven.osf;
lastChange = "2024-08-06 02:25:19 +0000";
layers = (
{
layerId = m01;
shapes = (
{
closed = 1;
nodes = (
(216,-205,o),
(243,-188,o),
(243,-125,cs),
(243,-88,ls),
(243,52,o),
(356,283,o),
(450,454,c),
(450,501,l),
(66,501,l),
(18,298,l),
(55,286,l),
(104,413,o),
(105,422,o),
(183,422,cs),
(390,422,l),
(315,305,o),
(241,167,o),
(185,37,cs),
(154,-35,o),
(133,-94,o),
(133,-136,cs),
(133,-186,o),
(162,-205,o),
(190,-205,cs)
);
}
);
width = 453;
}
);
},
{
glyphname = eight.osf;
lastChange = "2024-08-06 02:25:19 +0000";
layers = (
{
layerId = m01;
shapes = (
{
closed = 1;
nodes = (
(379,-14,o),
(469,77,o),
(469,200,cs),
(469,290,o),
(421,348,o),
(328,388,c),
(390,414,o),
(450,468,o),
(450,546,cs),
(450,630,o),
(382,707,o),
(269,707,cs),
(154,707,o),
(69,627,o),
(69,521,cs),
(69,453,o),
(104,388,o),
(185,351,c),
(106,309,o),
(27,256,o),
(27,160,cs),
(27,56,o),
(119,-14,o),
(240,-14,cs)
);
},
{
closed = 1;
nodes = (
(165,27,o),
(118,85,o),
(118,165,cs),
(118,240,o),
(159,293,o),
(215,332,c),
(342,272,o),
(397,242,o),
(397,169,cs),
(397,98,o),
(346,27,o),
(251,27,cs)
);
},
{
closed = 1;
nodes = (
(194,450,o),
(137,485,o),
(137,555,cs),
(137,628,o),
(199,666,o),
(256,666,cs),
(311,666,o),
(372,631,o),
(372,546,cs),
(372,485,o),
(340,438,o),
(296,405,c)
);
}
);
width = 509;
}
);
},
{
glyphname = nine.osf;
lastChange = "2024-08-06 02:25:19 +0000";
layers = (
{
layerId = m01;
shapes = (
{
closed = 1;
nodes = (
(360,-206,o),
(482,-24,o),
(482,194,cs),
(482,375,o),
(398,515,o),
(257,515,cs),
(124,515,o),
(40,391,o),
(40,267,cs),
(40,145,o),
(121,57,o),
(219,57,cs),
(289,57,o),
(344,101,o),
(385,161,c),
(378,-16,o),
(318,-160,o),
(232,-160,cs),
(158,-160,o),
(197,-53,o),
(127,-53,cs),
(98,-53,o),
(67,-71,o),
(67,-109,cs),
(67,-166,o),
(136,-206,o),
(207,-206,cs)
);
},
{
closed = 1;
nodes = (
(189,119,o),
(141,150,o),
(141,279,cs),
(141,399,o),
(182,474,o),
(255,474,cs),
(346,474,o),
(382,355,o),
(382,240,cs),
(382,212,l),
(350,157,o),
(307,119,o),
(245,119,cs)
);
}
);
width = 525;
}
);
},
{
glyphname = fraction;
lastChange = "2024-08-06 02:25:19 +0000";
layers = (
{
layerId = m01;
shapes = (
{
closed = 1;
nodes = (
(-116,0,l),
(238,692,l),
(188,692,l),
(-165,0,l)
);
}
);
width = 71;
}
);
unicode = 8260;
},
{
glyphname = zerosuperior;
lastChange = "2024-08-06 02:25:19 +0000";
layers = (
{
layerId = m01;
shapes = (
{
closed = 1;
nodes = (
(259,318,o),
(322,423,o),
(322,534,cs),
(322,641,o),
(263,751,o),
(177,751,cs),
(92,751,o),
(32,644,o),
(32,534,cs),
(32,420,o),
(97,318,o),
(177,318,cs)
);
},
{
closed = 1;
nodes = (
(121,349,o),
(105,440,o),
(105,537,cs),
(105,627,o),
(119,719,o),
(177,719,cs),
(226,719,o),
(250,654,o),
(250,534,cs),
(250,427,o),
(231,349,o),
(178,349,cs)
);
}
);
width = 355;
}
);
unicode = 8304;
},
{
glyphname = onesuperior;
lastChange = "2024-08-06 02:25:19 +0000";
layers = (
{
layerId = m01;
shapes = (
{
closed = 1;
nodes = (
(303,327,l),
(303,359,l),
(229,359,o),
(218,371,o),
(218,412,cs),
(218,757,l),
(168,739,o),
(124,721,o),
(64,711,c),
(64,680,l),
(152,680,o),
(155,678,o),
(155,628,cs),
(155,412,ls),
(155,371,o),
(144,359,o),
(70,359,c),
(70,327,l)
);
}
);
width = 355;
}
);
unicode = 185;
},
{
glyphname = twosuperior;
lastChange = "2024-08-06 02:25:19 +0000";
layers = (
{
layerId = m01;
shapes = (
{
closed = 1;
nodes = (
(288,327,l),
(317,446,l),
(284,453,l),
(267,398,o),
(251,382,o),
(210,382,cs),
(95,382,l),
(121,417,o),
(144,441,o),
(185,475,cs),
(252,531,o),
(312,569,o),
(312,639,cs),
(312,701,o),
(265,751,o),
(185,751,cs),
(97,751,o),
(46,691,o),
(46,647,cs),
(46,623,o),
(62,597,o),
(88,597,cs),
(109,597,o),
(126,615,o),
(126,634,cs),
(126,651,o),
(111,667,o),
(111,681,cs),
(111,700,o),
(138,717,o),
(174,717,cs),
(211,717,o),
(240,699,o),
(240,647,cs),
(240,584,o),
(196,551,o),
(148,501,cs),
(101,453,o),
(50,389,o),
(32,354,c),
(32,327,l)
);
}
);
width = 355;
}
);
unicode = 178;
},
{
glyphname = threesuperior;
lastChange = "2024-08-06 02:25:19 +0000";
layers = (
{
layerId = m01;
shapes = (
{
closed = 1;
nodes = (
(267,317,o),
(320,376,o),
(320,439,cs),
(320,473,o),
(305,500,o),
(279,522,cs),
(262,536,o),
(249,543,o),
(222,548,c),
(272,568,o),
(305,597,o),
(305,647,cs),
(305,709,o),
(254,751,o),
(180,751,cs),
(112,751,o),
(44,715,o),
(44,664,cs),
(44,646,o),
(53,626,o),
(84,626,cs),
(112,626,o),
(121,643,o),
(121,661,cs),
(121,670,o),
(119,680,o),
(119,688,cs),
(119,711,o),
(138,717,o),
(163,717,cs),
(215,717,o),
(235,691,o),
(235,649,cs),
(235,594,o),
(202,563,o),
(161,564,cs),
(131,565,ls),
(119,565,o),
(110,556,o),
(110,546,cs),
(110,535,o),
(119,529,o),
(132,529,cs),
(163,530,ls),
(224,532,o),
(245,489,o),
(245,437,cs),
(245,371,o),
(210,349,o),
(159,349,cs),
(122,349,o),
(108,361,o),
(108,377,cs),
(108,384,o),
(111,399,o),
(111,408,cs),
(111,426,o),
(97,442,o),
(69,442,cs),
(39,442,o),
(30,423,o),
(30,402,cs),
(30,343,o),
(102,317,o),
(168,317,cs)
);
}
);
width = 355;
}
);
unicode = 179;
},
{
glyphname = foursuperior;
lastChange = "2024-08-06 02:25:19 +0000";
layers = (
{
layerId = m01;
shapes = (
{
closed = 1;
nodes = (
(302,327,l),
(302,359,l),
(249,359,o),
(254,366,o),
(254,408,cs),
(254,424,l),
(329,424,l),
(329,461,l),
(254,461,l),
(254,746,l),
(221,746,l),
(29,455,l),
(29,424,l),
(190,424,l),
(190,408,ls),
(190,364,o),
(192,359,o),
(138,359,c),
(138,327,l)
);
},
{
closed = 1;
nodes = (
(190,640,l),
(190,461,l),
(74,461,l)
);
}
);
width = 355;
}
);
unicode = 8308;
},
{
glyphname = fivesuperior;
lastChange = "2024-08-06 02:25:19 +0000";
layers = (
{
layerId = m01;
shapes = (
{
closed = 1;
nodes = (
(262,317,o),
(317,390,o),
(317,463,cs),
(317,504,o),
(300,537,o),
(272,562,cs),
(256,576,o),
(229,595,o),
(185,595,cs),
(143,595,o),
(116,578,o),
(98,565,c),
(104,688,l),
(285,688,l),
(297,742,l),
(70,742,l),
(64,621,ls),
(63,591,o),
(59,552,o),
(57,522,c),
(85,511,l),
(105,532,o),
(133,557,o),
(174,557,cs),
(232,557,o),
(244,509,o),
(244,460,cs),
(244,380,o),
(213,348,o),
(162,348,cs),
(129,348,o),
(114,362,o),
(114,377,cs),
(114,385,o),
(118,398,o),
(118,408,cs),
(118,428,o),
(101,442,o),
(77,442,cs),
(48,442,o),
(40,421,o),
(40,402,cs),
(40,353,o),
(94,317,o),
(163,317,cs)
);
}
);
width = 355;
}
);
unicode = 8309;
},
{
glyphname = sixsuperior;
lastChange = "2024-08-06 02:25:19 +0000";
layers = (
{
layerId = m01;
shapes = (
{
closed = 1;
nodes = (
(260,318,o),
(322,383,o),
(322,464,cs),
(322,528,o),
(284,595,o),
(209,595,cs),
(171,595,o),
(139,578,o),
(108,546,c),
(108,632,o),
(150,717,o),
(200,717,cs),
(243,717,o),
(217,653,o),
(270,653,cs),
(296,653,o),
(308,668,o),
(308,688,cs),
(308,729,o),
(260,751,o),
(216,751,cs),
(118,751,o),
(37,643,o),
(37,510,cs),
(37,399,o),
(94,318,o),
(182,318,cs)
);
},
{
closed = 1;
nodes = (
(163,347,o),
(146,355,o),
(134,371,cs),
(110,403,o),
(107,464,o),
(107,494,c),
(121,526,o),
(153,553,o),
(190,553,cs),
(221,553,o),
(250,534,o),
(250,456,cs),
(250,378,o),
(221,347,o),
(183,347,cs)
);
}
);
width = 355;
}
);
unicode = 8310;
},
{
glyphname = sevensuperior;
lastChange = "2024-08-06 02:25:21 +0000";
layers = (
{
layerId = m01;
shapes = (
{
closed = 1;
nodes = (
(173,318,o),
(192,328,o),
(192,369,cs),
(191,392,ls),
(191,470,o),
(259,605,o),
(322,711,c),
(322,742,l),
(74,742,l),
(42,616,l),
(72,608,l),
(104,684,o),
(102,688,o),
(152,688,cs),
(275,688,l),
(221,608,o),
(178,531,o),
(151,473,cs),
(131,430,o),
(115,387,o),
(115,359,cs),
(115,330,o),
(132,318,o),
(153,318,cs)
);
}
);
width = 355;
}
);
unicode = 8311;
},
{
glyphname = eightsuperior;
lastChange = "2024-08-06 02:25:19 +0000";
layers = (
{
layerId = m01;
shapes = (
{
closed = 1;
nodes = (
(258,318,o),
(317,371,o),
(317,447,cs),
(317,500,o),
(289,534,o),
(234,559,c),
(272,575,o),
(305,607,o),
(305,652,cs),
(305,706,o),
(259,751,o),
(186,751,cs),
(110,751,o),
(58,701,o),
(58,636,cs),
(58,599,o),
(75,565,o),
(126,538,c),
(78,513,o),
(31,480,o),
(31,424,cs),
(31,359,o),
(91,318,o),
(169,318,cs)
);
},
{
closed = 1;
nodes = (
(120,349,o),
(96,384,o),
(96,429,cs),
(96,469,o),
(115,497,o),
(154,522,c),
(235,487,o),
(264,467,o),
(264,429,cs),
(264,392,o),
(237,349,o),
(175,349,cs)
);
},
{
closed = 1;
nodes = (
(140,600,o),
(109,618,o),
(109,656,cs),
(109,696,o),
(142,719,o),
(180,719,cs),
(215,719,o),
(249,700,o),
(249,651,cs),
(249,620,o),
(235,598,o),
(204,573,c)
);
}
);
width = 355;
}
);
unicode = 8312;
},
{
glyphname = ninesuperior;
lastChange = "2024-08-06 02:25:19 +0000";
layers = (
{
layerId = m01;
shapes = (
{
closed = 1;
nodes = (
(238,318,o),
(320,427,o),
(320,558,cs),
(320,669,o),
(262,751,o),
(175,751,cs),
(96,751,o),
(34,685,o),
(34,604,cs),
(34,541,o),
(71,474,o),
(147,474,cs),
(185,474,o),
(216,491,o),
(248,522,c),
(248,435,o),
(205,352,o),
(156,352,cs),
(113,352,o),
(138,415,o),
(85,415,cs),
(59,415,o),
(48,400,o),
(48,380,cs),
(48,340,o),
(96,318,o),
(139,318,cs)
);
},
{
closed = 1;
nodes = (
(134,516,o),
(106,534,o),
(106,612,cs),
(106,691,o),
(135,721,o),
(174,721,cs),
(191,721,o),
(209,715,o),
(222,698,cs),
(248,664,o),
(249,592,o),
(249,574,c),
(234,541,o),
(202,516,o),
(165,516,cs)
);
}
);
width = 355;
}
);
unicode = 8313;
},
{
glyphname = period;
kernLeft = period;
kernRight = period;
lastChange = "2024-08-06 02:25:19 +0000";
layers = (
{
layerId = m01;
shapes = (
{
closed = 1;
nodes = (
(171,-14,o),
(202,15,o),
(202,55,cs),
(202,95,o),
(171,123,o),
(134,123,cs),
(97,123,o),
(65,95,o),
(65,55,cs),
(65,15,o),
(97,-14,o),
(134,-14,cs)
);
}
);
width = 267;
}
);
unicode = 46;
},
{
glyphname = comma;
kernLeft = comma;
kernRight = comma;
lastChange = "2024-08-06 02:25:19 +0000";
layers = (
{
layerId = m01;
shapes = (
{
closed = 1;
nodes = (
(126,-112,o),
(201,-33,o),
(201,44,cs),
(201,97,o),
(165,123,o),
(131,123,cs),
(101,123,o),
(69,102,o),
(69,60,cs),
(69,4,o),
(125,6,o),
(125,-24,cs),
(125,-50,o),
(85,-98,o),
(57,-129,c),
(83,-156,l)
);
}
);
width = 267;
}
);
unicode = 44;
},
{
glyphname = colon;
kernLeft = colon;
kernRight = colon;
lastChange = "2024-08-06 02:25:19 +0000";
layers = (
{
layerId = m01;
shapes = (
{
closed = 1;
nodes = (
(171,346,o),
(202,375,o),
(202,415,cs),
(202,455,o),
(171,483,o),
(134,483,cs),
(97,483,o),
(65,455,o),
(65,415,cs),
(65,375,o),
(97,346,o),
(134,346,cs)
);
},
{
closed = 1;
nodes = (
(171,-14,o),
(202,15,o),
(202,55,cs),
(202,95,o),
(171,123,o),
(134,123,cs),
(97,123,o),
(65,95,o),
(65,55,cs),
(65,15,o),
(97,-14,o),
(134,-14,cs)
);
}
);
width = 267;
}
);
unicode = 58;
},
{
glyphname = semicolon;
lastChange = "2024-08-06 02:25:19 +0000";
layers = (
{
layerId = m01;
shapes = (
{
closed = 1;
nodes = (
(126,-112,o),
(201,-33,o),
(201,44,cs),
(201,97,o),
(165,123,o),
(131,123,cs),
(101,123,o),
(69,102,o),
(69,60,cs),
(69,4,o),
(125,6,o),
(125,-24,cs),
(125,-50,o),
(85,-98,o),
(57,-129,c),
(83,-156,l)
);
},
{
closed = 1;
nodes = (
(171,346,o),
(202,375,o),
(202,415,cs),
(202,455,o),
(171,483,o),
(134,483,cs),
(97,483,o),
(65,455,o),
(65,415,cs),
(65,375,o),
(97,346,o),
(134,346,cs)
);
}
);
width = 267;
}
);
unicode = 59;
},
{
glyphname = ellipsis;
kernLeft = period;
kernRight = period;
lastChange = "2024-08-06 02:25:19 +0000";
layers = (
{
layerId = m01;
shapes = (
{
closed = 1;
nodes = (
(704,-14,o),
(735,15,o),
(735,55,cs),
(735,95,o),
(704,123,o),
(667,123,cs),
(630,123,o),
(598,95,o),
(598,55,cs),
(598,15,o),
(630,-14,o),
(667,-14,cs)
);
},
{
closed = 1;
nodes = (
(171,-14,o),
(202,15,o),
(202,55,cs),
(202,95,o),
(171,123,o),
(134,123,cs),
(97,123,o),
(65,95,o),
(65,55,cs),
(65,15,o),
(97,-14,o),
(134,-14,cs)
);
},
{
closed = 1;
nodes = (
(438,-14,o),
(469,15,o),
(469,55,cs),
(469,95,o),
(438,123,o),
(401,123,cs),
(364,123,o),
(332,95,o),
(332,55,cs),
(332,15,o),
(364,-14,o),
(401,-14,cs)
);
}
);
width = 800;
}
);
unicode = 8230;
},
{
glyphname = exclam;
lastChange = "2024-08-06 02:25:19 +0000";
layers = (
{
layerId = m01;
shapes = (
{
closed = 1;
nodes = (
(169,202,l),
(169,270,ls),
(169,502,o),
(218,568,o),
(218,646,cs),
(218,715,o),
(180,735,o),
(147,735,cs),
(114,735,o),
(77,715,o),
(77,647,cs),
(77,568,o),
(126,502,o),
(126,270,cs),
(126,202,l)
);
},
{
closed = 1;
nodes = (
(185,-14,o),
(216,15,o),
(216,55,cs),
(216,95,o),
(185,123,o),
(148,123,cs),
(111,123,o),
(79,95,o),
(79,55,cs),
(79,15,o),
(111,-14,o),
(148,-14,cs)
);
}
);
width = 295;
}
);
unicode = 33;
},
{
glyphname = question;
lastChange = "2024-08-06 02:25:19 +0000";
layers = (
{
layerId = m01;
shapes = (
{
closed = 1;
nodes = (
(189,202,l),
(189,328,l),
(285,328,o),
(365,408,o),
(365,518,cs),
(365,637,o),
(272,735,o),
(167,735,cs),
(109,735,o),
(72,705,o),
(72,669,cs),
(72,650,o),
(83,616,o),
(118,616,cs),
(163,616,o),
(177,671,o),
(218,671,cs),
(251,671,o),
(291,634,o),
(291,560,cs),
(291,469,o),
(230,412,o),
(141,412,c),
(141,202,l)
);
},
{
closed = 1;
nodes = (
(199,-14,o),
(230,15,o),
(230,55,cs),
(230,95,o),
(199,123,o),
(162,123,cs),
(125,123,o),
(93,95,o),
(93,55,cs),
(93,15,o),
(125,-14,o),
(162,-14,cs)
);
}
);
width = 405;
}
);
unicode = 63;
},
{
glyphname = bullet;
lastChange = "2024-08-06 02:25:19 +0000";
layers = (
{
hints = (
{
horizontal = 1;
origin = (0,11);
target = (0,5);
type = Stem;
},
{
origin = (0,8);
target = (0,2);
type = Stem;
}
);
layerId = m01;
shapes = (
{
closed = 1;
nodes = (
(374,188,o),
(459,275,o),
(459,378,cs),
(459,482,o),
(374,566,o),
(270,566,cs),
(166,566,o),
(81,482,o),
(81,378,cs),
(81,275,o),
(166,188,o),
(270,188,cs)
);
}
);
width = 541;
}
);
unicode = 8226;
},
{
glyphname = asterisk;
lastChange = "2024-08-06 02:25:19 +0000";
layers = (
{
layerId = m01;
shapes = (
{
closed = 1;
nodes = (
(168,408,o),
(182,414,o),
(192,428,cs),
(210,453,o),
(208,493,o),
(237,533,c),
(266,493,o),
(266,450,o),
(282,428,cs),
(292,414,o),
(306,408,o),
(319,408,cs),
(327,408,o),
(335,410,o),
(342,415,cs),
(351,422,o),
(357,434,o),
(357,447,cs),
(357,457,o),
(354,468,o),
(347,477,cs),
(331,498,o),
(291,510,o),
(262,550,c),
(281,556,o),
(299,558,o),
(316,558,cs),
(349,557,ls),
(359,557,o),
(368,558,o),
(375,560,cs),
(393,565,o),
(408,583,o),
(408,601,cs),
(408,622,o),
(388,640,o),
(364,640,cs),
(359,640,o),
(355,639,o),
(350,638,c),
(324,629,o),
(299,594,o),
(252,578,c),
(252,628,o),
(278,662,o),
(278,691,cs),
(278,715,o),
(260,735,o),
(238,735,cs),
(216,735,o),
(197,716,o),
(197,691,cs),
(197,662,o),
(223,628,o),
(223,578,c),
(175,594,o),
(150,629,o),
(124,638,c),
(119,639,o),
(114,640,o),
(109,640,cs),
(86,640,o),
(67,623,o),
(67,602,cs),
(67,586,o),
(79,566,o),
(99,560,cs),
(106,558,o),
(114,557,o),
(122,557,cs),
(157,558,ls),
(174,558,o),
(193,556,o),
(213,550,c),
(185,511,o),
(145,498,o),
(128,478,cs),
(120,469,o),
(117,457,o),
(117,447,cs),
(117,434,o),
(123,422,o),
(132,415,cs),
(138,410,o),
(146,408,o),
(155,408,cs)
);
}
);
width = 475;
}
);
unicode = 42;
},
{
glyphname = numbersign;
lastChange = "2024-08-06 02:25:19 +0000";
layers = (
{
hints = (
{
horizontal = 1;
origin = (0,27);
target = up;
type = BottomGhost;
},
{
horizontal = 1;
origin = (0,25);
target = (0,24);
type = Stem;
},
{
horizontal = 1;
origin = (0,21);
target = (0,20);
type = Stem;
}
);
layerId = m01;
shapes = (
{
closed = 1;
nodes = (
(177,0,l),
(211,236,l),
(350,236,l),
(317,0,l),
(384,0,l),
(417,236,l),
(537,236,l),
(537,294,l),
(425,294,l),
(448,452,l),
(570,452,l),
(570,510,l),
(455,510,l),
(489,746,l),
(423,746,l),
(389,510,l),
(249,510,l),
(282,746,l),
(216,746,l),
(183,510,l),
(59,510,l),
(59,452,l),
(175,452,l),
(152,294,l),
(31,294,l),
(31,236,l),
(144,236,l),
(110,0,l)
);
},
{
closed = 1;
nodes = (
(241,452,l),
(382,452,l),
(359,294,l),
(218,294,l)
);
}
);
width = 601;
}
);
unicode = 35;
},
{
glyphname = slash;
lastChange = "2024-08-06 02:25:19 +0000";
layers = (
{
layerId = m01;
shapes = (
{
closed = 1;
nodes = (
(45,-181,l),
(320,721,l),
(261,721,l),
(-12,-181,l)
);
}
);
width = 363;
}
);
unicode = 47;
},
{
glyphname = hyphen;
lastChange = "2024-08-06 02:25:19 +0000";
layers = (
{
layerId = m01;
shapes = (
{
closed = 1;
nodes = (
(209,200,l),
(209,277,l),
(0,277,l),
(0,200,l)
);
}
);
width = 209;
}
);
unicode = 45;
},
{
glyphname = endash;
lastChange = "2024-08-06 02:25:19 +0000";
layers = (
{
layerId = m01;
shapes = (
{
closed = 1;
nodes = (
(491,209,l),
(491,268,l),
(44,268,l),
(44,209,l)
);
}
);
width = 535;
}
);
unicode = 8211;
},
{
glyphname = emdash;
lastChange = "2024-08-06 02:25:19 +0000";
layers = (
{
layerId = m01;
shapes = (
{
closed = 1;
nodes = (
(627,209,l),
(627,268,l),
(0,268,l),
(0,209,l)
);
}
);
width = 627;
}
);
unicode = 8212;
},
{
glyphname = underscore;
lastChange = "2024-08-06 02:25:19 +0000";
layers = (
{
layerId = m01;
shapes = (
{
closed = 1;
nodes = (
(517,-145,l),
(517,-95,l),
(23,-95,l),
(23,-145,l)
);
}
);
width = 541;
}
);
unicode = 95;
},
{
glyphname = parenleft;
lastChange = "2024-08-06 02:25:19 +0000";
layers = (
{
layerId = m01;
shapes = (
{
closed = 1;
nodes = (
(314,-156,l),
(214,-69,o),
(145,48,o),
(145,270,cs),
(145,493,o),
(214,610,o),
(314,696,c),
(314,735,l),
(208,674,o),
(57,534,o),
(57,270,cs),
(57,6,o),
(208,-133,o),
(314,-195,c)
);
}
);
width = 360;
}
);
unicode = 40;
},
{
glyphname = braceleft;
lastChange = "2024-08-06 02:25:19 +0000";
layers = (
{
layerId = m01;
shapes = (
{
closed = 1;
nodes = (
(435,-181,l),
(435,-138,l),
(298,-138,o),
(291,-86,o),
(291,4,cs),
(291,130,ls),
(291,256,o),
(265,261,o),
(208,285,c),
(255,310,o),
(291,310,o),
(291,410,cs),
(291,537,ls),
(291,628,o),
(298,679,o),
(435,679,c),
(435,721,l),
(409,721,ls),
(241,721,o),
(208,691,o),
(208,536,cs),
(208,488,o),
(211,429,o),
(211,400,cs),
(211,324,o),
(190,311,o),
(105,306,c),
(105,265,l),
(190,260,o),
(211,246,o),
(211,171,cs),
(211,142,o),
(208,53,o),
(208,4,cs),
(208,-151,o),
(242,-181,o),
(409,-181,cs)
);
}
);
width = 519;
}
);
unicode = 123;
},
{
glyphname = braceright;
lastChange = "2024-08-06 02:25:19 +0000";
layers = (
{
layerId = m01;
shapes = (
{
closed = 1;
nodes = (
(110,-181,ls),
(295,-181,o),
(311,-134,o),
(311,-2,cs),
(311,52,o),
(308,142,o),
(308,170,cs),
(308,247,o),
(330,260,o),
(414,265,c),
(414,306,l),
(330,311,o),
(308,323,o),
(308,400,cs),
(308,429,o),
(311,488,o),
(311,536,cs),
(311,691,o),
(279,721,o),
(110,721,cs),
(84,721,l),
(84,679,l),
(221,679,o),
(228,628,o),
(228,537,cs),
(228,410,ls),
(228,310,o),
(264,310,o),
(311,285,c),
(254,261,o),
(228,256,o),
(228,130,cs),
(228,4,ls),
(228,-86,o),
(221,-138,o),
(84,-138,c),
(84,-181,l)
);
}
);
width = 519;
}
);
unicode = 125;
},
{
glyphname = bracketleft;
lastChange = "2024-08-06 02:25:19 +0000";
layers = (
{
layerId = m01;
shapes = (
{
closed = 1;
nodes = (
(277,-181,l),
(277,-135,l),
(181,-135,l),
(181,676,l),
(271,676,l),
(271,721,l),
(97,721,l),
(97,-181,l)
);
}
);
width = 328;
}
);
unicode = 91;
},
{
glyphname = quotedblleft;
lastChange = "2024-08-06 02:25:19 +0000";
layers = (
{
layerId = m01;
shapes = (
{
closed = 1;
nodes = (
(165,456,o),
(197,478,o),
(197,520,cs),
(197,575,o),
(141,574,o),
(141,604,cs),
(141,629,o),
(182,678,o),
(209,708,c),
(183,735,l),
(136,689,o),
(65,611,o),
(65,536,cs),
(65,482,o),
(101,456,o),
(134,456,cs)
);
},
{
closed = 1;
nodes = (
(335,456,o),
(366,478,o),
(366,520,cs),
(366,576,o),
(310,574,o),
(310,603,cs),
(310,630,o),
(356,683,o),
(378,708,c),
(352,735,l),
(305,688,o),
(235,611,o),
(235,535,cs),
(235,482,o),
(270,456,o),
(304,456,cs)
);
}
);
width = 436;
}
);
unicode = 8220;
},
{
glyphname = quotedblright;
lastChange = "2024-08-06 02:25:19 +0000";
layers = (
{
layerId = m01;
shapes = (
{
closed = 1;
nodes = (
(296,499,o),
(371,579,o),
(371,656,cs),
(371,709,o),
(335,735,o),
(301,735,cs),
(270,735,o),
(239,714,o),
(239,672,cs),
(239,615,o),
(295,617,o),
(295,587,cs),
(295,562,o),
(254,513,o),
(227,483,c),
(253,456,l)
);
},
{
closed = 1;
nodes = (
(126,499,o),
(201,579,o),
(201,656,cs),
(201,709,o),
(165,735,o),
(131,735,cs),
(101,735,o),
(69,714,o),
(69,671,cs),
(69,615,o),
(125,617,o),
(125,587,cs),
(125,562,o),
(84,513,o),
(57,483,c),
(83,456,l)
);
}
);
width = 436;
}
);
unicode = 8221;
},
{
glyphname = quoteleft;
lastChange = "2024-08-06 02:25:19 +0000";
layers = (
{
layerId = m01;
shapes = (
{
closed = 1;
nodes = (
(165,456,o),
(197,478,o),
(197,520,cs),
(197,575,o),
(141,574,o),
(141,604,cs),
(141,629,o),
(182,678,o),
(209,708,c),
(183,735,l),
(136,689,o),
(65,611,o),
(65,536,cs),
(65,482,o),
(101,456,o),
(134,456,cs)
);
}
);
width = 267;
}
);
unicode = 8216;
},
{
glyphname = quoteright;
lastChange = "2024-08-06 02:25:19 +0000";
layers = (
{
layerId = m01;
shapes = (
{
closed = 1;
nodes = (
(126,501,o),
(201,580,o),
(201,657,cs),
(201,710,o),
(165,736,o),
(131,736,cs),
(101,736,o),
(69,715,o),
(69,673,cs),
(69,617,o),
(125,619,o),
(125,589,cs),
(125,563,o),
(85,515,o),
(57,484,c),
(83,457,l)
);
}
);
width = 267;
}
);
unicode = 8217;
},
{
glyphname = guilsinglleft;
lastChange = "2024-08-06 02:25:19 +0000";
layers = (
{
layerId = m01;
shapes = (
{
closed = 1;
nodes = (
(234,79,l),
(206,131,o),
(169,197,o),
(123,241,c),
(169,285,o),
(209,339,o),
(236,391,c),
(210,409,l),
(159,350,o),
(89,285,o),
(36,242,c),
(36,228,l),
(89,185,o),
(159,120,o),
(210,62,c)
);
}
);
width = 272;
}
);
unicode = 8249;
},
{
glyphname = quotedbl;
lastChange = "2024-08-06 02:25:19 +0000";
layers = (
{
layerId = m01;
shapes = (
{
closed = 1;
nodes = (
(275,468,l),
(275,532,o),
(315,624,o),
(315,674,cs),
(315,715,o),
(286,735,o),
(257,735,cs),
(228,735,o),
(201,715,o),
(201,674,cs),
(201,624,o),
(241,532,o),
(241,468,c)
);
},
{
closed = 1;
nodes = (
(117,468,l),
(117,532,o),
(157,624,o),
(157,674,cs),
(157,715,o),
(129,735,o),
(99,735,cs),
(70,735,o),
(43,715,o),
(43,674,cs),
(43,624,o),
(83,532,o),
(83,468,c)
);
}
);
width = 358;
}
);
unicode = 34;
},
{
glyphname = quotesingle;
lastChange = "2024-08-06 02:25:19 +0000";
layers = (
{
layerId = m01;
shapes = (
{
closed = 1;
nodes = (
(117,468,l),
(117,532,o),
(157,624,o),
(157,674,cs),
(157,715,o),
(129,735,o),
(99,735,cs),
(70,735,o),
(43,715,o),
(43,674,cs),
(43,624,o),
(83,532,o),
(83,468,c)
);
}
);
width = 200;
}
);
unicode = 39;
},
{
glyphname = florin;
lastChange = "2024-08-06 02:25:19 +0000";
layers = (
{
layerId = m01;
shapes = (
{
closed = 1;
nodes = (
(67,-145,o),
(122,-131,o),
(179,-67,cs),
(218,-23,o),
(242,26,o),
(265,155,cs),
(314,428,l),
(417,428,l),
(424,468,l),
(320,468,l),
(336,554,o),
(357,723,o),
(398,723,cs),
(416,723,o),
(426,689,o),
(460,689,cs),
(488,689,o),
(522,712,o),
(522,750,cs),
(522,776,o),
(506,794,o),
(467,794,cs),
(402,794,o),
(341,746,o),
(306,698,cs),
(268,646,o),
(245,583,o),
(230,468,c),
(161,468,l),
(154,428,l),
(223,428,l),
(165,99,ls),
(153,29,o),
(135,-75,o),
(101,-75,cs),
(82,-75,o),
(75,-40,o),
(39,-40,cs),
(6,-40,o),
(-23,-69,o),
(-23,-102,cs),
(-23,-126,o),
(-8,-145,o),
(32,-145,cs)
);
}
);
width = 535;
}
);
unicode = 402;
},
{
glyphname = at;
lastChange = "2024-08-06 02:25:19 +0000";
layers = (
{
layerId = m01;
shapes = (
{
closed = 1;
nodes = (
(505,-14,o),
(583,37,o),
(655,96,c),
(634,125,l),
(565,76,o),
(492,29,o),
(394,29,cs),
(236,29,o),
(98,151,o),
(98,333,cs),
(98,548,o),
(292,691,o),
(466,691,cs),
(599,691,o),
(718,607,o),
(718,458,cs),
(718,317,o),
(610,206,o),
(548,206,cs),
(531,206,o),
(523,214,o),
(523,230,cs),
(523,243,o),
(528,261,o),
(531,277,cs),
(549,372,o),
(572,466,o),
(598,561,c),
(530,561,l),
(518,520,l),
(507,550,o),
(480,562,o),
(450,562,cs),
(343,562,o),
(244,405,o),
(244,291,cs),
(244,211,o),
(292,159,o),
(348,159,cs),
(399,159,o),
(435,201,o),
(455,238,c),
(454,219,ls),
(452,181,o),
(473,159,o),
(523,159,cs),
(651,159,o),
(769,303,o),
(769,459,cs),
(769,625,o),
(637,736,o),
(464,736,cs),
(261,736,o),
(43,582,o),
(43,335,cs),
(43,120,o),
(207,-14,o),
(391,-14,cs)
);
},
{
closed = 1;
nodes = (
(324,199,o),
(319,235,o),
(319,263,cs),
(319,370,o),
(389,528,o),
(453,528,cs),
(477,528,o),
(494,505,o),
(494,466,cs),
(494,386,o),
(421,199,o),
(354,199,cs)
);
}
);
width = 812;
}
);
unicode = 64;
},
{
glyphname = ampersand;
lastChange = "2024-08-06 02:25:19 +0000";
layers = (
{
layerId = m01;
shapes = (
{
closed = 1;
nodes = (
(381,-14,o),
(457,26,o),
(495,46,c),
(521,17,o),
(565,-14,o),
(629,-14,cs),
(724,-14,o),
(783,53,o),
(822,114,c),
(786,135,l),
(754,96,o),
(706,54,o),
(656,54,cs),
(617,54,o),
(584,79,o),
(562,99,c),
(665,192,o),
(673,253,o),
(703,324,cs),
(714,349,o),
(735,391,o),
(802,391,c),
(802,431,l),
(547,431,l),
(547,391,l),
(614,391,o),
(640,362,o),
(640,316,cs),
(640,276,o),
(620,244,o),
(610,225,cs),
(591,189,o),
(559,158,o),
(534,134,c),
(465,227,o),
(410,319,o),
(366,412,c),
(471,455,o),
(579,499,o),
(579,600,cs),
(579,685,o),
(503,735,o),
(408,735,cs),
(304,735,o),
(213,675,o),
(213,571,cs),
(213,515,o),
(240,462,o),
(259,409,c),
(158,372,o),
(44,298,o),
(44,182,cs),
(44,71,o),
(149,-14,o),
(287,-14,cs)
);
},
{
closed = 1;
nodes = (
(215,45,o),
(157,127,o),
(157,206,cs),
(157,291,o),
(225,345,o),
(277,373,c),
(316,286,o),
(372,177,o),
(463,81,c),
(427,63,o),
(370,45,o),
(321,45,cs)
);
},
{
closed = 1;
nodes = (
(332,484,o),
(301,542,o),
(301,591,cs),
(301,657,o),
(355,699,o),
(411,699,cs),
(453,699,o),
(507,675,o),
(507,616,cs),
(507,550,o),
(439,501,o),
(348,451,c)
);
}
);
width = 841;
}
);
unicode = 38;
},
{
glyphname = paragraph;
lastChange = "2024-08-06 02:25:19 +0000";
layers = (
{
layerId = m01;
shapes = (
{
closed = 1;
nodes = (
(288,-181,l),
(288,679,l),
(378,679,l),
(378,-181,l),
(541,-181,l),
(541,-138,l),
(518,-138,ls),
(464,-138,o),
(446,-128,o),
(446,-50,cs),
(446,599,ls),
(446,662,o),
(462,679,o),
(517,679,cs),
(541,679,l),
(541,721,l),
(219,721,ls),
(97,721,o),
(36,658,o),
(36,526,cs),
(36,395,o),
(97,332,o),
(219,332,c),
(219,-50,ls),
(219,-128,o),
(202,-138,o),
(148,-138,cs),
(119,-138,l),
(119,-181,l)
);
}
);
width = 571;
}
);
unicode = 182;
},
{
glyphname = section;
lastChange = "2024-08-06 02:25:19 +0000";
layers = (
{
layerId = m01;
shapes = (
{
closed = 1;
nodes = (
(317,-181,o),
(387,-125,o),
(387,-40,cs),
(387,41,o),
(324,89,o),
(275,123,c),
(287,121,o),
(302,115,o),
(320,115,cs),
(371,115,o),
(431,163,o),
(431,247,cs),
(431,428,o),
(156,499,o),
(156,619,cs),
(156,664,o),
(194,692,o),
(244,692,cs),
(279,692,o),
(305,678,o),
(305,662,cs),
(305,643,o),
(270,641,o),
(270,603,cs),
(270,572,o),
(294,549,o),
(326,549,cs),
(358,549,o),
(386,573,o),
(386,615,cs),
(386,683,o),
(311,721,o),
(238,721,cs),
(157,721,o),
(85,673,o),
(85,585,cs),
(85,525,o),
(119,467,o),
(197,422,c),
(182,425,o),
(175,426,o),
(165,426,cs),
(90,426,o),
(43,363,o),
(43,290,cs),
(43,115,o),
(316,47,o),
(316,-75,cs),
(316,-117,o),
(284,-154,o),
(228,-154,cs),
(186,-154,o),
(156,-133,o),
(156,-120,cs),
(156,-105,o),
(191,-90,o),
(191,-57,cs),
(191,-34,o),
(173,-5,o),
(136,-5,cs),
(94,-5,o),
(74,-40,o),
(74,-71,cs),
(74,-124,o),
(131,-181,o),
(224,-181,cs)
);
},
{
closed = 1;
nodes = (
(239,143,o),
(106,260,o),
(106,330,cs),
(106,365,o),
(139,397,o),
(174,397,cs),
(243,397,o),
(370,276,o),
(370,211,cs),
(370,176,o),
(333,143,o),
(300,143,cs)
);
}
);
width = 475;
}
);
unicode = 167;
},
{
glyphname = copyright;
lastChange = "2024-08-06 02:25:19 +0000";
layers = (
{
layerId = m01;
shapes = (
{
closed = 1;
nodes = (
(624,-14,o),
(792,155,o),
(792,361,cs),
(792,566,o),
(625,735,o),
(420,735,cs),
(214,735,o),
(43,564,o),
(43,359,cs),
(43,155,o),
(213,-14,o),
(419,-14,cs)
);
},
{
closed = 1;
nodes = (
(235,22,o),
(83,174,o),
(83,359,cs),
(83,546,o),
(237,699,o),
(420,699,cs),
(603,699,o),
(752,547,o),
(752,361,cs),
(752,174,o),
(602,22,o),
(419,22,cs)
);
},
{
closed = 1;
nodes = (
(482,150,o),
(547,191,o),
(578,271,c),
(549,283,l),
(530,235,o),
(490,200,o),
(435,200,cs),
(378,200,o),
(304,238,o),
(304,376,cs),
(304,484,o),
(349,546,o),
(415,546,cs),
(475,546,o),
(529,495,o),
(548,451,c),
(578,463,l),
(539,575,l),
(528,571,o),
(507,562,o),
(494,562,cs),
(479,562,o),
(457,577,o),
(417,577,cs),
(299,577,o),
(232,450,o),
(232,342,cs),
(232,224,o),
(313,150,o),
(410,150,cs)
);
}
);
width = 836;
}
);
unicode = 169;
},
{
glyphname = registered;
lastChange = "2024-08-06 02:25:19 +0000";
layers = (
{
layerId = m01;
shapes = (
{
closed = 1;
nodes = (
(624,-14,o),
(792,155,o),
(792,361,cs),
(792,566,o),
(625,735,o),
(420,735,cs),
(214,735,o),
(43,564,o),
(43,359,cs),
(43,155,o),
(213,-14,o),
(419,-14,cs)
);
},
{
closed = 1;
nodes = (
(235,22,o),
(83,174,o),
(83,359,cs),
(83,546,o),
(237,699,o),
(420,699,cs),
(603,699,o),
(752,547,o),
(752,361,cs),
(752,174,o),
(602,22,o),
(419,22,cs)
);
},
{
closed = 1;
nodes = (
(416,159,l),
(416,189,l),
(406,189,ls),
(374,189,o),
(364,196,o),
(364,242,cs),
(365,351,l),
(401,351,l),
(512,159,l),
(619,159,l),
(619,189,l),
(608,189,ls),
(570,189,o),
(561,199,o),
(536,243,cs),
(470,359,l),
(545,366,o),
(581,415,o),
(581,465,cs),
(581,516,o),
(544,544,o),
(506,557,cs),
(483,565,o),
(451,570,o),
(400,570,cs),
(243,570,l),
(243,539,l),
(257,539,ls),
(291,539,o),
(298,530,o),
(298,492,cs),
(298,238,ls),
(298,191,o),
(289,189,o),
(256,189,cs),
(243,189,l),
(243,159,l)
);
},
{
closed = 1;
nodes = (
(365,503,ls),
(365,535,o),
(379,541,o),
(411,541,cs),
(472,541,o),
(508,520,o),
(508,462,cs),
(508,405,o),
(474,383,o),
(414,383,cs),
(365,383,l)
);
}
);
width = 836;
}
);
unicode = 174;
},
{
glyphname = trademark;
lastChange = "2024-08-06 02:25:19 +0000";
layers = (
{
layerId = m01;
shapes = (
{
closed = 1;
nodes = (
(564,310,l),
(564,341,l),
(522,341,o),
(509,359,o),
(509,408,cs),
(509,655,l),
(643,310,l),
(667,310,l),
(800,659,l),
(800,385,ls),
(800,341,o),
(790,341,o),
(761,341,cs),
(745,341,l),
(745,310,l),
(922,310,l),
(922,341,l),
(909,341,ls),
(880,341,o),
(867,341,o),
(867,385,cs),
(867,651,ls),
(867,686,o),
(879,691,o),
(909,691,cs),
(922,691,l),
(922,721,l),
(788,721,l),
(671,419,l),
(554,721,l),
(417,721,l),
(417,691,l),
(429,691,ls),
(458,691,o),
(472,690,o),
(472,651,cs),
(472,408,ls),
(472,361,o),
(458,341,o),
(417,341,c),
(417,310,l)
);
},
{
closed = 1;
nodes = (
(291,310,l),
(291,341,l),
(270,341,ls),
(240,341,o),
(231,346,o),
(231,390,cs),
(231,655,ls),
(231,685,o),
(235,691,o),
(252,691,cs),
(284,691,o),
(326,668,o),
(368,604,c),
(396,615,l),
(362,721,l),
(34,721,l),
(0,615,l),
(28,604,l),
(69,668,o),
(111,691,o),
(144,691,cs),
(161,691,o),
(164,685,o),
(164,655,cs),
(164,390,ls),
(164,346,o),
(156,341,o),
(125,341,cs),
(105,341,l),
(105,310,l)
);
}
);
width = 955;
}
);
unicode = 8482;
},
{
glyphname = degree;
lastChange = "2024-08-06 02:25:19 +0000";
layers = (
{
layerId = m01;
shapes = (
{
closed = 1;
nodes = (
(222,468,o),
(281,517,o),
(281,601,cs),
(281,685,o),
(223,735,o),
(163,735,cs),
(104,735,o),
(43,686,o),
(43,602,cs),
(43,521,o),
(101,468,o),
(163,468,cs)
);
},
{
closed = 1;
nodes = (
(122,519,o),
(107,561,o),
(107,601,cs),
(107,641,o),
(123,684,o),
(163,684,cs),
(204,684,o),
(217,641,o),
(217,601,cs),
(217,561,o),
(202,519,o),
(162,519,cs)
);
}
);
width = 324;
}
);
unicode = 176;
},
{
glyphname = bar;
lastChange = "2024-08-06 02:25:19 +0000";
layers = (
{
layerId = m01;
shapes = (
{
closed = 1;
nodes = (
(302,-181,l),
(302,721,l),
(239,721,l),
(239,-181,l)
);
}
);
width = 541;
}
);
unicode = 124;
},
{
glyphname = brokenbar;
lastChange = "2024-08-06 02:25:19 +0000";
layers = (
{
layerId = m01;
shapes = (
{
closed = 1;
nodes = (
(302,357,l),
(302,721,l),
(239,721,l),
(239,357,l)
);
},
{
closed = 1;
nodes = (
(302,-181,l),
(302,165,l),
(239,165,l),
(239,-181,l)
);
}
);
width = 541;
}
);
unicode = 166;
},
{
glyphname = dagger;
lastChange = "2024-08-06 02:25:19 +0000";
layers = (
{
layerId = m01;
shapes = (
{
closed = 1;
nodes = (
(254,-181,l),
(254,-110,ls),
(254,67,o),
(265,194,o),
(298,289,c),
(264,329,o),
(255,396,o),
(255,468,c),
(323,468,o),
(342,429,o),
(387,429,cs),
(424,429,o),
(443,456,o),
(443,484,cs),
(443,512,o),
(424,539,o),
(386,539,cs),
(342,539,o),
(322,502,o),
(255,502,c),
(255,600,o),
(293,620,o),
(293,665,cs),
(293,702,o),
(267,721,o),
(238,721,cs),
(209,721,o),
(183,702,o),
(183,665,cs),
(183,620,o),
(221,600,o),
(221,502,c),
(153,502,o),
(134,539,o),
(90,539,cs),
(52,539,o),
(32,512,o),
(32,484,cs),
(32,456,o),
(52,429,o),
(89,429,cs),
(134,429,o),
(152,468,o),
(221,468,c),
(221,396,o),
(212,329,o),
(177,289,c),
(211,194,o),
(222,67,o),
(222,-110,cs),
(222,-181,l)
);
}
);
width = 476;
}
);
unicode = 8224;
},
{
glyphname = daggerdbl;
lastChange = "2024-08-06 02:25:19 +0000";
layers = (
{
layerId = m01;
shapes = (
{
closed = 1;
nodes = (
(266,-181,o),
(293,-161,o),
(293,-123,cs),
(293,-79,o),
(255,-60,o),
(255,39,c),
(322,39,o),
(342,1,o),
(386,1,cs),
(424,1,o),
(443,28,o),
(443,56,cs),
(443,84,o),
(424,111,o),
(387,111,cs),
(342,111,o),
(323,72,o),
(255,72,c),
(255,145,o),
(264,230,o),
(298,270,c),
(264,310,o),
(255,396,o),
(255,468,c),
(323,468,o),
(342,429,o),
(387,429,cs),
(424,429,o),
(443,456,o),
(443,484,cs),
(443,512,o),
(424,539,o),
(386,539,cs),
(342,539,o),
(322,502,o),
(255,502,c),
(255,600,o),
(293,620,o),
(293,665,cs),
(293,702,o),
(267,721,o),
(238,721,cs),
(209,721,o),
(183,702,o),
(183,665,cs),
(183,620,o),
(221,600,o),
(221,502,c),
(153,502,o),
(134,539,o),
(90,539,cs),
(52,539,o),
(32,512,o),
(32,484,cs),
(32,456,o),
(52,429,o),
(89,429,cs),
(134,429,o),
(152,468,o),
(221,468,c),
(221,396,o),
(212,310,o),
(177,270,c),
(212,230,o),
(221,145,o),
(221,72,c),
(152,72,o),
(134,111,o),
(89,111,cs),
(52,111,o),
(32,84,o),
(32,56,cs),
(32,28,o),
(52,1,o),
(90,1,cs),
(134,1,o),
(153,39,o),
(221,39,c),
(221,-60,o),
(183,-79,o),
(183,-123,cs),
(183,-161,o),
(210,-181,o),
(238,-181,cs)
);
}
);
width = 476;
}
);
unicode = 8225;
},
{
glyphname = cent;
lastChange = "2024-08-06 02:25:19 +0000";
layers = (
{
layerId = m01;
shapes = (
{
closed = 1;
nodes = (
(297,0,l),
(297,115,l),
(381,123,o),
(438,179,o),
(471,237,c),
(438,257,l),
(406,209,o),
(361,171,o),
(302,171,cs),
(297,171,l),
(297,568,l),
(362,552,o),
(340,464,o),
(402,464,cs),
(435,464,o),
(455,489,o),
(455,515,cs),
(455,567,o),
(372,610,o),
(306,610,cs),
(297,610,l),
(297,721,l),
(259,721,l),
(259,605,l),
(144,581,o),
(69,468,o),
(69,346,cs),
(69,217,o),
(152,121,o),
(259,115,c),
(259,0,l)
);
},
{
closed = 1;
nodes = (
(201,200,o),
(162,277,o),
(162,378,cs),
(162,477,o),
(199,554,o),
(259,568,c),
(259,178,l)
);
}
);
width = 535;
}
);
unicode = 162;
},
{
glyphname = currency;
lastChange = "2024-08-06 02:25:19 +0000";
layers = (
{
hints = (
{
horizontal = 1;
origin = (0,3);
target = (1,11);
type = Stem;
},
{
horizontal = 1;
origin = (1,5);
target = (0,21);
type = Stem;
},
{
origin = (0,30);
target = (1,2);
type = Stem;
},
{
origin = (1,8);
target = (0,12);
type = Stem;
}
);
layerId = m01;
shapes = (
{
closed = 1;
nodes = (
(134,164,l),
(179,126,o),
(239,105,o),
(300,105,cs),
(364,105,o),
(422,128,o),
(468,164,c),
(525,103,l),
(572,149,l),
(514,210,l),
(548,255,o),
(569,312,o),
(569,373,cs),
(569,435,o),
(548,491,o),
(512,536,c),
(572,597,l),
(523,645,l),
(464,586,l),
(418,621,o),
(361,641,o),
(301,641,cs),
(239,641,o),
(182,619,o),
(136,585,c),
(77,645,l),
(29,597,l),
(89,537,l),
(54,492,o),
(32,435,o),
(32,373,cs),
(32,312,o),
(53,255,o),
(88,210,c),
(29,149,l),
(76,103,l)
);
},
{
closed = 1;
nodes = (
(189,170,o),
(104,265,o),
(104,373,cs),
(104,481,o),
(189,576,o),
(300,576,cs),
(409,576,o),
(497,484,o),
(497,373,cs),
(497,262,o),
(409,170,o),
(300,170,cs)
);
}
);
width = 601;
}
);
note = currency;
unicode = 164;
},
{
glyphname = dollar;
lastChange = "2024-08-06 02:27:45 +0000";
layers = (
{
layerId = m01;
shapes = (
{
closed = 1;
nodes = (
(286,-89,l),
(286,1,l),
(441,16,o),
(493,122,o),
(493,215,cs),
(493,362,o),
(363,403,o),
(286,425,c),
(286,678,l),
(330,672,o),
(364,652,o),
(364,627,cs),
(364,607,o),
(342,596,o),
(342,566,cs),
(342,531,o),
(373,516,o),
(400,516,cs),
(444,516,o),
(463,555,o),
(463,584,cs),
(463,630,o),
(416,711,o),
(286,720,c),
(286,810,l),
(227,810,l),
(227,719,l),
(112,704,o),
(53,630,o),
(53,528,cs),
(53,401,o),
(145,358,o),
(227,331,c),
(227,50,l),
(151,59,o),
(123,97,o),
(123,116,cs),
(123,138,o),
(162,143,o),
(162,179,cs),
(162,211,o),
(132,227,o),
(103,227,cs),
(59,227,o),
(41,189,o),
(41,152,cs),
(41,65,o),
(142,10,o),
(227,2,c),
(227,-89,l)
);
},
{
closed = 1;
nodes = (
(286,311,l),
(352,288,o),
(416,255,o),
(416,173,cs),
(416,93,o),
(354,57,o),
(286,49,c)
);
},
{
closed = 1;
nodes = (
(176,462,o),
(126,496,o),
(126,564,cs),
(126,619,o),
(159,663,o),
(227,676,c),
(227,444,l)
);
}
);
width = 535;
}
);
unicode = 36;
},
{
glyphname = euro;
lastChange = "2024-08-06 02:25:19 +0000";
layers = (
{
layerId = m01;
shapes = (
{
closed = 1;
nodes = (
(474,414,l),
(495,474,l),
(49,474,l),
(27,414,l)
);
},
{
closed = 1;
nodes = (
(441,306,l),
(463,365,l),
(49,365,l),
(27,306,l)
);
},
{
pos = (59,0);
ref = C;
}
);
width = 714;
}
);
unicode = 8364;
},
{
glyphname = lira;
lastChange = "2024-08-06 02:25:19 +0000";
layers = (
{
layerId = m01;
shapes = (
{
closed = 1;
nodes = (
(431,-23,o),
(493,26,o),
(523,158,c),
(485,168,l),
(455,88,o),
(405,69,o),
(347,69,cs),
(298,69,o),
(272,83,o),
(242,96,c),
(263,135,o),
(275,174,o),
(275,219,cs),
(275,231,l),
(404,231,l),
(404,291,l),
(266,291,l),
(253,336,l),
(252,339,l),
(404,339,l),
(404,399,l),
(229,399,l),
(212,442,o),
(196,485,o),
(196,528,cs),
(196,608,o),
(253,674,o),
(332,674,cs),
(384,674,o),
(424,646,o),
(424,620,cs),
(424,592,o),
(375,605,o),
(375,559,cs),
(375,531,o),
(394,508,o),
(425,508,cs),
(459,508,o),
(490,536,o),
(490,586,cs),
(490,666,o),
(412,721,o),
(317,721,cs),
(182,721,o),
(97,611,o),
(97,490,cs),
(97,458,o),
(103,427,o),
(110,399,c),
(44,399,l),
(44,339,l),
(130,339,l),
(150,291,l),
(44,291,l),
(44,231,l),
(172,231,l),
(179,206,o),
(184,182,o),
(184,154,cs),
(184,142,o),
(183,135,o),
(181,125,c),
(162,135,o),
(135,146,o),
(105,146,cs),
(50,146,o),
(9,112,o),
(9,63,cs),
(9,12,o),
(53,-14,o),
(97,-14,cs),
(146,-14,o),
(184,17,o),
(211,48,c),
(257,10,o),
(280,-23,o),
(348,-23,cs)
);
},
{
closed = 1;
nodes = (
(66,35,o),
(61,51,o),
(61,62,cs),
(61,83,o),
(77,97,o),
(100,97,cs),
(119,97,o),
(141,88,o),
(162,76,c),
(144,48,o),
(121,35,o),
(95,35,cs)
);
}
);
width = 535;
}
);
unicode = 8356;
},
{
glyphname = sterling;
lastChange = "2024-08-06 02:27:49 +0000";
layers = (
{
layerId = m01;
shapes = (
{
closed = 1;
nodes = (
(431,-23,o),
(493,26,o),
(523,158,c),
(485,168,l),
(455,88,o),
(405,69,o),
(347,69,cs),
(298,69,o),
(272,83,o),
(242,96,c),
(263,135,o),
(275,174,o),
(275,219,cs),
(275,244,o),
(271,266,o),
(267,285,c),
(404,285,l),
(404,345,l),
(250,345,l),
(231,401,o),
(196,466,o),
(196,528,cs),
(196,608,o),
(253,674,o),
(332,674,cs),
(384,674,o),
(424,646,o),
(424,620,cs),
(424,592,o),
(375,605,o),
(375,559,cs),
(375,531,o),
(394,508,o),
(425,508,cs),
(459,508,o),
(490,536,o),
(490,586,cs),
(490,666,o),
(412,721,o),
(317,721,cs),
(184,721,o),
(97,614,o),
(97,488,cs),
(97,437,o),
(111,388,o),
(128,345,c),
(44,345,l),
(44,285,l),
(152,285,l),
(170,243,o),
(184,202,o),
(184,154,cs),
(184,142,o),
(183,135,o),
(181,125,c),
(162,135,o),
(135,146,o),
(105,146,cs),
(50,146,o),
(9,112,o),
(9,63,cs),
(9,12,o),
(53,-14,o),
(97,-14,cs),
(146,-14,o),
(184,17,o),
(211,48,c),
(257,10,o),
(280,-23,o),
(348,-23,cs)
);
},
{
closed = 1;
nodes = (
(66,35,o),
(61,51,o),
(61,62,cs),
(61,83,o),
(77,97,o),
(100,97,cs),
(119,97,o),
(141,88,o),
(162,76,c),
(144,48,o),
(121,35,o),
(95,35,cs)
);
}
);
width = 535;
}
);
unicode = 163;
},
{
glyphname = yen;
lastChange = "2024-08-06 02:25:19 +0000";
layers = (
{
layerId = m01;
shapes = (
{
closed = 1;
nodes = (
(431,0,l),
(431,42,l),
(409,42,ls),
(355,42,o),
(337,53,o),
(337,131,cs),
(337,257,l),
(526,257,l),
(526,317,l),
(342,317,l),
(387,403,l),
(526,403,l),
(526,463,l),
(418,463,l),
(486,594,ls),
(518,657,o),
(529,672,o),
(590,679,c),
(590,721,l),
(369,721,l),
(369,679,l),
(376,679,ls),
(430,679,o),
(443,660,o),
(443,643,cs),
(443,630,o),
(436,613,o),
(430,600,cs),
(314,358,l),
(189,609,ls),
(186,615,o),
(169,650,o),
(169,661,cs),
(169,676,o),
(205,679,o),
(244,679,c),
(244,721,l),
(-8,721,l),
(-8,679,l),
(55,679,o),
(56,656,o),
(79,610,cs),
(152,463,l),
(58,463,l),
(58,403,l),
(183,403,l),
(226,317,l),
(58,317,l),
(58,257,l),
(237,257,l),
(237,131,ls),
(237,53,o),
(219,42,o),
(165,42,cs),
(143,42,l),
(143,0,l)
);
}
);
width = 584;
}
);
unicode = 165;
},
{
glyphname = plus;
lastChange = "2024-08-06 02:25:19 +0000";
layers = (
{
hints = (
{
horizontal = 1;
origin = (0,11);
target = up;
type = BottomGhost;
},
{
horizontal = 1;
origin = (0,9);
target = (0,8);
type = Stem;
},
{
horizontal = 1;
origin = (0,6);
target = down;
type = TopGhost;
},
{
origin = (0,11);
target = (0,0);
type = Stem;
}
);
layerId = m01;
shapes = (
{
closed = 1;
nodes = (
(336,0,l),
(336,203,l),
(539,203,l),
(539,275,l),
(336,275,l),
(336,478,l),
(265,478,l),
(265,275,l),
(62,275,l),
(62,203,l),
(265,203,l),
(265,0,l)
);
}
);
width = 601;
}
);
unicode = 43;
},
{
glyphname = minus;
lastChange = "2024-08-06 02:25:19 +0000";
layers = (
{
hints = (
{
horizontal = 1;
origin = (0,3);
target = (0,2);
type = Stem;
}
);
layerId = m01;
shapes = (
{
closed = 1;
nodes = (
(539,203,l),
(539,275,l),
(62,275,l),
(62,203,l)
);
}
);
width = 601;
}
);
note = minus;
unicode = 8722;
},
{
glyphname = multiply;
lastChange = "2024-08-06 02:25:19 +0000";
layers = (
{
hints = (
{
horizontal = 1;
origin = (0,7);
target = down;
type = TopGhost;
}
);
layerId = m01;
shapes = (
{
closed = 1;
nodes = (
(301,190,l),
(489,3,l),
(539,53,l),
(349,239,l),
(539,428,l),
(488,478,l),
(301,289,l),
(114,478,l),
(62,428,l),
(252,239,l),
(62,53,l),
(112,3,l)
);
}
);
width = 601;
}
);
note = multiply;
unicode = 215;
},
{
glyphname = divide;
lastChange = "2024-08-06 02:25:19 +0000";
layers = (
{
hints = (
{
horizontal = 1;
origin = (1,11);
target = (1,5);
type = Stem;
},
{
horizontal = 1;
origin = (0,3);
target = (0,2);
type = Stem;
},
{
horizontal = 1;
origin = (2,5);
target = (2,11);
type = Stem;
},
{
origin = (1,8);
target = (1,2);
type = Stem;
}
);
layerId = m01;
shapes = (
{
closed = 1;
nodes = (
(539,203,l),
(539,275,l),
(62,275,l),
(62,203,l)
);
},
{
closed = 1;
nodes = (
(339,-16,o),
(372,16,o),
(372,55,cs),
(372,94,o),
(339,126,o),
(301,126,cs),
(262,126,o),
(229,94,o),
(229,55,cs),
(229,16,o),
(262,-16,o),
(301,-16,cs)
);
},
{
closed = 1;
nodes = (
(339,351,o),
(372,384,o),
(372,423,cs),
(372,462,o),
(339,494,o),
(301,494,cs),
(262,494,o),
(229,462,o),
(229,423,cs),
(229,384,o),
(262,351,o),
(301,351,cs)
);
}
);
width = 601;
}
);
note = divide;
unicode = 247;
},
{
glyphname = equal;
lastChange = "2024-08-06 02:25:19 +0000";
layers = (
{
hints = (
{
horizontal = 1;
origin = (1,3);
target = (1,2);
type = Stem;
},
{
horizontal = 1;
origin = (0,3);
target = (0,2);
type = Stem;
}
);
layerId = m01;
shapes = (
{
closed = 1;
nodes = (
(539,311,l),
(539,383,l),
(62,383,l),
(62,311,l)
);
},
{
closed = 1;
nodes = (
(539,95,l),
(539,166,l),
(62,166,l),
(62,95,l)
);
}
);
width = 601;
}
);
note = equal;
unicode = 61;
},
{
glyphname = notequal;
lastChange = "2024-08-06 02:25:19 +0000";
layers = (
{
hints = (
{
horizontal = 1;
origin = (0,16);
target = (0,15);
type = Stem;
},
{
horizontal = 1;
origin = (0,12);
target = (0,11);
type = Stem;
}
);
layerId = m01;
shapes = (
{
closed = 1;
nodes = (
(251,95,l),
(539,95,l),
(539,166,l),
(291,166,l),
(372,311,l),
(539,311,l),
(539,383,l),
(411,383,l),
(488,520,l),
(435,550,l),
(342,383,l),
(62,383,l),
(62,311,l),
(302,311,l),
(221,166,l),
(62,166,l),
(62,95,l),
(182,95,l),
(106,-40,l),
(159,-70,l)
);
}
);
width = 594;
}
);
note = notequal;
unicode = 8800;
},
{
glyphname = greater;
lastChange = "2024-08-06 02:25:19 +0000";
layers = (
{
hints = (
{
horizontal = 1;
origin = (0,6);
target = up;
type = BottomGhost;
},
{
horizontal = 1;
origin = (0,2);
target = down;
type = TopGhost;
}
);
layerId = m01;
shapes = (
{
closed = 1;
nodes = (
(539,203,l),
(539,275,l),
(62,483,l),
(62,406,l),
(457,239,l),
(62,71,l),
(62,-5,l)
);
}
);
width = 601;
}
);
note = greater;
unicode = 62;
},
{
glyphname = less;
lastChange = "2024-08-06 02:25:19 +0000";
layers = (
{
hints = (
{
horizontal = 1;
origin = (0,6);
target = up;
type = BottomGhost;
},
{
horizontal = 1;
origin = (0,3);
target = down;
type = TopGhost;
}
);
layerId = m01;
shapes = (
{
closed = 1;
nodes = (
(539,71,l),
(144,239,l),
(539,406,l),
(539,483,l),
(62,275,l),
(62,203,l),
(539,-5,l)
);
}
);
width = 601;
}
);
note = less;
unicode = 60;
},
{
glyphname = greaterequal;
lastChange = "2024-08-06 02:25:19 +0000";
layers = (
{
hints = (
{
horizontal = 1;
origin = (1,3);
target = (1,2);
type = Stem;
}
);
layerId = m01;
shapes = (
{
closed = 1;
nodes = (
(539,362,l),
(539,434,l),
(62,642,l),
(62,565,l),
(457,398,l),
(62,230,l),
(62,154,l)
);
},
{
closed = 1;
nodes = (
(539,0,l),
(539,71,l),
(62,71,l),
(62,0,l)
);
}
);
width = 601;
}
);
unicode = 8805;
},
{
glyphname = lessequal;
lastChange = "2024-08-06 02:25:19 +0000";
layers = (
{
hints = (
{
horizontal = 1;
origin = (1,3);
target = (1,2);
type = Stem;
}
);
layerId = m01;
shapes = (
{
closed = 1;
nodes = (
(539,230,l),
(144,398,l),
(539,565,l),
(539,642,l),
(62,434,l),
(62,362,l),
(539,154,l)
);
},
{
closed = 1;
nodes = (
(539,0,l),
(539,71,l),
(62,71,l),
(62,0,l)
);
}
);
width = 601;
}
);
note = lessequal;
unicode = 8804;
},
{
glyphname = plusminus;
lastChange = "2024-08-06 02:25:19 +0000";
layers = (
{
hints = (
{
horizontal = 1;
origin = (1,3);
target = (1,2);
type = Stem;
},
{
horizontal = 1;
origin = (0,11);
target = (0,8);
type = Stem;
},
{
horizontal = 1;
origin = (0,9);
target = (0,8);
type = Stem;
},
{
horizontal = 1;
origin = (0,9);
target = (0,6);
type = Stem;
},
{
origin = (0,11);
target = (0,0);
type = Stem;
}
);
layerId = m01;
shapes = (
{
closed = 1;
nodes = (
(336,133,l),
(336,252,l),
(539,252,l),
(539,323,l),
(336,323,l),
(336,442,l),
(265,442,l),
(265,323,l),
(62,323,l),
(62,252,l),
(265,252,l),
(265,133,l)
);
},
{
closed = 1;
nodes = (
(539,0,l),
(539,71,l),
(62,71,l),
(62,0,l)
);
}
);
width = 601;
}
);
note = plusminus;
unicode = 177;
},
{
glyphname = approxequal;
lastChange = "2024-08-06 02:25:19 +0000";
layers = (
{
hints = (
{
horizontal = 1;
origin = (0,2);
target = (0,15);
type = Stem;
},
{
horizontal = 1;
origin = (1,2);
target = (1,15);
type = Stem;
},
{
horizontal = 1;
origin = (1,5);
target = (1,2);
type = Stem;
},
{
horizontal = 1;
origin = (0,5);
target = (0,2);
type = Stem;
}
);
layerId = m01;
shapes = (
{
closed = 1;
nodes = (
(115,131,o),
(148,148,o),
(186,148,cs),
(265,148,o),
(335,77,o),
(416,77,cs),
(474,77,o),
(512,113,o),
(550,170,c),
(511,224,l),
(489,190,o),
(463,148,o),
(415,148,cs),
(352,148,o),
(279,219,o),
(189,219,cs),
(128,219,o),
(79,186,o),
(51,126,c),
(90,72,l)
);
},
{
closed = 1;
nodes = (
(115,324,o),
(148,342,o),
(187,342,cs),
(265,342,o),
(335,270,o),
(416,270,cs),
(474,270,o),
(512,307,o),
(550,363,c),
(511,417,l),
(489,384,o),
(463,342,o),
(415,342,cs),
(352,342,o),
(278,413,o),
(189,413,cs),
(126,413,o),
(78,377,o),
(51,320,c),
(90,266,l)
);
}
);
width = 594;
}
);
note = approxequal;
unicode = 8776;
},
{
glyphname = asciitilde;
lastChange = "2024-08-06 02:25:19 +0000";
layers = (
{
hints = (
{
horizontal = 1;
origin = (0,2);
target = (0,15);
type = Stem;
},
{
horizontal = 1;
origin = (0,5);
target = (0,2);
type = Stem;
}
);
layerId = m01;
shapes = (
{
closed = 1;
nodes = (
(115,222,o),
(148,239,o),
(186,239,cs),
(265,239,o),
(335,168,o),
(416,168,cs),
(474,168,o),
(512,204,o),
(550,261,c),
(511,315,l),
(489,281,o),
(463,239,o),
(415,239,cs),
(352,239,o),
(279,310,o),
(189,310,cs),
(128,310,o),
(79,277,o),
(51,217,c),
(90,163,l)
);
}
);
width = 601;
}
);
note = asciitilde;
unicode = 126;
},
{
glyphname = logicalnot;
lastChange = "2024-08-06 02:25:19 +0000";
layers = (
{
hints = (
{
horizontal = 1;
origin = (0,3);
target = (0,2);
type = Stem;
},
{
origin = (0,5);
target = (0,0);
type = Stem;
}
);
layerId = m01;
shapes = (
{
closed = 1;
nodes = (
(539,82,l),
(539,383,l),
(62,383,l),
(62,311,l),
(468,311,l),
(468,82,l)
);
}
);
width = 649;
}
);
unicode = 172;
},
{
glyphname = asciicircum;
lastChange = "2024-08-06 02:25:19 +0000";
layers = (
{
hints = (
{
horizontal = 1;
origin = (0,1);
target = (0,5);
type = Stem;
}
);
layerId = m01;
shapes = (
{
closed = 1;
nodes = (
(146,351,l),
(301,666,l),
(455,351,l),
(529,351,l),
(333,746,l),
(268,746,l),
(72,351,l)
);
}
);
width = 601;
}
);
unicode = 94;
},
{
glyphname = infinity;
lastChange = "2024-08-06 02:25:19 +0000";
layers = (
{
layerId = m01;
shapes = (
{
closed = 1;
nodes = (
(259,134,o),
(336,199,o),
(386,250,c),
(435,199,o),
(512,134,o),
(592,134,cs),
(666,134,o),
(745,191,o),
(745,285,cs),
(745,379,o),
(667,437,o),
(592,437,cs),
(512,437,o),
(435,372,o),
(386,321,c),
(335,373,o),
(259,437,o),
(180,437,cs),
(105,437,o),
(27,378,o),
(27,285,cs),
(27,192,o),
(105,134,o),
(180,134,cs)
);
},
{
closed = 1;
nodes = (
(125,190,o),
(82,229,o),
(82,285,cs),
(82,340,o),
(124,382,o),
(184,382,cs),
(259,382,o),
(302,318,o),
(350,285,c),
(302,253,o),
(259,190,o),
(184,190,cs)
);
},
{
closed = 1;
nodes = (
(513,190,o),
(470,253,o),
(422,285,c),
(470,318,o),
(513,382,o),
(587,382,cs),
(647,382,o),
(690,340,o),
(690,285,cs),
(690,231,o),
(648,190,o),
(588,190,cs)
);
}
);
width = 771;
}
);
unicode = 8734;
},
{
glyphname = integral;
lastChange = "2024-08-06 02:25:19 +0000";
layers = (
{
layerId = m01;
shapes = (
{
closed = 1;
nodes = (
(112,-116,o),
(145,-93,o),
(168,-19,cs),
(205,100,o),
(205,308,o),
(205,456,cs),
(205,511,ls),
(205,672,o),
(185,758,o),
(185,880,cs),
(185,897,o),
(192,908,o),
(205,908,cs),
(226,908,o),
(225,882,o),
(259,882,cs),
(281,882,o),
(315,893,o),
(315,929,cs),
(315,961,o),
(289,990,o),
(245,990,cs),
(143,990,o),
(130,833,o),
(130,582,cs),
(130,411,o),
(136,238,o),
(136,50,cs),
(136,0,o),
(122,-39,o),
(108,-39,cs),
(95,-39,o),
(74,-3,o),
(51,-3,cs),
(36,-3,o),
(2,-19,o),
(2,-51,cs),
(2,-77,o),
(24,-116,o),
(74,-116,cs)
);
}
);
width = 296;
}
);
unicode = 8747;
},
{
glyphname = increment;
lastChange = "2024-08-06 02:25:19 +0000";
layers = (
{
layerId = m01;
shapes = (
{
closed = 1;
nodes = (
(598,0,l),
(361,743,l),
(274,716,l),
(39,0,l)
);
},
{
closed = 1;
nodes = (
(298,639,l),
(477,42,l),
(107,42,l)
);
}
);
width = 643;
}
);
unicode = 8710;
},
{
glyphname = product;
lastChange = "2024-08-06 02:25:19 +0000";
layers = (
{
layerId = m01;
shapes = (
{
closed = 1;
nodes = (
(321,-270,l),
(321,-228,l),
(298,-228,ls),
(244,-228,o),
(227,-217,o),
(227,-139,cs),
(227,599,ls),
(227,662,o),
(242,679,o),
(297,679,cs),
(489,679,ls),
(544,679,o),
(559,662,o),
(559,599,cs),
(559,-139,ls),
(559,-217,o),
(542,-228,o),
(488,-228,cs),
(465,-228,l),
(465,-270,l),
(754,-270,l),
(754,-228,l),
(731,-228,ls),
(677,-228,o),
(659,-217,o),
(659,-139,cs),
(659,599,ls),
(659,662,o),
(675,679,o),
(730,679,cs),
(754,679,l),
(754,721,l),
(32,721,l),
(32,679,l),
(56,679,ls),
(111,679,o),
(126,662,o),
(126,599,cs),
(126,-139,ls),
(126,-217,o),
(109,-228,o),
(55,-228,cs),
(32,-228,l),
(32,-270,l)
);
}
);
width = 786;
}
);
unicode = 8719;
},
{
glyphname = summation;
lastChange = "2024-08-06 02:25:19 +0000";
layers = (
{
layerId = m01;
shapes = (
{
closed = 1;
nodes = (
(557,-270,l),
(627,-82,l),
(594,-67,l),
(533,-142,o),
(471,-230,o),
(305,-229,cs),
(141,-228,l),
(439,298,l),
(173,679,l),
(316,679,ls),
(424,679,o),
(485,651,o),
(568,533,c),
(605,546,l),
(542,721,l),
(32,721,l),
(32,679,l),
(322,280,l),
(32,-228,l),
(32,-270,l)
);
}
);
width = 670;
}
);
unicode = 8721;
},
{
glyphname = radical;
lastChange = "2024-08-06 02:25:19 +0000";
layers = (
{
layerId = m01;
shapes = (
{
closed = 1;
nodes = (
(557,986,l),
(519,991,l),
(382,129,l),
(169,564,l),
(11,486,l),
(28,451,l),
(132,502,l),
(395,-41,l)
);
}
);
width = 594;
}
);
unicode = 8730;
},
{
glyphname = micro;
lastChange = "2024-08-06 02:25:19 +0000";
layers = (
{
anchors = (
{
name = dotbelow;
pos = (269,0);
},
{
name = top;
pos = (269,558);
}
);
layerId = m01;
shapes = (
{
closed = 1;
nodes = (
(147,-365,o),
(175,-345,o),
(175,-278,cs),
(175,-203,o),
(139,-177,o),
(134,13,c),
(156,-5,o),
(183,-14,o),
(214,-14,cs),
(285,-14,o),
(334,32,o),
(368,68,c),
(368,-9,l),
(512,0,l),
(512,36,l),
(464,37,o),
(451,42,o),
(451,109,cs),
(451,490,l),
(299,442,l),
(299,412,l),
(358,403,o),
(368,399,o),
(368,337,cs),
(368,116,l),
(331,78,o),
(289,51,o),
(248,51,cs),
(227,51,o),
(205,58,o),
(193,78,cs),
(182,96,o),
(177,127,o),
(177,169,cs),
(177,490,l),
(26,442,l),
(26,412,l),
(84,403,o),
(94,399,o),
(94,337,cs),
(94,56,ls),
(94,-177,o),
(55,-198,o),
(55,-277,cs),
(55,-345,o),
(84,-365,o),
(116,-365,cs)
);
}
);
width = 537;
}
);
unicode = 181;
},
{
glyphname = partialdiff;
lastChange = "2024-08-06 02:25:19 +0000";
layers = (
{
layerId = m01;
shapes = (
{
closed = 1;
nodes = (
(396,-14,o),
(492,105,o),
(492,335,cs),
(492,572,o),
(390,759,o),
(210,759,cs),
(150,759,o),
(58,738,o),
(58,693,cs),
(58,672,o),
(78,652,o),
(104,652,cs),
(153,652,o),
(161,724,o),
(232,724,cs),
(344,724,o),
(365,542,o),
(365,458,c),
(336,474,o),
(294,482,o),
(262,482,cs),
(152,482,o),
(41,385,o),
(41,237,cs),
(41,110,o),
(123,-14,o),
(261,-14,cs)
);
},
{
closed = 1;
nodes = (
(178,23,o),
(135,121,o),
(135,236,cs),
(135,350,o),
(178,445,o),
(264,445,cs),
(352,445,o),
(387,347,o),
(387,240,cs),
(387,120,o),
(343,23,o),
(261,23,cs)
);
}
);
width = 533;
}
);
unicode = 8706;
},
{
glyphname = percent;
lastChange = "2024-08-06 02:25:19 +0000";
layers = (
{
layerId = m01;
shapes = (
{
closed = 1;
nodes = (
(161,-1,l),
(535,732,l),
(486,732,l),
(111,-1,l)
);
},
{
closed = 1;
nodes = (
(549,-14,o),
(608,87,o),
(608,198,cs),
(608,304,o),
(554,409,o),
(476,409,cs),
(398,409,o),
(343,306,o),
(343,197,cs),
(343,86,o),
(401,-14,o),
(475,-14,cs)
);
},
{
closed = 1;
nodes = (
(418,16,o),
(410,104,o),
(410,201,cs),
(410,292,o),
(417,378,o),
(475,378,cs),
(523,378,o),
(541,321,o),
(541,195,cs),
(541,88,o),
(528,16,o),
(476,16,cs)
);
},
{
closed = 1;
nodes = (
(241,319,o),
(301,418,o),
(301,530,cs),
(301,637,o),
(246,742,o),
(168,742,cs),
(91,742,o),
(36,639,o),
(36,530,cs),
(36,419,o),
(94,319,o),
(168,319,cs)
);
},
{
closed = 1;
nodes = (
(111,349,o),
(103,437,o),
(103,534,cs),
(103,625,o),
(110,711,o),
(168,711,cs),
(216,711,o),
(234,654,o),
(234,528,cs),
(234,421,o),
(221,349,o),
(169,349,cs)
);
}
);
width = 643;
}
);
unicode = 37;
},
{
glyphname = perthousand;
lastChange = "2024-08-06 02:25:19 +0000";
layers = (
{
layerId = m01;
shapes = (
{
closed = 1;
nodes = (
(161,-1,l),
(535,732,l),
(486,732,l),
(111,-1,l)
);
},
{
closed = 1;
nodes = (
(549,-14,o),
(608,87,o),
(608,198,cs),
(608,304,o),
(554,409,o),
(476,409,cs),
(398,409,o),
(343,306,o),
(343,197,cs),
(343,86,o),
(401,-14,o),
(475,-14,cs)
);
},
{
closed = 1;
nodes = (
(418,16,o),
(410,104,o),
(410,201,cs),
(410,292,o),
(417,378,o),
(475,378,cs),
(523,378,o),
(541,321,o),
(541,195,cs),
(541,88,o),
(528,16,o),
(476,16,cs)
);
},
{
closed = 1;
nodes = (
(241,319,o),
(301,418,o),
(301,530,cs),
(301,637,o),
(246,742,o),
(168,742,cs),
(91,742,o),
(36,639,o),
(36,530,cs),
(36,419,o),
(94,319,o),
(168,319,cs)
);
},
{
closed = 1;
nodes = (
(111,349,o),
(103,437,o),
(103,534,cs),
(103,625,o),
(110,711,o),
(168,711,cs),
(216,711,o),
(234,654,o),
(234,528,cs),
(234,421,o),
(221,349,o),
(169,349,cs)
);
},
{
closed = 1;
nodes = (
(842,-14,o),
(901,87,o),
(901,197,cs),
(901,304,o),
(846,409,o),
(768,409,cs),
(691,409,o),
(636,306,o),
(636,197,cs),
(636,86,o),
(694,-14,o),
(768,-14,cs)
);
},
{
closed = 1;
nodes = (
(711,16,o),
(703,104,o),
(703,201,cs),
(703,292,o),
(710,378,o),
(768,378,cs),
(816,378,o),
(834,321,o),
(834,195,cs),
(834,88,o),
(821,16,o),
(769,16,cs)
);
}
);
width = 937;
}
);
unicode = 8240;
},
{
glyphname = lozenge;
lastChange = "2024-08-06 02:25:19 +0000";
layers = (
{
layerId = m01;
shapes = (
{
closed = 1;
nodes = (
(294,0,l),
(504,408,l),
(294,805,l),
(229,805,l),
(19,408,l),
(229,0,l)
);
},
{
closed = 1;
nodes = (
(84,408,l),
(262,747,l),
(439,408,l),
(262,58,l)
);
}
);
width = 534;
}
);
unicode = 9674;
},
{
glyphname = dieresiscomb;
lastChange = "2024-08-06 02:25:19 +0000";
layers = (
{
anchors = (
{
name = _top;
pos = (138,558);
},
{
name = top;
pos = (138,726);
}
);
layerId = m01;
shapes = (
{
closed = 1;
nodes = (
(253,555,o),
(277,576,o),
(277,608,cs),
(277,639,o),
(253,659,o),
(225,659,cs),
(197,659,o),
(172,639,o),
(172,608,cs),
(172,576,o),
(197,555,o),
(225,555,cs)
);
},
{
closed = 1;
nodes = (
(81,555,o),
(105,576,o),
(105,608,cs),
(105,639,o),
(81,659,o),
(53,659,cs),
(25,659,o),
(0,639,o),
(0,608,cs),
(0,576,o),
(25,555,o),
(53,555,cs)
);
}
);
width = 277;
}
);
unicode = 776;
},
{
glyphname = dotaccentcomb;
lastChange = "2024-08-06 02:25:19 +0000";
layers = (
{
anchors = (
{
name = _top;
pos = (58,558);
},
{
name = _top_dot;
pos = (58,494);
},
{
name = top;
pos = (58,726);
}
);
layerId = m01;
shapes = (
{
closed = 1;
nodes = (
(89,549,o),
(116,574,o),
(116,608,cs),
(116,641,o),
(89,665,o),
(58,665,cs),
(28,665,o),
(0,641,o),
(0,608,cs),
(0,574,o),
(28,549,o),
(58,549,cs)
);
}
);
width = 116;
}
);
unicode = 775;
},
